<svg width="42" height="42" viewBox="0 0 42 42" fill="none" xmlns="http://www.w3.org/2000/svg">
<path d="M6.27393 33.1261V35.0348C6.27393 36.8497 7.74563 38.321 9.56098 38.321H16.2538" stroke="white" stroke-width="1.5" stroke-miterlimit="10" stroke-linecap="round" stroke-linejoin="round"/>
<path d="M9.28125 19.189H3.53602C2.13544 19.189 1 20.3241 1 21.7243V30.591C1 31.9913 2.13544 33.1264 3.53602 33.1264H9.28125C10.5329 33.1264 11.5475 32.112 11.5475 30.8607V21.4546C11.5475 20.2033 10.5329 19.189 9.28125 19.189Z" stroke="white" stroke-width="1.5" stroke-miterlimit="10" stroke-linecap="round" stroke-linejoin="round"/>
<path d="M36.5511 19.189H38.4638C39.8644 19.189 40.9999 20.3241 40.9999 21.7243V30.591C40.9999 31.9913 39.8644 33.1264 38.4638 33.1264H32.7186C31.467 33.1264 30.4524 32.112 30.4524 30.8607V20.8505" stroke="white" stroke-width="1.5" stroke-miterlimit="10" stroke-linecap="round" stroke-linejoin="round"/>
<path d="M23.1081 40.9999H18.892C17.4349 40.9999 16.2537 39.8186 16.2537 38.3615V36.8821C16.2537 36.2423 16.7724 35.7235 17.4123 35.7235H24.5879C25.2277 35.7235 25.7464 36.2423 25.7464 36.8821V38.3615C25.7464 39.8186 24.5652 40.9999 23.1081 40.9999Z" stroke="white" stroke-width="1.5" stroke-miterlimit="10" stroke-linecap="round" stroke-linejoin="round"/>
<path d="M6.27393 33.1264V19.189" stroke="white" stroke-width="1.5" stroke-miterlimit="10" stroke-linecap="round" stroke-linejoin="round"/>
<path d="M35.7261 33.1261V19.7251" stroke="white" stroke-width="1.5" stroke-miterlimit="10" stroke-linecap="round" stroke-linejoin="round"/>
<path d="M22.2315 6.41942C21.8264 6.37942 21.4156 6.35892 21 6.35892C14.1642 6.35892 8.62259 11.8991 8.62259 18.7333V19.1887H3.46973V18.5282C3.46973 8.84888 11.3183 1.00232 21 1.00232C23.0256 1.00232 24.9708 1.34572 26.7808 1.97759" stroke="white" stroke-width="1.5" stroke-miterlimit="10" stroke-linecap="round" stroke-linejoin="round"/>
<path d="M31.0595 1C25.5781 1 21.1345 5.44249 21.1345 10.9225C21.1345 13.932 22.4749 16.6282 24.591 18.448L22.5798 20.845H31.0595C36.5409 20.845 40.9846 16.4025 40.9846 10.9225C40.9846 5.44249 36.5409 1 31.0595 1Z" stroke="white" stroke-width="1.5" stroke-miterlimit="10" stroke-linecap="round" stroke-linejoin="round"/>
<circle cx="35.6428" cy="10.9225" r="1.24481" fill="white"/>
<circle cx="31.0593" cy="10.9225" r="1.24481" fill="white"/>
<circle cx="26.4758" cy="10.9225" r="1.24481" fill="white"/>
</svg>
