<svg width="214" height="24" viewBox="0 0 214 24" fill="none" xmlns="http://www.w3.org/2000/svg">
<path d="M14.098 9.54688H10.9872C10.9304 9.14441 10.8144 8.78693 10.6392 8.47443C10.464 8.1572 10.2391 7.88731 9.96449 7.66477C9.68987 7.44223 9.37263 7.27178 9.01278 7.15341C8.65767 7.03504 8.27178 6.97585 7.85511 6.97585C7.10227 6.97585 6.4465 7.16288 5.88778 7.53693C5.32907 7.90625 4.89583 8.44602 4.58807 9.15625C4.2803 9.86174 4.12642 10.7187 4.12642 11.7273C4.12642 12.7642 4.2803 13.6354 4.58807 14.3409C4.90057 15.0464 5.33617 15.5791 5.89489 15.9389C6.4536 16.2988 7.09991 16.4787 7.83381 16.4787C8.24574 16.4787 8.62689 16.4242 8.97727 16.3153C9.33239 16.2064 9.64725 16.0478 9.92188 15.8395C10.1965 15.6264 10.4238 15.3684 10.6037 15.0653C10.7884 14.7623 10.9162 14.4167 10.9872 14.0284L14.098 14.0426C14.0175 14.7102 13.8163 15.3542 13.4943 15.9744C13.1771 16.59 12.7486 17.1416 12.2088 17.6293C11.6738 18.1122 11.0346 18.4957 10.2912 18.7798C9.55256 19.0592 8.71686 19.1989 7.78409 19.1989C6.48674 19.1989 5.3267 18.9053 4.30398 18.3182C3.28598 17.7311 2.48106 16.8812 1.8892 15.7685C1.30208 14.6558 1.00852 13.3087 1.00852 11.7273C1.00852 10.1411 1.30682 8.79167 1.90341 7.67898C2.5 6.56629 3.30966 5.71875 4.33239 5.13636C5.35511 4.54924 6.50568 4.25568 7.78409 4.25568C8.62689 4.25568 9.40814 4.37405 10.1278 4.6108C10.8523 4.84754 11.4938 5.19318 12.0526 5.64773C12.6113 6.09754 13.0658 6.64915 13.4162 7.30256C13.7713 7.95597 13.9986 8.70407 14.098 9.54688ZM16.9033 19V4.45455H22.6419C23.7404 4.45455 24.6779 4.65104 25.4544 5.04403C26.2357 5.43229 26.8299 5.9839 27.2371 6.69886C27.649 7.40909 27.855 8.24479 27.855 9.20597C27.855 10.1719 27.6466 11.0028 27.23 11.6989C26.8133 12.3902 26.2096 12.9205 25.4189 13.2898C24.6329 13.6591 23.6812 13.8438 22.5638 13.8438H18.7214V11.3722H22.0666C22.6537 11.3722 23.1414 11.2917 23.5297 11.1307C23.9179 10.9697 24.2068 10.7282 24.3962 10.4062C24.5903 10.0843 24.6874 9.68419 24.6874 9.20597C24.6874 8.72301 24.5903 8.31581 24.3962 7.98438C24.2068 7.65294 23.9156 7.40199 23.5226 7.23153C23.1343 7.05634 22.6443 6.96875 22.0524 6.96875H19.9786V19H16.9033ZM24.7584 12.3807L28.3734 19H24.9786L21.4416 12.3807H24.7584ZM30.6283 19V4.45455H40.4294V6.99006H33.7036V10.456H39.9251V12.9915H33.7036V16.4645H40.4578V19H30.6283ZM45.9815 19H42.686L47.7073 4.45455H51.6704L56.6846 19H53.3891L49.7457 7.77841H49.632L45.9815 19ZM45.7755 13.2827H53.5596V15.6832H45.7755V13.2827ZM56.704 6.99006V4.45455H68.65V6.99006H64.1969V19H61.1571V6.99006H56.704ZM83.9197 11.7273C83.9197 13.3134 83.6191 14.6629 83.0178 15.7756C82.4212 16.8883 81.6068 17.7382 80.5746 18.3253C79.5471 18.9077 78.3918 19.1989 77.1087 19.1989C75.8161 19.1989 74.656 18.9053 73.6286 18.3182C72.6011 17.7311 71.7891 16.8812 71.1925 15.7685C70.5959 14.6558 70.2976 13.3087 70.2976 11.7273C70.2976 10.1411 70.5959 8.79167 71.1925 7.67898C71.7891 6.56629 72.6011 5.71875 73.6286 5.13636C74.656 4.54924 75.8161 4.25568 77.1087 4.25568C78.3918 4.25568 79.5471 4.54924 80.5746 5.13636C81.6068 5.71875 82.4212 6.56629 83.0178 7.67898C83.6191 8.79167 83.9197 10.1411 83.9197 11.7273ZM80.8018 11.7273C80.8018 10.6998 80.648 9.83333 80.3402 9.12784C80.0372 8.42235 79.6087 7.88731 79.0547 7.52273C78.5007 7.15814 77.852 6.97585 77.1087 6.97585C76.3653 6.97585 75.7166 7.15814 75.1626 7.52273C74.6087 7.88731 74.1778 8.42235 73.87 9.12784C73.567 9.83333 73.4155 10.6998 73.4155 11.7273C73.4155 12.7547 73.567 13.6212 73.87 14.3267C74.1778 15.0322 74.6087 15.5672 75.1626 15.9318C75.7166 16.2964 76.3653 16.4787 77.1087 16.4787C77.852 16.4787 78.5007 16.2964 79.0547 15.9318C79.6087 15.5672 80.0372 15.0322 80.3402 14.3267C80.648 13.6212 80.8018 12.7547 80.8018 11.7273ZM86.7978 19V4.45455H92.5364C93.6397 4.45455 94.5795 4.66525 95.356 5.08665C96.1326 5.50331 96.7244 6.08333 97.1316 6.8267C97.5435 7.56534 97.7495 8.41761 97.7495 9.38352C97.7495 10.3494 97.5412 11.2017 97.1245 11.9403C96.7078 12.679 96.1041 13.2543 95.3134 13.6662C94.5274 14.0781 93.5757 14.2841 92.4583 14.2841H88.8006V11.8196H91.9611C92.553 11.8196 93.0407 11.7178 93.4242 11.5142C93.8125 11.3059 94.1013 11.0194 94.2907 10.6548C94.4848 10.2855 94.5819 9.86174 94.5819 9.38352C94.5819 8.90057 94.4848 8.47917 94.2907 8.11932C94.1013 7.75473 93.8125 7.47301 93.4242 7.27415C93.036 7.07055 92.5435 6.96875 91.9469 6.96875H89.8731V19H86.7978Z" fill="#C53228"/>
<path d="M103.976 19.1847C103.507 19.1847 103.105 19.0189 102.768 18.6875C102.437 18.3513 102.271 17.9489 102.271 17.4801C102.271 17.0161 102.437 16.6184 102.768 16.2869C103.105 15.9555 103.507 15.7898 103.976 15.7898C104.43 15.7898 104.828 15.9555 105.169 16.2869C105.51 16.6184 105.68 17.0161 105.68 17.4801C105.68 17.7926 105.6 18.0791 105.439 18.3395C105.283 18.5952 105.077 18.8011 104.821 18.9574C104.565 19.1089 104.284 19.1847 103.976 19.1847ZM111.875 19.206C111.179 19.206 110.559 19.0852 110.014 18.8438C109.47 18.5975 109.039 18.2353 108.722 17.7571C108.409 17.2741 108.253 16.6728 108.253 15.9531C108.253 15.3471 108.364 14.8381 108.587 14.4261C108.809 14.0142 109.112 13.6828 109.496 13.4318C109.879 13.1809 110.315 12.9915 110.803 12.8636C111.295 12.7358 111.811 12.6458 112.351 12.5938C112.986 12.5275 113.497 12.4659 113.885 12.4091C114.273 12.3475 114.555 12.2576 114.73 12.1392C114.906 12.0208 114.993 11.8456 114.993 11.6136V11.571C114.993 11.1212 114.851 10.7732 114.567 10.527C114.288 10.2808 113.89 10.1577 113.374 10.1577C112.829 10.1577 112.396 10.2784 112.074 10.5199C111.752 10.7566 111.539 11.0549 111.435 11.4148L108.637 11.1875C108.779 10.5246 109.058 9.9517 109.475 9.46875C109.891 8.98106 110.429 8.60701 111.087 8.34659C111.75 8.08144 112.517 7.94886 113.388 7.94886C113.994 7.94886 114.574 8.01989 115.128 8.16193C115.687 8.30398 116.182 8.52415 116.612 8.82244C117.048 9.12074 117.391 9.50426 117.642 9.97301C117.893 10.437 118.019 10.9934 118.019 11.642V19H115.149V17.4872H115.064C114.889 17.8281 114.655 18.1288 114.361 18.3892C114.067 18.6449 113.715 18.8461 113.303 18.9929C112.891 19.1349 112.415 19.206 111.875 19.206ZM112.742 17.1179C113.187 17.1179 113.58 17.0303 113.921 16.8551C114.262 16.6752 114.529 16.4337 114.723 16.1307C114.917 15.8277 115.014 15.4844 115.014 15.1009V13.9432C114.92 14.0047 114.79 14.0616 114.624 14.1136C114.463 14.161 114.281 14.206 114.077 14.2486C113.873 14.2865 113.67 14.322 113.466 14.3551C113.263 14.3835 113.078 14.4096 112.912 14.4332C112.557 14.4853 112.247 14.5682 111.982 14.6818C111.717 14.7955 111.511 14.9493 111.364 15.1435C111.217 15.3329 111.144 15.5696 111.144 15.8537C111.144 16.2656 111.293 16.5805 111.591 16.7983C111.894 17.0114 112.278 17.1179 112.742 17.1179ZM120.966 19V8.09091H123.992V19H120.966ZM122.486 6.68466C122.036 6.68466 121.65 6.53551 121.328 6.23722C121.011 5.93419 120.852 5.57197 120.852 5.15057C120.852 4.7339 121.011 4.37642 121.328 4.07812C121.65 3.77509 122.036 3.62358 122.486 3.62358C122.936 3.62358 123.319 3.77509 123.636 4.07812C123.958 4.37642 124.119 4.7339 124.119 5.15057C124.119 5.57197 123.958 5.93419 123.636 6.23722C123.319 6.53551 122.936 6.68466 122.486 6.68466Z" fill="#222222"/>
<path d="M138 4V20" stroke="#B0B0B0"/>
<path d="M152.24 8.66H153.76C153.776 8.532 153.776 8.42 153.776 8.308V7.62H152.976C152.752 8.004 152.496 8.356 152.24 8.66ZM158.08 11.684L156.736 12.9C156.288 12.5 155.392 11.844 154.672 11.348C154.096 12.164 153.168 12.98 151.728 13.652C151.472 13.268 150.944 12.676 150.528 12.372C152.16 11.732 152.976 10.948 153.376 10.148H150.72V8.66H151.792C151.408 8.42 150.896 8.132 150.576 7.972C151.392 7.204 152.016 6.036 152.336 4.852L154.016 5.204C153.92 5.508 153.824 5.828 153.696 6.148H157.664V7.62H155.584V8.34C155.584 8.452 155.584 8.548 155.568 8.66H158.032V10.148H155.392C156.064 10.5 157.664 11.412 158.08 11.684ZM161.328 14.628H154.72V15.524H161.328V14.628ZM154.72 17.844H161.328V16.9H154.72V17.844ZM152.848 19.892V13.14H163.28V19.876H161.328V19.364H154.72V19.892H152.848ZM162.768 10.5V7.796H160.336V10.5H162.768ZM158.576 6.116H164.656V12.18H158.576V6.116ZM179.616 12.004H177.184C175.264 12.004 174.752 11.3 174.752 9.524V4.98H176.64V6.868H180.576V8.5H176.64V9.556C176.64 10.148 176.736 10.372 177.248 10.372H179.584C180.032 10.372 180.704 10.324 181.056 10.244C181.088 10.74 181.168 11.428 181.232 11.86C180.896 11.972 180.224 12.004 179.616 12.004ZM169.28 13.716V14.292C169.28 14.9 169.248 15.62 169.168 16.34C169.888 16.02 170.832 15.54 171.792 15.028V14.5L171.024 15.252C170.624 14.836 169.888 14.212 169.28 13.716ZM171.792 12.276H169.28V13.412L170.08 12.724C170.624 13.108 171.312 13.668 171.792 14.084V12.276ZM173.584 10.676V18.132C173.584 18.916 173.44 19.316 172.912 19.572C172.4 19.812 171.68 19.844 170.704 19.844C170.624 19.396 170.368 18.772 170.128 18.356C170.704 18.388 171.328 18.388 171.52 18.388C171.728 18.388 171.792 18.324 171.792 18.116V16.484C170.992 17.06 170.192 17.604 169.472 18.068L169.072 16.948C168.896 18.036 168.544 19.124 167.936 19.956C167.664 19.588 166.944 18.9 166.608 18.676C167.456 17.428 167.52 15.668 167.52 14.276V10.676H173.584ZM171.152 6.692L172.688 6.132C173.36 7.284 174.208 8.852 174.592 9.812L172.928 10.484C172.832 10.196 172.688 9.86 172.528 9.476C168.48 9.876 167.824 9.972 167.36 10.164C167.264 9.796 166.96 8.932 166.768 8.452C167.056 8.388 167.328 8.164 167.648 7.812C167.968 7.46 168.944 6.228 169.536 4.964L171.456 5.508C170.912 6.436 170.192 7.364 169.488 8.164L171.824 7.988C171.584 7.524 171.36 7.076 171.152 6.692ZM177.392 18.116H179.2C179.744 18.116 179.856 17.844 179.936 16.372C180.32 16.66 181.088 16.948 181.584 17.06C181.392 19.156 180.896 19.78 179.376 19.78H177.104C175.216 19.78 174.752 19.22 174.752 17.476V12.452H176.64V14.052H180.688V15.732H176.64V17.476C176.64 18.036 176.752 18.116 177.392 18.116ZM186.336 19.62L184.88 18.708C185.664 18.052 186.224 16.98 186.512 15.956L188.048 16.516C187.712 17.652 187.216 18.852 186.336 19.62ZM188.064 7.62L189.184 7.972C188.912 8.484 188.624 9.028 188.272 9.524V10.484C189.04 9.684 189.728 8.66 190.176 7.62H188.064ZM185.36 7.62V10.532C186.24 9.716 187.072 8.676 187.584 7.62H185.36ZM191.312 8.9H193.072C192.912 8.58 192.688 8.244 192.48 7.956L193.408 7.62H190.88L191.808 7.876C191.664 8.228 191.488 8.548 191.312 8.9ZM192.864 10.564V10.004H190.96V10.564H192.864ZM192.864 12.1V11.492H190.96V12.1H192.864ZM192.864 13.652V13.012H190.96V13.652H192.864ZM189.392 15.268V11.636C189.296 11.748 189.184 11.86 189.088 11.956C188.912 11.748 188.592 11.444 188.272 11.22V15.268H186.688V11.508C186.448 11.748 186.192 11.988 185.968 12.196C185.84 12.036 185.6 11.78 185.36 11.524C185.312 14.1 185.008 17.604 183.808 19.908C183.504 19.572 182.752 18.98 182.368 18.788C183.536 16.484 183.616 13.124 183.616 10.756V6.068H189.712C189.568 5.748 189.392 5.428 189.216 5.172L190.912 4.692C191.216 5.092 191.504 5.604 191.728 6.068H197.28V7.62H193.952C194.24 7.988 194.512 8.404 194.656 8.724L194.24 8.9H196.864V10.004H194.448V10.564H196.448V11.492H194.448V12.1H196.464V13.012H194.448V13.652H197.056V14.804H191.248C192.096 15.204 193.088 15.78 193.632 16.276L192.464 17.396C191.952 16.868 190.88 16.148 190 15.732L190.48 15.268H189.392ZM190.96 18.308H192.576C193.008 18.308 193.088 18.164 193.152 17.14C193.488 17.38 194.208 17.636 194.656 17.748C194.48 19.38 194.016 19.796 192.752 19.796H190.72C188.992 19.796 188.592 19.332 188.592 17.892V16.148H190.32V17.86C190.32 18.26 190.416 18.308 190.96 18.308ZM193.952 16.468L195.344 15.78C196.176 16.708 197.088 17.94 197.456 18.836L195.936 19.572C195.632 18.708 194.752 17.396 193.952 16.468ZM203.408 12.196L203.648 13.892C203.12 14.052 202.592 14.212 202.064 14.356V17.876C202.064 18.756 201.904 19.236 201.424 19.54C200.944 19.844 200.256 19.908 199.216 19.892C199.168 19.428 198.96 18.644 198.736 18.132C199.312 18.164 199.856 18.164 200.048 18.148C200.24 18.148 200.32 18.084 200.32 17.876V14.852L198.72 15.332L198.432 13.46C198.976 13.348 199.616 13.188 200.32 13.012V9.732H198.64V7.972H200.32V4.964H202.064V7.972H203.504V9.732H202.064V12.548L203.408 12.196ZM210.304 15.092H207.52C207.92 15.7 208.448 16.228 209.12 16.692C209.6 16.244 210.016 15.716 210.304 15.092ZM211.392 13.668L212.416 14.084C212.016 15.508 211.408 16.612 210.576 17.492C211.488 17.892 212.512 18.18 213.648 18.356C213.248 18.724 212.768 19.428 212.528 19.908C211.264 19.636 210.128 19.22 209.152 18.676C208.272 19.22 207.232 19.636 206.128 19.924C205.936 19.524 205.424 18.82 205.104 18.516C206.064 18.324 206.944 18.036 207.712 17.636C207.248 17.268 206.848 16.82 206.496 16.34C205.872 17.684 204.96 18.932 203.536 19.86C203.28 19.412 202.736 18.804 202.304 18.484C204.416 17.188 205.232 15.14 205.6 13.092H203.68V11.556H205.808C205.824 11.3 205.84 11.044 205.872 10.804H203.984V9.316H204.976C204.848 8.82 204.608 8.116 204.4 7.588L205.84 7.188C206.08 7.78 206.416 8.548 206.56 9.028L205.664 9.316H207.504C207.456 8.788 207.312 7.956 207.152 7.3L208.64 7.044C208.816 7.668 209.008 8.484 209.072 8.98L207.584 9.316H209.584C210.032 8.564 210.544 7.524 210.832 6.74C208.704 7.012 206.24 7.156 204.096 7.188C204.064 6.772 203.872 6.164 203.696 5.78C206.496 5.684 209.776 5.444 211.744 5.012L212.816 6.436C212.208 6.548 211.552 6.644 210.832 6.74L212.592 7.252C212.16 7.956 211.696 8.692 211.28 9.316H212.8V10.804H207.68C207.664 11.06 207.648 11.3 207.616 11.556H213.264V13.092H207.424C207.376 13.3 207.344 13.508 207.296 13.716H211.088L211.392 13.668Z" fill="#222222"/>
</svg>
