<svg width="44" height="44" viewBox="0 0 44 44" fill="none" xmlns="http://www.w3.org/2000/svg">
<path d="M20.4375 23.5625L24.5 19.5" stroke="#4B4E5C" stroke-linecap="round" stroke-linejoin="round"/>
<path d="M29.4757 15.2953C29.5059 15.1884 29.5069 15.0754 29.4789 14.9679C29.4508 14.8604 29.3946 14.7624 29.3161 14.6839C29.2376 14.6053 29.1395 14.5491 29.032 14.5211C28.9246 14.493 28.8115 14.4941 28.7046 14.5242L13.7046 19.0727C13.5822 19.1072 13.4732 19.1783 13.3922 19.2765C13.3113 19.3747 13.2622 19.4952 13.2516 19.622C13.241 19.7488 13.2693 19.8758 13.3328 19.9861C13.3963 20.0964 13.492 20.1846 13.607 20.2391L20.4374 23.5625L23.7609 30.3922C23.8153 30.5072 23.9036 30.6029 24.0138 30.6664C24.1241 30.7299 24.2511 30.7582 24.3779 30.7476C24.5047 30.737 24.6253 30.6879 24.7234 30.607C24.8216 30.526 24.8927 30.417 24.9273 30.2945L29.4757 15.2953Z" stroke="#4B4E5C" stroke-linecap="round" stroke-linejoin="round"/>
</svg>
