<svg width="56" height="53" viewBox="0 0 56 53" fill="none" xmlns="http://www.w3.org/2000/svg">
<path d="M55.1186 23.4606C55.0801 24.0116 55.0093 24.5598 54.9066 25.1025C54.5636 27.1804 53.8611 29.1826 52.8308 31.0193C52.3377 31.897 49.9661 35.2301 49.2413 36.1077C45.2327 40.9349 38.5171 46.5065 27.2949 51.9253C27.0582 52.0397 26.7952 52.0889 26.5331 52.0678C26.271 52.0468 26.0193 51.9563 25.8038 51.8056C25.5883 51.6549 25.4169 51.4495 25.3072 51.2106C25.1975 50.9716 25.1535 50.7077 25.1797 50.4461L25.7467 45.3527C25.7896 44.9631 25.6761 44.5723 25.4311 44.2663C25.1861 43.9603 24.8296 43.7641 24.4401 43.7207C20.7067 43.3472 17.07 42.3103 13.7011 40.6587C6.00924 36.8572 0.881348 30.0677 0.881348 22.3315C0.881348 10.419 13.0206 0.779541 28 0.779541C35.5242 0.779541 42.3285 3.24487 47.2296 7.15489C51.82 10.8282 54.7587 15.8131 55.0743 21.3453C55.1269 22.0491 55.1417 22.7552 55.1186 23.4606Z" fill="white"/>
<path d="M20.5251 27.1045C20.6562 27.2328 20.7601 27.3863 20.8304 27.5557C20.9008 27.7252 20.9361 27.9071 20.9343 28.0906C20.935 28.273 20.8996 28.4537 20.8303 28.6223C20.7609 28.791 20.659 28.9443 20.5303 29.0735C20.4015 29.2027 20.2486 29.3052 20.0802 29.3751C19.9117 29.445 19.7312 29.481 19.5488 29.481H14.0018C13.6334 29.4797 13.2805 29.3328 13.02 29.0724C12.7596 28.8119 12.6127 28.459 12.6114 28.0906V17.6129C12.6101 17.4296 12.6457 17.2478 12.716 17.0784C12.7863 16.909 12.8899 16.7554 13.0206 16.6268C13.2147 16.4321 13.4623 16.2996 13.7319 16.246C14.0015 16.1925 14.281 16.2203 14.5347 16.3261C14.7885 16.4318 15.005 16.6106 15.1568 16.8398C15.3087 17.0689 15.3889 17.3381 15.3873 17.6129V26.7002H19.5488C19.7303 26.6988 19.9102 26.7338 20.0779 26.8033C20.2456 26.8727 20.3977 26.9752 20.5251 27.1045Z" fill="#00C200"/>
<path d="M25.0417 17.3121V28.3913C25.0404 28.6786 24.9257 28.9537 24.7226 29.1569C24.5194 29.36 24.2443 29.4747 23.957 29.476H23.3357C23.048 29.476 22.7721 29.3617 22.5687 29.1583C22.3653 28.9549 22.251 28.679 22.251 28.3913V17.3121C22.251 17.1696 22.279 17.0286 22.3335 16.897C22.3881 16.7654 22.468 16.6458 22.5687 16.5451C22.6694 16.4443 22.789 16.3644 22.9206 16.3099C23.0522 16.2554 23.1933 16.2273 23.3357 16.2273H23.9422C24.0857 16.226 24.2281 16.2531 24.3611 16.307C24.4941 16.3608 24.6152 16.4405 24.7174 16.5413C24.8195 16.642 24.9008 16.762 24.9564 16.8943C25.0121 17.0266 25.0411 17.1686 25.0417 17.3121Z" fill="#00C200"/>
<path d="M37.9205 17.613V28.0315C37.9207 28.4062 37.7753 28.7664 37.515 29.036C37.2546 29.3055 36.8997 29.4634 36.5251 29.4762C36.1741 29.4706 35.838 29.3333 35.5834 29.0916C35.5341 29.0521 33.6703 26.6262 32.0876 24.585C30.9042 23.0614 29.8786 21.7301 29.8786 21.7301V28.0857C29.8795 28.3551 29.8019 28.6189 29.6553 28.8449C29.5086 29.0708 29.2992 29.2491 29.0528 29.3579C28.8064 29.4668 28.5336 29.5014 28.2678 29.4576C28.002 29.4138 27.7547 29.2934 27.5563 29.1113C27.4131 28.9816 27.2988 28.8233 27.2206 28.6466C27.1425 28.47 27.1023 28.2789 27.1027 28.0857V17.6722C27.0981 17.3061 27.2341 16.9522 27.4827 16.6834C27.7313 16.4146 28.0735 16.2514 28.4389 16.2275C28.6456 16.2241 28.8506 16.2666 29.039 16.3518C29.2274 16.4371 29.3946 16.563 29.5285 16.7205C29.5877 16.7896 32.4524 20.5172 34.0647 22.6373C34.7057 23.4657 35.1495 24.0475 35.1495 24.0475V17.6377C35.1521 17.271 35.2989 16.9201 35.5582 16.6608C35.8174 16.4015 36.1683 16.2547 36.535 16.2521C36.8982 16.2521 37.247 16.3947 37.5061 16.6492C37.7652 16.9037 37.9141 17.2498 37.9205 17.613Z" fill="#00C200"/>
<path d="M42.792 24.2347V26.7H46.9485C47.1378 26.6888 47.3273 26.7163 47.5055 26.7809C47.6837 26.8456 47.8468 26.946 47.9848 27.076C48.1228 27.206 48.2327 27.3628 48.3078 27.5369C48.383 27.7109 48.4217 27.8985 48.4217 28.088C48.4217 28.2776 48.383 28.4652 48.3078 28.6392C48.2327 28.8132 48.1228 28.9701 47.9848 29.1001C47.8468 29.2301 47.6837 29.3305 47.5055 29.3951C47.3273 29.4598 47.1378 29.4873 46.9485 29.476H41.3867C41.0188 29.4747 40.6664 29.3276 40.4067 29.067C40.147 28.8064 40.0012 28.4535 40.0012 28.0856V17.6128C40.0025 17.2458 40.1489 16.8941 40.4085 16.6346C40.668 16.375 41.0197 16.2286 41.3867 16.2273H46.9337C47.123 16.216 47.3125 16.2436 47.4907 16.3082C47.6689 16.3729 47.832 16.4733 47.97 16.6033C48.108 16.7333 48.2179 16.8901 48.293 17.0641C48.3682 17.2382 48.4069 17.4257 48.4069 17.6153C48.4069 17.8049 48.3682 17.9924 48.293 18.1665C48.2179 18.3405 48.108 18.4973 47.97 18.6273C47.832 18.7573 47.6689 18.8577 47.4907 18.9224C47.3125 18.987 47.123 19.0146 46.9337 19.0033H42.792V21.4686H46.9485C47.316 21.4686 47.6684 21.6146 47.9282 21.8744C48.1881 22.1343 48.334 22.4867 48.334 22.8541C48.334 23.2216 48.1881 23.574 47.9282 23.8338C47.6684 24.0937 47.316 24.2396 46.9485 24.2396L42.792 24.2347Z" fill="#00C200"/>
</svg>
