<svg width="40" height="40" viewBox="0 0 40 40" fill="none" xmlns="http://www.w3.org/2000/svg">
<mask id="mask0_113_248" style="mask-type:luminance" maskUnits="userSpaceOnUse" x="0" y="0" width="40" height="40">
<path d="M0.5 0.5H39.5V39.5H0.5V0.5Z" fill="white" stroke="white"/>
<path d="M20 21.4531C20.8025 21.4531 21.4531 20.8025 21.4531 20C21.4531 19.1975 20.8025 18.5469 20 18.5469C19.1975 18.5469 18.5469 19.1975 18.5469 20C18.5469 20.8025 19.1975 21.4531 20 21.4531Z" fill="white" stroke="white"/>
<path d="M27.8125 21.4531C28.615 21.4531 29.2656 20.8025 29.2656 20C29.2656 19.1975 28.615 18.5469 27.8125 18.5469C27.01 18.5469 26.3594 19.1975 26.3594 20C26.3594 20.8025 27.01 21.4531 27.8125 21.4531Z" fill="white" stroke="white"/>
<path d="M12.1875 21.4531C12.99 21.4531 13.6406 20.8025 13.6406 20C13.6406 19.1975 12.99 18.5469 12.1875 18.5469C11.385 18.5469 10.7344 19.1975 10.7344 20C10.7344 20.8025 11.385 21.4531 12.1875 21.4531Z" fill="white" stroke="white"/>
</mask>
<g mask="url(#mask0_113_248)">
<mask id="mask1_113_248" style="mask-type:luminance" maskUnits="userSpaceOnUse" x="0" y="0" width="40" height="40">
<path d="M39.1 39.1V0.900005H0.9V39.1H39.1Z" fill="white" stroke="white" stroke-width="1.8"/>
</mask>
<g mask="url(#mask1_113_248)">
<path d="M20 1.5625C9.81726 1.5625 1.5625 9.81727 1.5625 20C1.5625 23.5848 2.58664 26.9298 4.35672 29.7607L1.5625 38.4375L10.2393 35.6433C13.0702 37.4134 16.4152 38.4375 20 38.4375C30.1827 38.4375 38.4375 30.1827 38.4375 20C38.4375 9.81727 30.1827 1.5625 20 1.5625Z" stroke="white" stroke-width="1.5" stroke-miterlimit="10" stroke-linecap="round" stroke-linejoin="round"/>
<path d="M20 21.4531C20.8025 21.4531 21.4531 20.8025 21.4531 20C21.4531 19.1975 20.8025 18.5469 20 18.5469C19.1975 18.5469 18.5469 19.1975 18.5469 20C18.5469 20.8025 19.1975 21.4531 20 21.4531Z" fill="white" stroke="white"/>
<path d="M27.8125 21.4531C28.615 21.4531 29.2656 20.8025 29.2656 20C29.2656 19.1975 28.615 18.5469 27.8125 18.5469C27.01 18.5469 26.3594 19.1975 26.3594 20C26.3594 20.8025 27.01 21.4531 27.8125 21.4531Z" fill="white" stroke="white"/>
<path d="M12.1875 21.4531C12.99 21.4531 13.6406 20.8025 13.6406 20C13.6406 19.1975 12.99 18.5469 12.1875 18.5469C11.385 18.5469 10.7344 19.1975 10.7344 20C10.7344 20.8025 11.385 21.4531 12.1875 21.4531Z" fill="white" stroke="white"/>
</g>
</g>
</svg>
