<?xml version="1.0" encoding="utf-8"?>
<!-- Generator: Adobe Illustrator 21.0.0, SVG Export Plug-In . SVG Version: 6.00 Build 0)  -->
<svg version="1.1" xmlns="http://www.w3.org/2000/svg" xmlns:xlink="http://www.w3.org/1999/xlink" x="0px" y="0px" width="412px"
	 height="270px" viewBox="0 0 412 270" enable-background="new 0 0 412 270" xml:space="preserve">
<g id="bg" display="none">
</g>
<g id="圖層_1">
</g>
<g id="圖層_3">
	<rect fill-rule="evenodd" clip-rule="evenodd" fill="#60C9DB" width="412" height="270"/>
	<rect fill-rule="evenodd" clip-rule="evenodd" fill="#F99E80" width="206" height="270"/>
	<g>
		<path fill="#FFFFFF" d="M129.857,91.546v-6.877h-2.183v-1.047h2.183v-0.557c0-0.508,0.074-0.953,0.223-1.337
			s0.359-0.704,0.63-0.963s0.597-0.454,0.978-0.586s0.806-0.198,1.274-0.198c0.322,0,0.636,0.027,0.941,0.081
			s0.619,0.122,0.941,0.205l-0.161,1.121c-0.2-0.068-0.433-0.128-0.699-0.179s-0.551-0.077-0.853-0.077
			c-0.635,0.005-1.112,0.166-1.432,0.483s-0.48,0.801-0.48,1.45v0.557h3.054v1.047h-3.054v6.877H129.857z"/>
		<path fill="#FFFFFF" d="M141.986,90.455c-0.264,0.391-0.593,0.695-0.989,0.912s-0.852,0.326-1.37,0.326
			c-0.415,0-0.791-0.065-1.128-0.194s-0.625-0.331-0.864-0.604s-0.424-0.621-0.553-1.044s-0.194-0.929-0.194-1.52v-4.709h1.355
			v4.724c0,0.43,0.034,0.786,0.103,1.069s0.171,0.509,0.308,0.677s0.304,0.287,0.502,0.355s0.426,0.103,0.685,0.103
			c0.552,0,0.997-0.112,1.337-0.337s0.592-0.527,0.758-0.908v-5.684h1.362v7.925h-1.23L141.986,90.455z"/>
		<path fill="#FFFFFF" d="M146.058,80.296h4.05v10.078h2.585v1.172h-6.636v-1.172h2.695v-8.899h-2.695V80.296z"/>
		<path fill="#FFFFFF" d="M155.06,80.296h4.05v10.078h2.585v1.172h-6.636v-1.172h2.695v-8.899h-2.695V80.296z"/>
	</g>
	<g>
		
			<text transform="matrix(1 0 0 1 126.5613 176.5466)" fill="#FFFFFF" font-family="'PTSerif-Regular'" font-size="20px" letter-spacing="1">hard</text>
	</g>
	<g>
		<g>
			<path fill="#FFFFFF" d="M69.386,58.874h3.432v15.378h-3.432v-6.05H63.27v6.05h-3.432V58.874h3.432v6.424h6.116V58.874z"/>
			<path fill="#FFFFFF" d="M88.13,58.874v3.058h-7.656V65.1h6.886v2.926h-6.886v3.19h7.898v3.036h-11.33V58.874H88.13z"/>
			<path fill="#FFFFFF" d="M102.826,74.252l-1.43-3.322H94.95l-1.43,3.322h-3.652l6.644-15.378h3.322l6.644,15.378H102.826z
				 M98.184,63.45l-1.936,4.466h3.85L98.184,63.45z"/>
			<path fill="#FFFFFF" d="M120.448,60.887c1.467,1.342,2.2,3.208,2.2,5.599c0,2.391-0.715,4.283-2.145,5.676
				c-1.43,1.394-3.612,2.09-6.545,2.09H108.7V58.874h5.434C116.876,58.874,118.981,59.545,120.448,60.887z M117.929,70.028
				c0.843-0.792,1.265-1.943,1.265-3.454c0-1.51-0.422-2.673-1.265-3.487c-0.844-0.814-2.138-1.221-3.883-1.221h-1.914v9.35h2.178
				C115.879,71.216,117.085,70.82,117.929,70.028z"/>
			<path fill="#FFFFFF" d="M137.145,58.874v3.058h-7.656V65.1h6.886v2.926h-6.886v3.19h7.898v3.036h-11.33V58.874H137.145z"/>
			<path fill="#FFFFFF" d="M153.36,63.978c0,2.464-0.976,4.055-2.926,4.774l3.894,5.5h-4.224l-3.41-4.906h-2.376v4.906h-3.432
				V58.874h5.83c2.39,0,4.095,0.404,5.115,1.21C152.85,60.891,153.36,62.189,153.36,63.978z M149.224,65.804
				c0.425-0.381,0.638-0.986,0.638-1.815s-0.22-1.397-0.66-1.705c-0.44-0.308-1.21-0.462-2.31-0.462h-2.574v4.554h2.508
				C147.999,66.376,148.798,66.185,149.224,65.804z"/>
		</g>
	</g>
	<g>
		<path fill="#FFFFFF" d="M91.906,106.484h-4.28v-0.5c0.133-0.08,0.297-0.163,0.49-0.25c0.193-0.087,0.423-0.163,0.69-0.23v-4.62
			c0-0.533-0.023-1.013-0.07-1.44c-0.047-0.427-0.134-0.783-0.26-1.07c-0.127-0.286-0.31-0.506-0.55-0.66
			c-0.24-0.153-0.553-0.23-0.94-0.23c-0.293,0-0.563,0.06-0.81,0.18c-0.247,0.12-0.467,0.28-0.66,0.48
			c-0.194,0.2-0.36,0.427-0.5,0.68c-0.14,0.253-0.25,0.52-0.33,0.8v5.88c0.213,0.067,0.417,0.137,0.61,0.21
			c0.193,0.073,0.383,0.164,0.57,0.27v0.5h-4.3v-0.5c0.187-0.093,0.393-0.18,0.62-0.26c0.227-0.08,0.46-0.153,0.7-0.22v-7.86
			l-1.32-0.16v-0.52c0.427-0.187,0.863-0.336,1.31-0.45c0.447-0.113,0.883-0.203,1.31-0.27h0.5v2.26h0.02
			c0.213-0.626,0.577-1.16,1.09-1.6c0.513-0.44,1.15-0.66,1.91-0.66c0.32,0,0.626,0.033,0.92,0.1c0.293,0.067,0.567,0.19,0.82,0.37
			c0.253,0.18,0.467,0.43,0.64,0.75s0.3,0.733,0.38,1.24c0.24-0.733,0.626-1.326,1.16-1.78c0.533-0.453,1.2-0.68,2-0.68
			c0.493,0,0.923,0.063,1.29,0.19c0.367,0.127,0.67,0.35,0.91,0.67c0.24,0.32,0.417,0.753,0.53,1.3c0.113,0.547,0.17,1.24,0.17,2.08
			v5.02c0.453,0.08,0.893,0.24,1.32,0.48v0.5h-4.3v-0.5c0.4-0.213,0.793-0.373,1.18-0.48v-4.98c0-0.48-0.023-0.906-0.07-1.28
			c-0.047-0.373-0.137-0.69-0.27-0.95s-0.32-0.46-0.56-0.6c-0.24-0.14-0.56-0.21-0.96-0.21c-0.64,0-1.137,0.22-1.49,0.66
			c-0.353,0.44-0.61,1-0.77,1.68v5.68c0.467,0.133,0.9,0.293,1.3,0.48V106.484z"/>
		<path fill="#FFFFFF" d="M100.026,101.484c0-0.84,0.11-1.583,0.33-2.23c0.22-0.646,0.537-1.193,0.95-1.64
			c0.413-0.447,0.91-0.786,1.49-1.02c0.58-0.233,1.223-0.35,1.93-0.35c0.827,0,1.54,0.127,2.14,0.38c0.6,0.254,1.09,0.61,1.47,1.07
			c0.38,0.46,0.66,1.01,0.84,1.65c0.18,0.64,0.27,1.353,0.27,2.14c0,1.68-0.427,2.973-1.28,3.88c-0.854,0.907-2,1.36-3.44,1.36
			c-0.8,0-1.493-0.124-2.08-0.37c-0.587-0.247-1.073-0.6-1.46-1.06c-0.387-0.46-0.677-1.013-0.87-1.66
			C100.122,102.987,100.026,102.271,100.026,101.484z M101.946,101.484c0,0.6,0.057,1.167,0.17,1.7
			c0.113,0.533,0.293,0.997,0.54,1.39c0.247,0.393,0.57,0.703,0.97,0.93c0.4,0.227,0.88,0.34,1.44,0.34c0.72,0,1.31-0.353,1.77-1.06
			c0.46-0.707,0.69-1.807,0.69-3.3c0-0.613-0.057-1.183-0.17-1.71c-0.113-0.527-0.29-0.987-0.53-1.38
			c-0.24-0.393-0.547-0.703-0.92-0.93c-0.373-0.227-0.82-0.34-1.34-0.34c-0.787,0-1.42,0.354-1.9,1.06
			C102.186,98.891,101.946,99.991,101.946,101.484z"/>
		<path fill="#FFFFFF" d="M116.146,97.984c-0.147,0.08-0.33,0.243-0.55,0.49c-0.22,0.247-0.417,0.61-0.59,1.09v5.94
			c0.267,0.027,0.533,0.077,0.8,0.15c0.267,0.073,0.533,0.184,0.8,0.33v0.5h-4.72v-0.5c0.24-0.133,0.467-0.233,0.68-0.3
			c0.213-0.066,0.427-0.126,0.64-0.18v-7.86l-1.32-0.16v-0.52c0.427-0.187,0.866-0.336,1.32-0.45c0.453-0.113,0.887-0.203,1.3-0.27
			h0.5v2.12h0.08c0.12-0.266,0.29-0.533,0.51-0.8c0.22-0.267,0.473-0.507,0.76-0.72c0.286-0.213,0.6-0.377,0.94-0.49
			s0.69-0.15,1.05-0.11c0.093,0.173,0.177,0.364,0.25,0.57c0.073,0.207,0.143,0.423,0.21,0.65v0.52H116.146z"/>
		<path fill="#FFFFFF" d="M128.866,105.084c-0.107,0.227-0.273,0.44-0.5,0.64c-0.227,0.2-0.487,0.374-0.78,0.52
			c-0.293,0.147-0.613,0.263-0.96,0.35c-0.347,0.086-0.7,0.13-1.06,0.13c-0.787,0-1.48-0.124-2.08-0.37c-0.6-0.247-1.1-0.6-1.5-1.06
			c-0.4-0.46-0.703-1.01-0.91-1.65c-0.207-0.64-0.31-1.36-0.31-2.16c0-1.707,0.393-3.007,1.18-3.9c0.787-0.893,1.9-1.34,3.34-1.34
			c0.467,0,0.927,0.063,1.38,0.19c0.453,0.127,0.857,0.337,1.21,0.63c0.353,0.293,0.64,0.683,0.86,1.17
			c0.22,0.487,0.33,1.09,0.33,1.81c0,0.227-0.01,0.457-0.03,0.69c-0.02,0.233-0.057,0.483-0.11,0.75h-6.24
			c0,0.56,0.07,1.083,0.21,1.57c0.14,0.487,0.35,0.91,0.63,1.27c0.28,0.36,0.633,0.643,1.06,0.85c0.427,0.207,0.927,0.31,1.5,0.31
			c0.467,0,0.94-0.067,1.42-0.2c0.48-0.133,0.84-0.307,1.08-0.52L128.866,105.084z M125.206,97.124c-0.76,0-1.34,0.257-1.74,0.77
			c-0.4,0.513-0.64,1.417-0.72,2.71h4.4c0.013-0.12,0.023-0.237,0.03-0.35c0.007-0.113,0.01-0.223,0.01-0.33
			c0-0.853-0.16-1.533-0.48-2.04C126.386,97.377,125.886,97.124,125.206,97.124z"/>
	</g>
	<g>
		<g>
			<path fill="#FFFFFF" d="M33.542,123.628c-1.146,0-2.169-0.486-3.069-1.458c-0.9-0.972-1.35-2.178-1.35-3.618
				c0-1.44,0.438-2.619,1.314-3.537c0.876-0.918,1.902-1.377,3.078-1.377s2.136,0.414,2.88,1.242v-4.752h2.7v13.356h-2.7v-1.278
				C35.639,123.154,34.688,123.628,33.542,123.628z M31.841,118.66c0,0.78,0.234,1.419,0.702,1.917
				c0.468,0.498,1.014,0.747,1.638,0.747s1.155-0.249,1.593-0.747c0.438-0.498,0.657-1.14,0.657-1.926
				c0-0.786-0.219-1.44-0.657-1.962s-0.975-0.783-1.611-0.783c-0.636,0-1.182,0.264-1.638,0.792S31.841,117.88,31.841,118.66z"/>
			<path fill="#FFFFFF" d="M50.039,122.08c-1.092,1.032-2.373,1.548-3.843,1.548c-1.47,0-2.685-0.453-3.645-1.359
				c-0.96-0.906-1.44-2.121-1.44-3.645c0-1.524,0.489-2.736,1.467-3.636c0.978-0.9,2.133-1.35,3.465-1.35s2.463,0.402,3.393,1.206
				c0.93,0.804,1.395,1.908,1.395,3.312v1.44h-7.056c0.084,0.528,0.36,0.96,0.828,1.296c0.468,0.336,0.996,0.504,1.584,0.504
				c0.948,0,1.728-0.318,2.34-0.954L50.039,122.08z M47.447,116.338c-0.372-0.312-0.825-0.468-1.359-0.468
				c-0.534,0-1.023,0.162-1.467,0.486c-0.444,0.324-0.702,0.762-0.774,1.314h4.248C48.035,117.094,47.818,116.65,47.447,116.338z"/>
			<path fill="#FFFFFF" d="M60.065,120.469c0,0.954-0.351,1.719-1.053,2.295c-0.702,0.576-1.593,0.864-2.673,0.864
				c-0.72,0-1.47-0.129-2.25-0.387c-0.78-0.258-1.482-0.639-2.106-1.143l1.188-1.692c1.008,0.78,2.082,1.17,3.222,1.17
				c0.348,0,0.624-0.069,0.828-0.207c0.204-0.138,0.306-0.321,0.306-0.549c0-0.228-0.141-0.438-0.423-0.63
				c-0.282-0.192-0.69-0.372-1.224-0.54c-0.534-0.168-0.942-0.312-1.224-0.432c-0.282-0.12-0.603-0.294-0.963-0.522
				c-0.732-0.456-1.098-1.131-1.098-2.025c0-0.894,0.36-1.623,1.08-2.187c0.72-0.564,1.65-0.846,2.79-0.846
				c1.14,0,2.28,0.384,3.42,1.152l-1.008,1.8c-0.84-0.576-1.677-0.864-2.511-0.864s-1.251,0.228-1.251,0.684
				c0,0.252,0.132,0.45,0.396,0.594s0.702,0.312,1.314,0.504c0.612,0.192,1.047,0.339,1.305,0.441
				c0.258,0.102,0.567,0.261,0.927,0.477C59.728,118.834,60.065,119.515,60.065,120.469z"/>
			<path fill="#FFFFFF" d="M62.359,112.567c-0.306-0.306-0.459-0.681-0.459-1.125c0-0.444,0.153-0.819,0.459-1.125
				c0.306-0.306,0.681-0.459,1.125-0.459c0.444,0,0.819,0.153,1.125,0.459c0.306,0.306,0.459,0.681,0.459,1.125
				c0,0.444-0.153,0.819-0.459,1.125c-0.306,0.306-0.681,0.459-1.125,0.459C63.04,113.026,62.665,112.873,62.359,112.567z
				 M64.834,123.484h-2.7V113.8h2.7V123.484z"/>
			<path fill="#FFFFFF" d="M74.554,121.846c-0.852,0.948-1.911,1.422-3.177,1.422s-2.334-0.429-3.204-1.287
				c-0.87-0.858-1.305-2.004-1.305-3.438c0-1.434,0.447-2.61,1.341-3.528c0.894-0.918,1.917-1.377,3.069-1.377
				s2.106,0.474,2.862,1.422v-1.278h2.7v8.442c0,0.864-0.15,1.632-0.45,2.304c-0.3,0.672-0.702,1.2-1.206,1.584
				c-0.996,0.792-2.172,1.188-3.528,1.188c-0.72,0-1.455-0.117-2.205-0.351c-0.75-0.234-1.407-0.567-1.971-0.999l1.044-2.034
				c0.888,0.672,1.827,1.008,2.817,1.008s1.773-0.246,2.349-0.738C74.266,123.693,74.554,122.914,74.554,121.846z M74.176,118.435
				c0-0.774-0.216-1.383-0.648-1.827c-0.432-0.444-0.966-0.666-1.602-0.666c-0.636,0-1.185,0.222-1.647,0.666
				c-0.462,0.444-0.693,1.05-0.693,1.818c0,0.768,0.225,1.389,0.675,1.863c0.45,0.474,0.999,0.711,1.647,0.711
				c0.648,0,1.188-0.234,1.62-0.702C73.96,119.83,74.176,119.209,74.176,118.435z"/>
			<path fill="#FFFFFF" d="M82.096,118.084v5.4h-2.7V113.8h2.7v1.08c0.816-0.828,1.734-1.242,2.754-1.242
				c1.02,0,1.875,0.36,2.565,1.08c0.69,0.72,1.035,1.68,1.035,2.88v5.886h-2.7v-5.472c0-1.488-0.546-2.232-1.638-2.232
				c-0.54,0-1.011,0.195-1.413,0.585C82.297,116.755,82.096,117.328,82.096,118.084z"/>
		</g>
	</g>
	<g>
		<g>
			<path fill="#FFFFFF" d="M70.546,133.514h4.68v20.97h-4.68v-8.25h-8.34v8.25h-4.68v-20.97h4.68v8.76h8.34V133.514z"/>
			<path fill="#FFFFFF" d="M95.506,133.514v4.17h-10.44v4.32h9.39v3.99h-9.39v4.35h10.77v4.14h-15.45v-20.97H95.506z"/>
			<path fill="#FFFFFF" d="M114.946,154.484l-1.95-4.53h-8.79l-1.95,4.53h-4.98l9.06-20.97h4.53l9.06,20.97H114.946z
				 M108.616,139.754l-2.64,6.09h5.25L108.616,139.754z"/>
			<path fill="#FFFFFF" d="M128.806,146.864l5.34-13.35h5.07l-8.43,20.97h-3.96l-8.43-20.97h5.07L128.806,146.864z"/>
			<path fill="#FFFFFF" d="M156.826,133.514v4.17h-10.44v4.32h9.39v3.99h-9.39v4.35h10.77v4.14h-15.45v-20.97H156.826z"/>
			<path fill="#FFFFFF" d="M170.355,154.484h-4.68v-8.28l-7.26-12.69h5.07l4.53,7.8l4.53-7.8h5.07l-7.26,12.69V154.484z"/>
		</g>
	</g>
	<g>
		<path fill="#FFFFFF" d="M43.241,182.713c-0.046-0.124-0.085-0.241-0.117-0.352c-0.033-0.111-0.062-0.208-0.088-0.293
			c-0.026-0.098-0.055-0.189-0.088-0.273c-0.02,0.085-0.042,0.179-0.068,0.283c-0.026,0.091-0.055,0.195-0.088,0.313
			c-0.033,0.117-0.072,0.241-0.117,0.371l-1.729,5.176h-2.002l-2.949-10h2.158l1.689,5.957c0.072,0.248,0.142,0.513,0.21,0.796
			s0.132,0.549,0.19,0.796c0.072,0.287,0.14,0.57,0.205,0.85c0.098-0.313,0.195-0.618,0.293-0.918
			c0.084-0.254,0.172-0.521,0.264-0.801c0.091-0.28,0.172-0.524,0.244-0.732l1.572-4.697h1.172l1.631,4.697
			c0.072,0.208,0.151,0.453,0.239,0.732c0.088,0.28,0.171,0.547,0.249,0.801c0.091,0.3,0.182,0.605,0.273,0.918
			c0.091-0.313,0.176-0.618,0.254-0.918c0.072-0.254,0.145-0.521,0.22-0.801c0.075-0.28,0.142-0.524,0.2-0.732l1.621-5.947h1.221
			l-2.861,10h-2.002L43.241,182.713z"/>
		<path fill="#FFFFFF" d="M58.147,187.937h-6.025v-10h5.811l-0.098,1.016l-3.672,0.049v3.252l3.457,0.039l-0.098,0.928l-3.359,0.078
			v3.574l4.082,0.078L58.147,187.937z"/>
		<path fill="#FFFFFF" d="M67.907,185.232c0,0.443-0.075,0.837-0.225,1.182c-0.15,0.345-0.378,0.64-0.684,0.884
			c-0.306,0.244-0.698,0.43-1.177,0.557s-1.043,0.19-1.694,0.19c-0.215,0-0.464-0.003-0.747-0.01
			c-0.283-0.007-0.573-0.016-0.869-0.029c-0.296-0.013-0.588-0.029-0.874-0.049c-0.287-0.02-0.537-0.039-0.752-0.059v-9.893
			c0.202-0.02,0.421-0.037,0.659-0.054c0.238-0.016,0.48-0.029,0.728-0.039c0.247-0.01,0.496-0.018,0.747-0.024
			c0.25-0.006,0.49-0.01,0.718-0.01c0.553,0,1.058,0.046,1.514,0.137c0.456,0.091,0.846,0.231,1.172,0.42
			c0.325,0.189,0.576,0.435,0.752,0.737s0.264,0.663,0.264,1.079c0,0.339-0.049,0.638-0.146,0.898
			c-0.098,0.26-0.229,0.485-0.396,0.674c-0.166,0.189-0.36,0.344-0.581,0.464c-0.221,0.121-0.453,0.21-0.693,0.269v0.029
			c0.404,0.085,0.75,0.21,1.04,0.376c0.29,0.166,0.527,0.363,0.713,0.591c0.186,0.228,0.321,0.485,0.405,0.771
			C67.865,184.611,67.907,184.913,67.907,185.232z M65.368,180.486c0-0.299-0.042-0.55-0.127-0.752
			c-0.085-0.202-0.21-0.366-0.376-0.493s-0.37-0.218-0.61-0.273c-0.241-0.055-0.518-0.083-0.83-0.083
			c-0.091,0-0.181,0.002-0.269,0.005c-0.088,0.003-0.165,0.011-0.229,0.024v3.223H63.6c0.228,0,0.462-0.021,0.703-0.063
			c0.241-0.042,0.426-0.099,0.557-0.171c0.059-0.032,0.119-0.08,0.181-0.142c0.062-0.062,0.117-0.146,0.166-0.254
			s0.088-0.244,0.117-0.41S65.368,180.727,65.368,180.486z M65.827,185.115c0-0.651-0.194-1.143-0.581-1.475
			c-0.387-0.332-0.949-0.498-1.685-0.498h-0.635v3.838c0.059,0.007,0.107,0.013,0.146,0.02c0.039,0.007,0.081,0.011,0.127,0.015
			c0.045,0.003,0.104,0.005,0.176,0.005c0.072,0,0.169,0,0.293,0c0.124,0,0.259-0.005,0.405-0.015s0.291-0.024,0.435-0.044
			c0.143-0.02,0.273-0.044,0.391-0.073s0.211-0.063,0.283-0.103c0.072-0.039,0.146-0.094,0.225-0.166
			c0.078-0.072,0.148-0.171,0.21-0.298c0.062-0.127,0.112-0.288,0.151-0.483S65.827,185.402,65.827,185.115z"/>
		<path fill="#FFFFFF" d="M76.612,185.008c0,0.365-0.093,0.729-0.278,1.094c-0.186,0.365-0.449,0.693-0.791,0.986
			s-0.754,0.531-1.235,0.713c-0.482,0.182-1.022,0.273-1.621,0.273c-0.326,0-0.624-0.016-0.894-0.049
			c-0.27-0.033-0.526-0.082-0.767-0.146c-0.241-0.065-0.472-0.142-0.693-0.229c-0.221-0.088-0.443-0.187-0.664-0.298l0.498-1.484
			c0.143,0.098,0.337,0.2,0.581,0.308s0.504,0.207,0.781,0.298c0.277,0.091,0.558,0.168,0.845,0.229
			c0.286,0.062,0.547,0.093,0.781,0.093c0.54,0,0.947-0.059,1.221-0.176c0.15-0.065,0.272-0.211,0.366-0.439
			c0.094-0.228,0.142-0.527,0.142-0.898c0-0.26-0.07-0.477-0.21-0.649c-0.14-0.172-0.324-0.324-0.552-0.454
			c-0.228-0.13-0.488-0.247-0.781-0.352c-0.293-0.104-0.591-0.215-0.894-0.332s-0.601-0.252-0.894-0.405
			c-0.293-0.153-0.553-0.342-0.781-0.566c-0.228-0.225-0.412-0.495-0.552-0.811c-0.14-0.316-0.21-0.698-0.21-1.147
			c0-0.293,0.08-0.602,0.239-0.928c0.159-0.325,0.392-0.622,0.698-0.889c0.306-0.267,0.682-0.488,1.128-0.664
			c0.446-0.176,0.955-0.264,1.528-0.264c0.462,0,0.903,0.023,1.323,0.068c0.42,0.046,0.828,0.104,1.226,0.176l-0.313,1.484
			c-0.189-0.065-0.399-0.127-0.63-0.186c-0.231-0.059-0.467-0.109-0.708-0.151c-0.241-0.042-0.475-0.076-0.703-0.103
			c-0.228-0.026-0.43-0.039-0.605-0.039c-0.189,0-0.386,0.011-0.591,0.034c-0.205,0.023-0.373,0.07-0.503,0.142
			c-0.13,0.072-0.225,0.195-0.283,0.371s-0.088,0.387-0.088,0.635c0,0.254,0.07,0.466,0.21,0.635
			c0.14,0.169,0.324,0.316,0.552,0.439c0.228,0.124,0.488,0.238,0.781,0.342c0.293,0.104,0.592,0.217,0.898,0.337
			c0.306,0.121,0.605,0.257,0.898,0.41c0.293,0.153,0.553,0.345,0.781,0.576c0.228,0.231,0.412,0.51,0.552,0.835
			C76.542,184.152,76.612,184.546,76.612,185.008z"/>
		<path fill="#FFFFFF" d="M81.284,187.937h-2.041v-10h2.041V187.937z"/>
		<path fill="#FFFFFF" d="M86.679,187.937v-8.936l-3.076-0.049l0.098-1.016h8.096l-0.098,0.986l-2.979,0.078v8.936H86.679z"/>
		<path fill="#FFFFFF" d="M100.14,187.937h-6.025v-10h5.811l-0.098,1.016l-3.672,0.049v3.252l3.457,0.039l-0.098,0.928l-3.359,0.078
			v3.574l4.082,0.078L100.14,187.937z"/>
		<path fill="#FFFFFF" d="M108.913,185.008c0,0.365-0.093,0.729-0.278,1.094c-0.186,0.365-0.449,0.693-0.791,0.986
			s-0.754,0.531-1.235,0.713c-0.482,0.182-1.022,0.273-1.621,0.273c-0.326,0-0.624-0.016-0.894-0.049
			c-0.27-0.033-0.526-0.082-0.767-0.146c-0.241-0.065-0.472-0.142-0.693-0.229c-0.221-0.088-0.443-0.187-0.664-0.298l0.498-1.484
			c0.143,0.098,0.337,0.2,0.581,0.308s0.504,0.207,0.781,0.298c0.277,0.091,0.558,0.168,0.845,0.229
			c0.286,0.062,0.547,0.093,0.781,0.093c0.54,0,0.947-0.059,1.221-0.176c0.15-0.065,0.272-0.211,0.366-0.439
			c0.094-0.228,0.142-0.527,0.142-0.898c0-0.26-0.07-0.477-0.21-0.649c-0.14-0.172-0.324-0.324-0.552-0.454
			c-0.228-0.13-0.488-0.247-0.781-0.352c-0.293-0.104-0.591-0.215-0.894-0.332s-0.601-0.252-0.894-0.405
			c-0.293-0.153-0.553-0.342-0.781-0.566c-0.228-0.225-0.412-0.495-0.552-0.811c-0.14-0.316-0.21-0.698-0.21-1.147
			c0-0.293,0.08-0.602,0.239-0.928c0.159-0.325,0.392-0.622,0.698-0.889c0.306-0.267,0.682-0.488,1.128-0.664
			c0.446-0.176,0.955-0.264,1.528-0.264c0.462,0,0.903,0.023,1.323,0.068c0.42,0.046,0.828,0.104,1.226,0.176l-0.313,1.484
			c-0.189-0.065-0.399-0.127-0.63-0.186c-0.231-0.059-0.467-0.109-0.708-0.151c-0.241-0.042-0.475-0.076-0.703-0.103
			c-0.228-0.026-0.43-0.039-0.605-0.039c-0.189,0-0.386,0.011-0.591,0.034c-0.205,0.023-0.373,0.07-0.503,0.142
			c-0.13,0.072-0.225,0.195-0.283,0.371s-0.088,0.387-0.088,0.635c0,0.254,0.07,0.466,0.21,0.635
			c0.14,0.169,0.324,0.316,0.552,0.439c0.228,0.124,0.488,0.238,0.781,0.342c0.293,0.104,0.592,0.217,0.898,0.337
			c0.306,0.121,0.605,0.257,0.898,0.41c0.293,0.153,0.553,0.345,0.781,0.576c0.228,0.231,0.412,0.51,0.552,0.835
			C108.843,184.152,108.913,184.546,108.913,185.008z"/>
	</g>
	<g>
		<g>
			<path fill="#FFFFFF" d="M88.002,209.937h-5.508v-12.582h4.896c0.852,0,1.587,0.102,2.205,0.306
				c0.618,0.204,1.083,0.48,1.395,0.828c0.564,0.648,0.846,1.38,0.846,2.196c0,0.984-0.318,1.716-0.954,2.196
				c-0.216,0.168-0.366,0.273-0.45,0.315c-0.084,0.042-0.234,0.111-0.45,0.207c0.78,0.168,1.401,0.519,1.863,1.053
				s0.693,1.197,0.693,1.989c0,0.876-0.3,1.65-0.9,2.322C90.942,209.547,89.73,209.937,88.002,209.937z M85.302,202.449h1.332
				c0.78,0,1.359-0.084,1.737-0.252c0.378-0.168,0.567-0.531,0.567-1.089c0-0.558-0.174-0.927-0.522-1.107
				c-0.348-0.18-0.936-0.27-1.764-0.27h-1.35V202.449z M85.302,207.561h1.926c0.804,0,1.407-0.099,1.809-0.297
				c0.402-0.198,0.603-0.588,0.603-1.17c0-0.582-0.213-0.966-0.639-1.152c-0.426-0.186-1.107-0.279-2.043-0.279h-1.656V207.561z"/>
			<path fill="#FFFFFF" d="M105.102,201.531c0,2.016-0.798,3.318-2.394,3.906l3.186,4.5h-3.456l-2.79-4.014h-1.944v4.014h-2.808
				v-12.582h4.77c1.956,0,3.351,0.33,4.185,0.99C104.685,199.005,105.102,200.068,105.102,201.531z M101.718,203.025
				c0.348-0.312,0.522-0.807,0.522-1.485c0-0.678-0.18-1.143-0.54-1.395c-0.36-0.252-0.99-0.378-1.89-0.378h-2.106v3.726h2.052
				C100.716,203.493,101.37,203.338,101.718,203.025z"/>
			<path fill="#FFFFFF" d="M116.946,209.937l-1.17-2.718h-5.274l-1.17,2.718h-2.988l5.436-12.582h2.718l5.436,12.582H116.946z
				 M113.148,201.099l-1.584,3.654h3.15L113.148,201.099z"/>
			<path fill="#FFFFFF" d="M130.194,197.355h2.808v12.582h-2.808l-5.994-7.884v7.884h-2.808v-12.582h2.628l6.174,8.1V197.355z"/>
			<path fill="#FFFFFF" d="M145.71,199.002c1.2,1.098,1.8,2.625,1.8,4.581c0,1.956-0.585,3.504-1.755,4.644
				c-1.17,1.14-2.955,1.71-5.355,1.71h-4.302v-12.582h4.446C142.787,197.355,144.51,197.904,145.71,199.002z M143.649,206.481
				c0.69-0.648,1.035-1.59,1.035-2.826c0-1.236-0.345-2.187-1.035-2.853c-0.69-0.666-1.749-0.999-3.177-0.999h-1.566v7.65h1.782
				C141.972,207.453,142.958,207.129,143.649,206.481z"/>
		</g>
	</g>
	<g>
		<g>
			<path fill="#FFFFFF" d="M272.8,129.805c-0.3,0.247-0.45,0.573-0.45,0.98c0,0.407,0.183,0.73,0.55,0.97s1.213,0.523,2.54,0.85
				s2.356,0.817,3.09,1.47s1.1,1.607,1.1,2.86c0,1.253-0.47,2.27-1.41,3.05c-0.94,0.78-2.177,1.17-3.71,1.17
				c-2.213,0-4.207-0.82-5.98-2.46l1.86-2.28c1.506,1.32,2.9,1.98,4.18,1.98c0.573,0,1.023-0.123,1.35-0.37
				c0.327-0.247,0.49-0.58,0.49-1s-0.174-0.753-0.52-1c-0.347-0.247-1.034-0.497-2.06-0.75c-1.627-0.386-2.817-0.89-3.57-1.51
				c-0.753-0.62-1.13-1.593-1.13-2.92s0.477-2.35,1.43-3.07c0.953-0.72,2.143-1.08,3.57-1.08c0.933,0,1.867,0.16,2.8,0.48
				c0.933,0.32,1.746,0.773,2.44,1.36l-1.58,2.28c-1.213-0.92-2.467-1.38-3.76-1.38C273.51,129.435,273.101,129.558,272.8,129.805z"
				/>
			<path fill="#FFFFFF" d="M283.29,127.015h3.12v13.98h-3.12V127.015z"/>
			<path fill="#FFFFFF" d="M303.37,132.195l-3.78,7.64h-1.86l-3.76-7.64v8.8h-3.12v-13.98h4.22l3.6,7.68l3.62-7.68h4.2v13.98h-3.12
				V132.195z"/>
			<path fill="#FFFFFF" d="M320.56,128.265c0.98,0.833,1.47,2.114,1.47,3.84c0,1.727-0.503,2.99-1.51,3.79
				c-1.007,0.8-2.543,1.2-4.61,1.2h-1.86v3.9h-3.12v-13.98h4.94C318.017,127.015,319.58,127.432,320.56,128.265z M318.27,133.765
				c0.373-0.42,0.56-1.033,0.56-1.84c0-0.806-0.244-1.38-0.73-1.72c-0.487-0.34-1.243-0.51-2.27-0.51h-1.78v4.7h2.1
				C317.19,134.395,317.897,134.185,318.27,133.765z"/>
			<path fill="#FFFFFF" d="M325.469,140.995v-13.98h3.12v11.2h5.96v2.78H325.469z"/>
			<path fill="#FFFFFF" d="M347.909,127.015v2.78h-6.96v2.88h6.26v2.66h-6.26v2.9h7.18v2.76h-10.3v-13.98H347.909z"/>
		</g>
	</g>
</g>
</svg>
