<svg xmlns="http://www.w3.org/2000/svg" xmlns:xlink="http://www.w3.org/1999/xlink" width="400" height="220" viewBox="0 0 400 220">
  <defs>
    <clipPath id="clip-scut-09">
      <rect width="400" height="220"/>
    </clipPath>
  </defs>
  <g id="scut-09" clip-path="url(#clip-scut-09)">
    <rect width="400" height="220" fill="#fff"/>
    <rect id="Rectangle_89" data-name="Rectangle 89" width="160" height="220" transform="translate(400 220) rotate(180)" fill="#233567"/>
    <rect id="Rectangle_90" data-name="Rectangle 90" width="240" height="220" fill="#ffdfdf"/>
    <path id="Path_67" data-name="Path 67" d="M95.69,121.59q0,10.22-8.65,16.58t-23.49,6.38a65.91,65.91,0,0,1-15-1.5,77.391,77.391,0,0,1-12-3.83V122.66h2A41.28,41.28,0,0,0,51,129.43a40.19,40.19,0,0,0,13.1,2.37c1.09,0,2.51-.1,4.27-.28a17.42,17.42,0,0,0,4.32-.93,10.69,10.69,0,0,0,3.36-2.09,4.87,4.87,0,0,0,1.32-3.71,5,5,0,0,0-1.92-3.92,13.59,13.59,0,0,0-5.64-2.53q-3.9-.91-8.23-1.73a63.619,63.619,0,0,1-8.14-2.07q-8.73-2.82-12.55-7.68a18.81,18.81,0,0,1-3.83-12q0-9.64,8.65-15.75T68,73a69.119,69.119,0,0,1,13.43,1.3A62.89,62.89,0,0,1,93,77.62V93.53H91.1a36.82,36.82,0,0,0-10.23-5.59,35.25,35.25,0,0,0-12.36-2.25A32.639,32.639,0,0,0,64,86a17.23,17.23,0,0,0-4.25,1.14,8,8,0,0,0-3.11,2.11,4.64,4.64,0,0,0-1.3,3.22,4.82,4.82,0,0,0,2.09,4.2q2.09,1.45,7.89,2.67c2.53.52,5,1,7.3,1.53a73.77,73.77,0,0,1,7.54,2q7.93,2.59,11.71,7.07T95.69,121.59Z" fill="#fbc1bc" stroke="#fbc1bc" stroke-width="1"/>
    <path id="Path_68" data-name="Path 68" d="M170.31,121.59q0,10.22-8.65,16.58t-23.49,6.38a65.851,65.851,0,0,1-15-1.5,77,77,0,0,1-11.95-3.83V122.66h1.95a41.28,41.28,0,0,0,12.36,6.77,40.14,40.14,0,0,0,13.15,2.37c1.08,0,2.51-.1,4.27-.28a17.33,17.33,0,0,0,4.31-.93,10.74,10.74,0,0,0,3.37-2.09,4.87,4.87,0,0,0,1.32-3.71,5,5,0,0,0-1.93-3.92,13.48,13.48,0,0,0-5.63-2.53c-2.6-.61-5.34-1.19-8.24-1.73a64.05,64.05,0,0,1-8.14-2.07q-8.72-2.82-12.54-7.68a18.76,18.76,0,0,1-3.83-12q0-9.64,8.65-15.75T142.57,73a69.14,69.14,0,0,1,13.48,1.32,62.89,62.89,0,0,1,11.53,3.32V93.53h-1.91a36.54,36.54,0,0,0-10.23-5.59,35.169,35.169,0,0,0-12.36-2.25,32.862,32.862,0,0,0-4.43.3,17.15,17.15,0,0,0-4.24,1.14,8,8,0,0,0-3.11,2.11,4.6,4.6,0,0,0-1.3,3.22,4.82,4.82,0,0,0,2.09,4.2q2.08,1.45,7.89,2.67c2.53.52,5,1,7.3,1.53a73.777,73.777,0,0,1,7.54,2q7.94,2.59,11.71,7.07T170.31,121.59Z" fill="#fbc1bc" stroke="#fbc1bc" stroke-width="1"/>
    <path id="Path_69" data-name="Path 69" d="M239.46,143.3H189.64V74.23h17.81v55.71h32Z" fill="#fbc1bc" stroke="#fbc1bc" stroke-width="1"/>
    <path id="Path_70" data-name="Path 70" d="M100.69,116.59q0,10.22-8.65,16.58t-23.49,6.38a65.909,65.909,0,0,1-15-1.5,77.388,77.388,0,0,1-12-3.83V117.66h2A41.28,41.28,0,0,0,56,124.43a40.19,40.19,0,0,0,13.1,2.37c1.09,0,2.51-.1,4.27-.28a17.42,17.42,0,0,0,4.32-.93,10.69,10.69,0,0,0,3.36-2.09,4.87,4.87,0,0,0,1.32-3.71,5,5,0,0,0-1.92-3.92,13.59,13.59,0,0,0-5.64-2.53q-3.9-.91-8.23-1.73a63.623,63.623,0,0,1-8.14-2.07q-8.73-2.82-12.55-7.68a18.81,18.81,0,0,1-3.83-12q0-9.64,8.65-15.75T73,68a69.12,69.12,0,0,1,13.43,1.3A62.891,62.891,0,0,1,98,72.62V88.53H96.1a36.82,36.82,0,0,0-10.23-5.59,35.25,35.25,0,0,0-12.36-2.25A32.64,32.64,0,0,0,69,81a17.23,17.23,0,0,0-4.25,1.14,8,8,0,0,0-3.11,2.11,4.64,4.64,0,0,0-1.3,3.22,4.82,4.82,0,0,0,2.09,4.2q2.09,1.45,7.89,2.67c2.53.52,5,1,7.3,1.53a73.77,73.77,0,0,1,7.54,2q7.93,2.59,11.71,7.07T100.69,116.59Z" fill="#fff"/>
    <path id="Path_71" data-name="Path 71" d="M175.31,116.59q0,10.22-8.65,16.58t-23.49,6.38a65.851,65.851,0,0,1-15-1.5,77,77,0,0,1-12-3.83V117.66h1.95a41.28,41.28,0,0,0,12.36,6.77,40.14,40.14,0,0,0,13.15,2.37c1.08,0,2.51-.1,4.27-.28a17.33,17.33,0,0,0,4.31-.93,10.74,10.74,0,0,0,3.37-2.09,4.87,4.87,0,0,0,1.32-3.71,5,5,0,0,0-1.93-3.92,13.48,13.48,0,0,0-5.63-2.53c-2.6-.61-5.34-1.19-8.24-1.73a64.052,64.052,0,0,1-8.14-2.07q-8.72-2.82-12.54-7.68a18.76,18.76,0,0,1-3.83-12q0-9.64,8.65-15.75T147.57,68a69.141,69.141,0,0,1,13.48,1.32,62.888,62.888,0,0,1,11.53,3.32V88.53h-1.91a36.54,36.54,0,0,0-10.23-5.59,35.17,35.17,0,0,0-12.36-2.25,32.862,32.862,0,0,0-4.43.3,17.149,17.149,0,0,0-4.24,1.14,8,8,0,0,0-3.11,2.11,4.6,4.6,0,0,0-1.3,3.22,4.82,4.82,0,0,0,2.09,4.2q2.08,1.45,7.89,2.67c2.53.52,5,1,7.3,1.53a73.77,73.77,0,0,1,7.54,2q7.94,2.59,11.71,7.07T175.31,116.59Z" fill="#fff"/>
    <path id="Path_72" data-name="Path 72" d="M244.46,138.3H194.64V69.23h17.81v55.71h32Z" fill="#fff"/>
    <path id="Path_73" data-name="Path 73" d="M342.57,85.59a23.261,23.261,0,0,1-1.37,8.28,18.6,18.6,0,0,1-3.87,6.25,27.76,27.76,0,0,1-6,4.73,51.52,51.52,0,0,1-7.91,3.81v10.59H307.08V103.6q3.3-.88,6-1.81a22.761,22.761,0,0,0,5.59-3,14.93,14.93,0,0,0,4.29-4.32,10.26,10.26,0,0,0,1.55-5.57q0-4.65-3-6.62c-2-1.32-4.8-2-8.42-2a23.53,23.53,0,0,0-7.54,1.44,34.56,34.56,0,0,0-7.68,3.71H296V71.28a65,65,0,0,1,21.66-4q11.46,0,18.18,5.06A15.81,15.81,0,0,1,342.57,85.59ZM324.71,137.8H306V125.55h18.74Z" fill="#ffdfdf"/>
  </g>
</svg>
