<svg xmlns="http://www.w3.org/2000/svg" xmlns:xlink="http://www.w3.org/1999/xlink" width="480" height="290" viewBox="0 0 480 290">
  <defs>
    <clipPath id="clip-Website_design_1">
      <rect width="480" height="290"/>
    </clipPath>
  </defs>
  <g id="Website_design_1" data-name="Website design – 1" clip-path="url(#clip-Website_design_1)">
    <rect width="480" height="290" fill="#fff"/>
    <g id="Group_1" data-name="Group 1">
      <rect id="Rectangle_1" data-name="Rectangle 1" width="480" height="290" fill="#3d4f9a"/>
    </g>
    <text id="_" data-name=" " transform="translate(196.684 126)" font-size="12" font-family="Calibri"><tspan x="0" y="0"> </tspan></text>
    <g id="Group_8" data-name="Group 8" transform="translate(-9 -155.742)">
      <text id="W" transform="translate(41 284.742)" fill="#213071" font-size="117" font-family="FilsonSoftMedium, Filson Soft"><tspan x="0" y="0">W</tspan></text>
      <text id="W-2" data-name="W" transform="translate(38 276.742)" fill="#f8dc68" font-size="117" font-family="FilsonSoftMedium, Filson Soft"><tspan x="0" y="0">W</tspan></text>
      <text id="ebsite" transform="translate(152 286.742)" fill="#213071" font-size="58" font-family="FilsonSoftMedium, Filson Soft"><tspan x="0" y="0">ebsite</tspan></text>
      <text id="ebsite-2" data-name="ebsite" transform="translate(148 282.742)" fill="#fff" font-size="58" font-family="FilsonSoftMedium, Filson Soft"><tspan x="0" y="0">ebsite</tspan></text>
    </g>
    <g id="Group_25" data-name="Group 25" transform="translate(0 -18)">
      <text id="Design" transform="translate(54 217)" fill="#213071" font-size="49" font-family="FilsonSoftMedium, Filson Soft"><tspan x="0" y="0">D</tspan><tspan y="0" font-size="52">esign</tspan></text>
      <text id="Design-2" data-name="Design" transform="translate(51 213)" fill="#fff" font-size="49" font-family="FilsonSoftMedium, Filson Soft"><tspan x="0" y="0">D</tspan><tspan y="0" font-size="52">esign</tspan></text>
    </g>
    <g id="Group_182" data-name="Group 182" transform="translate(-3.914 -10.824)">
      <path id="Path_244" data-name="Path 244" d="M-372.356-157.076l90.823-80.458,41.916,38.269,72.033-65.851" transform="translate(611.356 395.166)" fill="none" stroke="#84e8bb" stroke-linecap="round" stroke-linejoin="round" stroke-width="15"/>
      <path id="Path_245" data-name="Path 245" d="M24.285,1.769a3.508,3.508,0,0,1,6-.152L51.96,40.044a3.474,3.474,0,0,1-3.134,5.01L3.356,46.208A3.168,3.168,0,0,1,.49,41.351Z" transform="translate(439.17 90.738) rotate(41)" fill="#84e8bb"/>
      <g id="Group_181" data-name="Group 181" transform="translate(256.493 169.765)">
        <path id="Path_9" data-name="Path 9" d="M73.51,221.834H88.566c3.656,0,6.617-2.652,6.617-5.922V113.85c0-5.277-7.13-7.92-11.3-4.186L68.831,123.147a5.627,5.627,0,0,0-1.936,4.186v88.579C66.895,219.182,69.856,221.834,73.51,221.834Z" transform="translate(-27.998 -71.131)" fill="#fff"/>
        <path id="Path_10" data-name="Path 10" d="M44.816,149.413v53.763c0,3.272,2.963,5.922,6.617,5.922H66.492c3.656,0,6.617-2.65,6.617-5.922V135.934c0-5.277-7.128-7.92-11.3-4.188l-8.241,7.377-6.818,6.1A5.63,5.63,0,0,0,44.816,149.413Z" transform="translate(-44.816 -58.396)" fill="#fff"/>
        <path id="Path_11" data-name="Path 11" d="M95.587,223.62h15.059c3.654,0,6.617-2.65,6.617-5.922V124.2a5.627,5.627,0,0,0-1.938-4.188l-15.059-13.477c-4.168-3.73-11.3-1.088-11.3,4.188V217.7C88.97,220.97,91.933,223.62,95.587,223.62Z" transform="translate(-11.184 -72.934)" fill="#fff"/>
        <path id="Path_12" data-name="Path 12" d="M111.048,126.075v90.56c0,3.27,2.963,5.922,6.617,5.922h15.057c3.656,0,6.617-2.652,6.617-5.922V112.6c0-5.276-7.13-7.918-11.3-4.185l-10.88,9.744-4.172,3.729A5.631,5.631,0,0,0,111.048,126.075Z" transform="translate(5.633 -71.853)" fill="#fff"/>
        <path id="Path_13" data-name="Path 13" d="M139.752,235.288h15.04c3.654,0,6.617-2.652,6.617-5.922V90.519c0-5.277-7.13-7.92-11.3-4.186L135.071,99.8a5.627,5.627,0,0,0-1.936,4.184V229.366C133.135,232.636,136.1,235.288,139.752,235.288Z" transform="translate(22.456 -84.585)" fill="#fff"/>
      </g>
    </g>
  </g>
</svg>
