<svg xmlns="http://www.w3.org/2000/svg" xmlns:xlink="http://www.w3.org/1999/xlink" width="400" height="280" viewBox="0 0 400 280">
  <defs>
    <clipPath id="clip-scut-10">
      <rect width="400" height="280"/>
    </clipPath>
  </defs>
  <g id="scut-10" clip-path="url(#clip-scut-10)">
    <rect width="400" height="280" fill="#fff"/>
    <rect id="Rectangle_91" data-name="Rectangle 91" width="400" height="280" fill="#feffdf"/>
    <path id="Path_74" data-name="Path 74" d="M168.32,88.59a19.93,19.93,0,0,1-4,9.25,21.53,21.53,0,0,1-8.08,6.32,13.85,13.85,0,0,1,6.88,6.4,17.17,17.17,0,0,1,1.32,10.25q-1.56,10.11-8.77,15.46t-17.55,5.35a21,21,0,0,1-14.48-5.3q-5.92-5.3-4.27-15l.1-.24h13.48a9.283,9.283,0,0,0,1.24,7,6.38,6.38,0,0,0,5.54,2.71,10.09,10.09,0,0,0,7.11-2.9,12.4,12.4,0,0,0,3.78-7.35c.59-4,.23-6.87-1.07-8.59s-3.52-2.59-6.64-2.59H135.7l.44-3,.63-4.2.49-3.22h7.18a8.62,8.62,0,0,0,6.61-2.74,13.67,13.67,0,0,0,3.3-7.47,9.46,9.46,0,0,0-1.15-6.86c-1.19-1.77-3.08-2.66-5.69-2.66a8,8,0,0,0-5.63,2.42,10.26,10.26,0,0,0-3.11,6.22H125.35l-.1-.29a19.83,19.83,0,0,1,7.93-13.94,25.74,25.74,0,0,1,16-5.2q9.78,0,15.17,5.27T168.32,88.59Z" fill="#ef5a5a"/>
    <path id="Path_75" data-name="Path 75" d="M221.85,114.81q-1.95,13-8.91,19.92A23.16,23.16,0,0,1,196,141.62q-9.61,0-14.77-7.21T178,114.81l2.93-19.48q1.95-12.94,8.94-19.9a23.21,23.21,0,0,1,17-7q9.53,0,14.62,7.25t3.25,19.61Zm-10.69-20.7q1.07-7.33-.52-11.09a5.5,5.5,0,0,0-5.39-3.76c-2.48,0-4.64,1.31-6.5,3.93s-3.12,6.26-3.8,10.92l-3.28,21.82q-1.11,7.47.44,11.21a5.57,5.57,0,0,0,5.52,3.73q3.62,0,6.37-3.9t3.89-11Z" fill="#ef5a5a"/>
    <path id="Path_76" data-name="Path 76" d="M263.47,140.59H249.65l8.89-59.13-13,.34,1.57-10.59,27.24-2.74Z" fill="#ef5a5a"/>
    <path id="Path_77" data-name="Path 77" d="M353.44,186.65l17.5-29.19-17.5-21.3L33.83,166.54l14,22-14,28.49Z" fill="#ef5a5a"/>
    <path id="Path_78" data-name="Path 78" d="M129.42,186.77,129,195.4l-4.12.4L126,174.28l6.36-.61a6.26,6.26,0,0,1,4.83,1.21,5.13,5.13,0,0,1,1.63,4.46,6.11,6.11,0,0,1-.91,3,6.55,6.55,0,0,1-2.34,2.13,3.47,3.47,0,0,1,2.27,1.66,6,6,0,0,1,.6,3.14l-.08,1.57a7.94,7.94,0,0,0,.1,1.88,2.13,2.13,0,0,0,.65,1.37v.31l-4.26.41a2.22,2.22,0,0,1-.56-1.49,13.619,13.619,0,0,1,0-2.12l.09-1.51a3.81,3.81,0,0,0-.53-2.51,1.93,1.93,0,0,0-1.88-.68Zm.17-3.26,2.23-.21a3,3,0,0,0,2-1,3.89,3.89,0,0,0,.84-2.35,3.42,3.42,0,0,0-.55-2.36,2.1,2.1,0,0,0-2-.66l-2.25.22Z" fill="#fffde1"/>
    <path id="Path_79" data-name="Path 79" d="M148.58,193.82a5,5,0,0,1-4.66-1.75,7.62,7.62,0,0,1-1.49-5.44v-.61a11,11,0,0,1,2-6.12,6.45,6.45,0,0,1,4.79-2.66,4.36,4.36,0,0,1,4.11,1.55,7.39,7.39,0,0,1,1.27,5.1l-.12,2.27-8,.77a5,5,0,0,0,.63,2.77,2.07,2.07,0,0,0,2.1.82,6.85,6.85,0,0,0,2.06-.49,9.55,9.55,0,0,0,1.82-1.07l.93,2.5a8.231,8.231,0,0,1-2.36,1.53,9.49,9.49,0,0,1-3.08.83Zm.46-13.31a2,2,0,0,0-1.57,1.07,7.2,7.2,0,0,0-.79,2.6l3.91-.38v-.37a5.07,5.07,0,0,0-.27-2.27,1.16,1.16,0,0,0-1.32-.65Z" fill="#fffde1"/>
    <path id="Path_80" data-name="Path 80" d="M157.58,184.77a13.05,13.05,0,0,1,1.7-6.28,5.18,5.18,0,0,1,4.05-2.61,2.74,2.74,0,0,1,1.66.32,3.83,3.83,0,0,1,1.32,1.23l.46-8.62,4.11-.4-1.22,23.07-3.51.34-.22-1.77a5.92,5.92,0,0,1-1.55,1.72,4,4,0,0,1-1.95.72,3.7,3.7,0,0,1-3.73-1.82,9.33,9.33,0,0,1-1.14-5.58Zm4.07-.08a8.56,8.56,0,0,0,.33,3.41,1.5,1.5,0,0,0,1.68,1,2.38,2.38,0,0,0,1.2-.45,3.4,3.4,0,0,0,.91-1.06l.39-7.3a2.49,2.49,0,0,0-.81-1,1.71,1.71,0,0,0-1.14-.27c-.76.07-1.35.6-1.78,1.59a10.85,10.85,0,0,0-.77,3.73Z" fill="#fffde1"/>
    <path id="Path_81" data-name="Path 81" d="M178.21,190.66l-4.11.4.84-16,4.11-.39Zm1.06-19.89-4.12.39.17-3.18,4.11-.39Z" fill="#fffde1"/>
    <path id="Path_82" data-name="Path 82" d="M190.66,177.13l-1.41.09a1.94,1.94,0,0,0-1.15.5,3,3,0,0,0-.78,1.16l-.57,11-4.1.39.84-16,3.84-.37v2.07h.07a5.09,5.09,0,0,1,1.18-1.88,2.75,2.75,0,0,1,1.66-.79,2.17,2.17,0,0,1,.51,0l.48.08Z" fill="#fffde1"/>
    <path id="Path_83" data-name="Path 83" d="M199.18,189a5,5,0,0,1-4.67-1.75,7.62,7.62,0,0,1-1.49-5.44v-.61a11,11,0,0,1,2-6.12,6.45,6.45,0,0,1,4.79-2.66,4.34,4.34,0,0,1,4.11,1.55,7.38,7.38,0,0,1,1.27,5.09l-.12,2.28-8,.77a5.07,5.07,0,0,0,.63,2.77,2.07,2.07,0,0,0,2.1.82,6.77,6.77,0,0,0,2.06-.49,9.119,9.119,0,0,0,1.82-1.08l.93,2.51a8.23,8.23,0,0,1-2.36,1.53,9.5,9.5,0,0,1-3.07.83Zm.45-13.32a2,2,0,0,0-1.57,1.08,7.2,7.2,0,0,0-.79,2.59l3.91-.37v-.37a5,5,0,0,0-.28-2.27,1.17,1.17,0,0,0-1.27-.71Z" fill="#fffde1"/>
    <path id="Path_84" data-name="Path 84" d="M214.27,184.26a1.77,1.77,0,0,0,1.34-.79,3.65,3.65,0,0,0,.58-1.93l3.71-.35v.08a6.24,6.24,0,0,1-1.73,4.3,6.39,6.39,0,0,1-4.11,2,4.75,4.75,0,0,1-4.56-1.84,8.36,8.36,0,0,1-1.42-5.64v-.43a10.85,10.85,0,0,1,2-6,6.56,6.56,0,0,1,4.87-2.66,4.56,4.56,0,0,1,3.95,1.3,5.65,5.65,0,0,1,1.35,4.38l-3.84.37a3.93,3.93,0,0,0-.34-2.12,1.23,1.23,0,0,0-1.3-.67,2.21,2.21,0,0,0-1.82,1.52,10.29,10.29,0,0,0-.71,3.53v.42a9.63,9.63,0,0,0,.29,3.53A1.52,1.52,0,0,0,214.27,184.26Z" fill="#fffde1"/>
    <path id="Path_85" data-name="Path 85" d="M229.11,165.88l-.22,4,2.14-.21-.16,3-2.14.2-.42,8.15a2.32,2.32,0,0,0,.2,1.44.79.79,0,0,0,.78.34,2.749,2.749,0,0,0,.48-.09,3.529,3.529,0,0,0,.48-.17l.16,3.05a8.673,8.673,0,0,1-1.13.41,6.749,6.749,0,0,1-1.21.21,3.35,3.35,0,0,1-3-1,5.15,5.15,0,0,1-.91-3.8l.44-8.18-1.91.18.15-3,1.91-.19.22-4Z" fill="#fffde1"/>
    <path id="Path_86" data-name="Path 86" d="M238.28,184.88l-4.11.39.85-16,4.11-.4Zm1.06-19.9-4.11.4.16-3.18,4.12-.4Z" fill="#fffde1"/>
    <path id="Path_87" data-name="Path 87" d="M242.65,176.35a10.63,10.63,0,0,1,2-6.11,6.64,6.64,0,0,1,4.9-2.66,4.85,4.85,0,0,1,4.6,1.83,8.32,8.32,0,0,1,1.49,5.69v.34a10.62,10.62,0,0,1-2,6.09,6.69,6.69,0,0,1-4.89,2.65,4.86,4.86,0,0,1-4.61-1.82,8.25,8.25,0,0,1-1.47-5.67Zm4.07-.06a8.9,8.9,0,0,0,.36,3.55,1.58,1.58,0,0,0,1.79,1.09,2.29,2.29,0,0,0,1.86-1.51,9.92,9.92,0,0,0,.76-3.58v-.35a8.86,8.86,0,0,0-.36-3.52,1.59,1.59,0,0,0-1.78-1.13,2.31,2.31,0,0,0-1.88,1.55,9.56,9.56,0,0,0-.74,3.56Z" fill="#fffde1"/>
    <path id="Path_88" data-name="Path 88" d="M263.58,168.65a6.64,6.64,0,0,1,1.73-2,4.43,4.43,0,0,1,2.2-.85,3.17,3.17,0,0,1,3,1.31q1.11,1.48.93,4.86l-.52,9.72-4.11.4.52-9.72a5.42,5.42,0,0,0-.3-2.55,1.2,1.2,0,0,0-1.27-.58,2.57,2.57,0,0,0-1.24.46,3.86,3.86,0,0,0-1,1.06L263,182.5l-4.11.4.84-16,3.84-.37Z" fill="#fffde1"/>
    <path id="Path_89" data-name="Path 89" d="M68.85,213.7V163.21l-35.02,3.33,14,22-14,28.49Z" fill="#e24b4b"/>
    <path id="Path_90" data-name="Path 90" d="M68.85,163.21l-7.23.69-8.8,51.32,16.03-1.52Z" fill="#d13939"/>
  </g>
</svg>
