<svg xmlns="http://www.w3.org/2000/svg" xmlns:xlink="http://www.w3.org/1999/xlink" width="480" height="290" viewBox="0 0 480 290">
  <defs>
    <clipPath id="clip-CSR_ESG_1">
      <rect width="480" height="290"/>
    </clipPath>
  </defs>
  <g id="CSR_ESG_1" data-name="CSR/ESG – 1" clip-path="url(#clip-CSR_ESG_1)">
    <rect width="480" height="290" fill="#fff"/>
    <g id="Group_192" data-name="Group 192">
      <g id="Group_191" data-name="Group 191" transform="translate(-2901 270)">
        <rect id="Rectangle_37" data-name="Rectangle 37" width="480" height="290" transform="translate(2901 -270)" fill="#f0d9c8"/>
        <g id="Group_189" data-name="Group 189" transform="translate(2985.274 -200.598)" opacity="0.799">
          <path id="Path_290" data-name="Path 290" d="M671.063,626.877c-9.323,2.637-15.809,7.267-18.584,18.566a79.223,79.223,0,0,0-17.814,42.278,76.886,76.886,0,0,0,12.03,49.791,74.057,74.057,0,0,0,15.393,17.241c10.089,8.255,25.736,15.531,33.337,18.5,3.037.688,8.624-.346,9.431-1.14a153.211,153.211,0,0,1-30.427-13.321c-10.076-5.835-18.01-12.393-25.139-23.007a73.669,73.669,0,0,1-12.5-41.733,75.423,75.423,0,0,1,4.092-23.591,74.27,74.27,0,0,1,13.187-23.706l.066-.078a21.07,21.07,0,0,0,16.927-19.8ZM681.5,770.223c-7.6,6.623-15.419,9.658-27.505,5.695,1.444-3.017,13.033-12.72,27.505-5.695Zm7.619-7.171c-7.823-6.354-12.149-13.543-10.308-26.129,3.219.908,14.76,10.668,10.308,26.129Zm-15.764-8.923c-7.352-6.894-11.157-14.372-8.426-26.8,3.146,1.134,13.964,11.69,8.426,26.8Zm-17.515-13.921c-4.469-9.034-5.412-17.371,1.5-28.049,2.549,2.165,8.982,15.843-1.5,28.049Zm-11.106-17.521c-2.266-9.82-1.26-18.15,7.928-26.948,1.981,2.7,5.086,17.487-7.928,26.948Zm9.9-44.619c-8.694,4.262-14.295,10.06-15.285,22.24,3.21-.156,16.119-6.806,15.285-22.24Zm6.313-16.538c-9.469,2.019-16.311,6.281-20.235,17.855,3.151.629,17.29-2.682,20.235-17.855Zm8.45-12.97c-8.938.167-16.006,2.788-22.045,12.438,2.691,1.1,16.1.591,22.045-12.438Zm-2.9,113.482c-8.295,5.725-16.41,7.858-27.973,2.557,1.776-2.835,14.384-11.169,27.973-2.557Zm-12.14-9.8c-9.471,3.446-17.862,3.464-27.712-4.583,2.433-2.3,16.737-7.179,27.712,4.583Zm-10.712-12.44c-10.056.68-18.121-1.635-25.349-12.1,2.974-1.529,18.072-2.247,25.349,12.1Zm-6.917-15.475c-10.059-.615-17.762-3.944-23.589-15.25,3.146-1.135,18.211.087,23.589,15.25Zm-5.565-15.343c-8.781-4.948-14.255-11.307-14.556-24.024,3.326.353,16.343,8.035,14.556,24.024ZM621.245,663.7c-1.607,9.949-.049,18.194,9.7,26.36,1.8-2.82,3.911-17.786-9.7-26.36Zm11.135-18.336c-4.367,8.642-5.339,16.643,1.213,26.958,2.467-2.059,8.757-15.147-1.213-26.958Zm13.834-13.949c-5.775,6.824-8.473,13.864-5.211,24.77,2.606-1.291,11.073-11.7,5.211-24.77Z" transform="translate(-613.145 -626.877)" fill="#fff" fill-rule="evenodd"/>
          <path id="Path_291" data-name="Path 291" d="M851.131,626.877c9.323,2.637,15.809,7.267,18.585,18.566a79.209,79.209,0,0,1,17.814,42.279A76.885,76.885,0,0,1,875.5,737.513a74.07,74.07,0,0,1-15.393,17.241c-10.09,8.255-25.737,15.531-33.338,18.5-3.037.688-8.623-.346-9.431-1.14a153.205,153.205,0,0,0,30.428-13.321c10.076-5.835,18.01-12.393,25.139-23.007a73.656,73.656,0,0,0,12.5-41.733,75.4,75.4,0,0,0-4.092-23.592,74.263,74.263,0,0,0-13.186-23.707l-.066-.078a21.072,21.072,0,0,1-16.927-19.8Zm-10.44,143.347c7.6,6.623,15.42,9.658,27.506,5.695-1.444-3.017-13.032-12.72-27.506-5.695Zm-7.619-7.171c7.824-6.354,12.15-13.543,10.309-26.129-3.219.908-14.759,10.668-10.309,26.129Zm15.765-8.923c7.352-6.894,11.156-14.373,8.426-26.8-3.146,1.134-13.964,11.69-8.426,26.8Zm17.516-13.921c4.469-9.034,5.411-17.371-1.5-28.049-2.549,2.165-8.981,15.843,1.5,28.049Zm11.105-17.521c2.266-9.821,1.261-18.151-7.927-26.948-1.981,2.695-5.085,17.487,7.927,26.948Zm-9.9-44.619c8.694,4.262,14.294,10.06,15.284,22.24-3.209-.156-16.118-6.806-15.284-22.24Zm-6.313-16.539c9.469,2.019,16.312,6.281,20.234,17.855-3.151.629-17.289-2.682-20.234-17.855Zm-8.45-12.97c8.938.167,16.007,2.788,22.046,12.438-2.691,1.1-16.1.591-22.046-12.438Zm2.9,113.482c8.3,5.725,16.41,7.858,27.973,2.557-1.775-2.835-14.384-11.17-27.973-2.557Zm12.14-9.8c9.471,3.446,17.861,3.464,27.713-4.583-2.433-2.3-16.736-7.179-27.713,4.583Zm10.713-12.44c10.056.68,18.121-1.635,25.349-12.1-2.975-1.529-18.073-2.247-25.349,12.1Zm6.916-15.475c10.059-.615,17.761-3.944,23.589-15.25-3.146-1.135-18.212.087-23.589,15.25Zm5.566-15.343c8.78-4.948,14.254-11.307,14.555-24.024-3.326.354-16.343,8.035-14.555,24.024Zm9.922-45.284c1.608,9.949.05,18.194-9.7,26.361-1.8-2.821-3.911-17.787,9.7-26.361Zm-11.134-18.336c4.367,8.642,5.34,16.644-1.214,26.958-2.467-2.059-8.757-15.147,1.214-26.958ZM875.981,631.42c5.775,6.824,8.472,13.864,5.211,24.77-2.607-1.291-11.073-11.7-5.211-24.77Z" transform="translate(-597.125 -626.877)" fill="#fff" fill-rule="evenodd"/>
        </g>
        <text id="CSR" transform="translate(3072 -107)" fill="#a55b04" font-size="69" font-family="FilsonSoftMedium, Filson Soft"><tspan x="0" y="0">CSR</tspan></text>
        <g id="Group_190" data-name="Group 190" transform="translate(3088.137 -63.034)">
          <path id="Polygon_1" data-name="Polygon 1" d="M13.5,0l3.848,9.357L27,10.313l-7.275,6.739L21.843,27,13.5,21.808,5.157,27l2.118-9.948L0,10.313l9.652-.956Z" transform="translate(-0.137 0.034)" fill="#fff"/>
          <path id="Polygon_2" data-name="Polygon 2" d="M13.5,0l3.848,9.357L27,10.313l-7.275,6.739L21.843,27,13.5,21.808,5.157,27l2.118-9.948L0,10.313l9.652-.956Z" transform="translate(39.863 0.034)" fill="#fff"/>
          <path id="Polygon_3" data-name="Polygon 3" d="M14,0l3.99,9.357L28,10.313l-7.544,6.739L22.652,27,14,21.808,5.348,27l2.2-9.948L0,10.313l10.01-.956Z" transform="translate(78.863 0.034)" fill="#fff"/>
        </g>
      </g>
    </g>
  </g>
</svg>
