<svg xmlns="http://www.w3.org/2000/svg" xmlns:xlink="http://www.w3.org/1999/xlink" width="480" height="290" viewBox="0 0 480 290">
  <defs>
    <clipPath id="clip-LINE-biz-solution">
      <rect width="480" height="290"/>
    </clipPath>
  </defs>
  <g id="LINE-biz-solution" clip-path="url(#clip-LINE-biz-solution)">
    <rect width="480" height="290" fill="#fff"/>
    <rect id="Rectangle_37" data-name="Rectangle 37" width="480" height="290" fill="#00ba00"/>
    <g id="Group_219" data-name="Group 219" transform="translate(1155.343 -5073.104)">
      <g id="Group_218" data-name="Group 218" transform="translate(-958 5139)">
        <path id="Path_305" data-name="Path 305" d="M442.575,421.989q0-11.652,0-23.3c.008-4.535.642-5.365,4.98-6.923,8.485-3.048,17.31-4.439,26.228-5.3a126.929,126.929,0,0,1,46.491,4.231c1.337.372,2.661.806,3.964,1.284,3.138,1.15,4.173,2.611,4.178,5.972.012,8.366-.008,16.732-.017,25.1-.007,6.706-.13,13.414.006,20.117a29.413,29.413,0,0,1-7.471,20.235c-8.141,9.585-18.565,15.907-29.927,20.878-5.574,2.438-5.576,2.418-11.124-.012-9.295-4.07-17.977-9.1-25.423-16.091-5.742-5.394-10.158-11.566-11.494-19.525a33.582,33.582,0,0,1-.379-5.351C442.551,436.2,442.575,429.094,442.575,421.989Z" transform="translate(-442.568 -385.893)" fill="#fefefe"/>
        <path id="Path_306" data-name="Path 306" d="M515.605,467.023c0-5.911-.009-11.822,0-17.733.005-2.421.225-2.635,2.583-2.662,1.461-.017,2.927.063,4.383-.018,1.824-.1,2.475.727,2.461,2.487-.048,6.043-.019,12.087-.018,18.131,0,2.988.094,5.981-.029,8.964-.067,1.636.571,2.076,2.077,2.056,4.383-.059,8.769-.036,13.153-.018,2.626.011,3,.394,3.035,2.99.019,1.394.005,2.789,0,4.184a1.981,1.981,0,0,1-2.2,2.235q-11.658.012-23.316,0c-1.964,0-2.144-1.369-2.141-2.882q.016-8.866,0-17.732Z" transform="translate(-486.474 -422.393)" fill="#00ba00"/>
      </g>
    </g>
    <g id="Group_220" data-name="Group 220" transform="translate(-12.523 -38.253)">
      <g id="圖層_2" data-name="圖層 2" transform="translate(185.195 235.096)">
        <path id="Path_308" data-name="Path 308" d="M6.76,34.032a1.032,1.032,0,0,1,.295-.723A.944.944,0,0,1,7.763,33h7.947a10.984,10.984,0,0,1,3.347.5,8.389,8.389,0,0,1,2.654,1.386,6.635,6.635,0,0,1,1.74,2.153,6.222,6.222,0,0,1,.619,2.772,4.865,4.865,0,0,1-.31,1.813,4.983,4.983,0,0,1-1.9,2.359,9.14,9.14,0,0,1-1.224.663,5.9,5.9,0,0,1,2.875,1.828A5.087,5.087,0,0,1,24.629,49.9a7.033,7.033,0,0,1-.487,2.58,5.706,5.706,0,0,1-1.548,2.153A7.5,7.5,0,0,1,19.97,56.1a11.367,11.367,0,0,1-3.73.546H7.763a.914.914,0,0,1-.708-.295.958.958,0,0,1-.295-.693Zm5.4,4.143v4.143h3.185a3.067,3.067,0,0,0,1.931-.575,1.872,1.872,0,0,0,.737-1.474,1.8,1.8,0,0,0-.737-1.474,3.155,3.155,0,0,0-1.931-.546Zm0,9.1v4.29h3.7a3.126,3.126,0,0,0,2.005-.59A1.961,1.961,0,0,0,18.6,49.38a1.872,1.872,0,0,0-.737-1.474,3.214,3.214,0,0,0-2.005-.575Z" transform="translate(-6.76 -31.038)" fill="#fff"/>
        <path id="Path_309" data-name="Path 309" d="M22.987,31.67a3.037,3.037,0,0,1,2.2.885,3.1,3.1,0,0,1,0,4.423,3.037,3.037,0,0,1-2.2.885,2.949,2.949,0,0,1-2.167-.885,3.17,3.17,0,0,1,0-4.423,2.949,2.949,0,0,1,2.167-.885M25.64,56.336a.932.932,0,0,1-.958.958H21.306a.932.932,0,0,1-.958-.958V40.62a.929.929,0,0,1,.28-.693.944.944,0,0,1,.678-.28h3.406a.944.944,0,0,1,.678.28.929.929,0,0,1,.28.693Z" transform="translate(-0.517 -31.669)" fill="#fff"/>
        <path id="Path_310" data-name="Path 310" d="M40.762,53.75a.973.973,0,0,1-.28.678.929.929,0,0,1-.693.28H27.183a.973.973,0,0,1-.708-.28.929.929,0,0,1-.295-.678v-3.3a.988.988,0,0,1,.339-.767l7.7-8.109H27.507a.914.914,0,0,1-.678-.28.885.885,0,0,1-.28-.678V38.018a.9.9,0,0,1,.295-.678.973.973,0,0,1,.708-.28h11.8a.958.958,0,0,1,.708.28.9.9,0,0,1,.295.678v3.258a1.165,1.165,0,0,1-.369.855l-7.652,8.109h7.46a.929.929,0,0,1,.693.28.944.944,0,0,1,.28.678Z" transform="translate(2.452 -29.112)" fill="#fff"/>
        <path id="Path_311" data-name="Path 311" d="M56.573,50.268a1.194,1.194,0,0,1,.693.324,8.227,8.227,0,0,0,2.3,1.474,7.637,7.637,0,0,0,2.742.472,5.676,5.676,0,0,0,1.828-.236,2.949,2.949,0,0,0,1.047-.59,1.622,1.622,0,0,0,.487-.767,2.772,2.772,0,0,0,.1-.737,1.843,1.843,0,0,0-.339-1.091,3.288,3.288,0,0,0-.958-.811,6.031,6.031,0,0,0-1.386-.6l-1.681-.56q-1.283-.4-2.61-.929a9.244,9.244,0,0,1-2.359-1.342,6.826,6.826,0,0,1-1.74-2.079,6.31,6.31,0,0,1-.693-3.081,6.03,6.03,0,0,1,.693-2.86,7.224,7.224,0,0,1,1.843-2.226,8.419,8.419,0,0,1,2.742-1.474A10.321,10.321,0,0,1,62.6,32.62a12.606,12.606,0,0,1,4.585.826,8.846,8.846,0,0,1,3.509,2.4.9.9,0,0,1,.206.472,1,1,0,0,1,0,.442,3.509,3.509,0,0,1-.265.442L68.5,39.387a.811.811,0,0,1-.6.265,1.253,1.253,0,0,1-.767-.324,6.428,6.428,0,0,0-2.2-1.371,6.856,6.856,0,0,0-2.536-.487,3.229,3.229,0,0,0-2.3.663,1.99,1.99,0,0,0-.663,1.474,1.578,1.578,0,0,0,.354,1.047,3.656,3.656,0,0,0,.944.781,7.372,7.372,0,0,0,1.371.619c.516.192,1.062.369,1.622.546.87.265,1.769.575,2.683.9a9.819,9.819,0,0,1,2.521,1.342A6.988,6.988,0,0,1,70.8,46.907a6.015,6.015,0,0,1,.737,3.1,6.34,6.34,0,0,1-.708,2.949A7.372,7.372,0,0,1,68.825,55.3a9.112,9.112,0,0,1-2.949,1.474,12.09,12.09,0,0,1-3.745.56,14.228,14.228,0,0,1-5.042-.826,9.923,9.923,0,0,1-3.642-2.388.8.8,0,0,1-.221-.737,1.047,1.047,0,0,1,.324-.634l2.3-2.226a.826.826,0,0,1,.678-.251" transform="translate(15.274 -31.218)" fill="#fff"/>
        <path id="Path_312" data-name="Path 312" d="M76.3,36.81a8.846,8.846,0,0,1,3.6.722,9.023,9.023,0,0,1,2.949,1.976,9.289,9.289,0,0,1,1.99,2.949,8.846,8.846,0,0,1,0,7.165,9.465,9.465,0,0,1-1.99,2.949A9.259,9.259,0,0,1,79.9,54.547a9.362,9.362,0,0,1-7.21,0,9.186,9.186,0,0,1-2.949-1.976,9.212,9.212,0,0,1-1.99-10.114,9.252,9.252,0,0,1,8.537-5.647m0,13.461a3.848,3.848,0,0,0,1.474-.31,3.583,3.583,0,0,0,1.253-.885,4.423,4.423,0,0,0,.84-1.356,4.939,4.939,0,0,0,0-3.362A4.423,4.423,0,0,0,79.012,43a3.583,3.583,0,0,0-1.253-.885,4.025,4.025,0,0,0-3.1,0A3.568,3.568,0,0,0,73.454,43a4.424,4.424,0,0,0-.826,1.356,4.939,4.939,0,0,0,0,3.362,4.423,4.423,0,0,0,.826,1.356,3.568,3.568,0,0,0,1.209.885,3.849,3.849,0,0,0,1.563.31" transform="translate(21.835 -29.231)" fill="#fff"/>
        <path id="Path_313" data-name="Path 313" d="M81.15,32.8a.932.932,0,0,1,.958-.958h3.627a.958.958,0,0,1,.958.958V56.226a.944.944,0,0,1-.28.693.855.855,0,0,1-.678.295H82.108a.885.885,0,0,1-.693-.295.988.988,0,0,1-.265-.693Z" transform="translate(28.529 -31.588)" fill="#fff"/>
        <path id="Path_314" data-name="Path 314" d="M104,46.775a9.17,9.17,0,0,1-.59,3.376,7.372,7.372,0,0,1-1.681,2.565,7.239,7.239,0,0,1-2.654,1.622,9.819,9.819,0,0,1-3.435.575,9.952,9.952,0,0,1-3.48-.575,7.136,7.136,0,0,1-4.335-4.187,9.495,9.495,0,0,1-.59-3.376V38.017a.988.988,0,0,1,.28-.693A.973.973,0,0,1,88.213,37h3.317a.973.973,0,0,1,.693.265.988.988,0,0,1,.28.693v8.315a3.686,3.686,0,0,0,.87,2.624,2.949,2.949,0,0,0,2.271.973A2.846,2.846,0,0,0,97.9,48.9a3.819,3.819,0,0,0,.855-2.624V38.017a.929.929,0,0,1,.28-.693A.914.914,0,0,1,99.713,37H103.1a.932.932,0,0,1,.958.958Z" transform="translate(31.418 -29.14)" fill="#fff"/>
        <path id="Path_315" data-name="Path 315" d="M114.748,54.352a.914.914,0,0,1-.295.457,8.374,8.374,0,0,1-2.167,1.135,7.461,7.461,0,0,1-2.536.442,5.721,5.721,0,0,1-4.571-1.843,7.814,7.814,0,0,1-1.607-5.249V43.044h-2.359a.929.929,0,0,1-.693-.295,1.076,1.076,0,0,1-.28-.708V39.49a1.017,1.017,0,0,1,.28-.708.929.929,0,0,1,.693-.295h2.4v-3.48a.929.929,0,0,1,.265-.678.944.944,0,0,1,.693-.28h3.332a.958.958,0,0,1,.958.958v3.479h3.553a.9.9,0,0,1,.678.295.958.958,0,0,1,.28.708v2.551a1,1,0,0,1-.221.781.9.9,0,0,1-.678.295H109v6.1c0,1.578.619,2.359,1.843,2.359a2.3,2.3,0,0,0,.767-.1,3.272,3.272,0,0,0,.6-.295.722.722,0,0,1,.575-.133.678.678,0,0,1,.472.354l1.474,2.433a.767.767,0,0,1,.118.59" transform="translate(37.585 -30.54)" fill="#fff"/>
        <path id="Path_316" data-name="Path 316" d="M114.537,31.67a2.949,2.949,0,0,1,2.2.885,3.067,3.067,0,0,1,0,4.423,3.133,3.133,0,0,1-4.364,0,3.17,3.17,0,0,1,0-4.423,2.949,2.949,0,0,1,2.167-.885m2.669,24.666a.988.988,0,0,1-.28.693.973.973,0,0,1-.693.265h-3.391a.973.973,0,0,1-.693-.265.988.988,0,0,1-.28-.693V40.62a.958.958,0,0,1,.973-.973h3.391a.958.958,0,0,1,.973.973Z" transform="translate(42.912 -31.669)" fill="#fff"/>
        <path id="Path_317" data-name="Path 317" d="M126.244,36.81a9.2,9.2,0,0,1,6.546,2.7,9.583,9.583,0,0,1,2.005,2.949,9.067,9.067,0,0,1,0,7.165,9.76,9.76,0,0,1-2.005,2.949,9.309,9.309,0,0,1-13.122,0,9.257,9.257,0,0,1-1.976-10.114,9.226,9.226,0,0,1,8.537-5.647m0,13.461a3.848,3.848,0,0,0,1.474-.31,3.583,3.583,0,0,0,1.253-.885,4.129,4.129,0,0,0,.84-1.356,4.939,4.939,0,0,0,0-3.362,4.128,4.128,0,0,0-.84-1.356,3.583,3.583,0,0,0-1.253-.885,3.848,3.848,0,0,0-1.474-.31,3.774,3.774,0,0,0-1.548.31,3.48,3.48,0,0,0-1.224.885,4.054,4.054,0,0,0-.811,1.356,4.5,4.5,0,0,0-.295,1.7,4.423,4.423,0,0,0,.295,1.666,4.055,4.055,0,0,0,.811,1.356,3.48,3.48,0,0,0,1.224.885,3.775,3.775,0,0,0,1.548.31" transform="translate(45.521 -29.231)" fill="#fff"/>
        <path id="Path_318" data-name="Path 318" d="M147.422,54.579a.929.929,0,0,1-.678.265h-3.45a.932.932,0,0,1-.958-.958V45.113a3.288,3.288,0,0,0-.8-2.285,2.669,2.669,0,0,0-2.094-.885,2.639,2.639,0,0,0-.826.147,2.565,2.565,0,0,0-.87.442,2.845,2.845,0,0,0-.722.781,2.374,2.374,0,0,0-.354,1.179v9.392a.932.932,0,0,1-.958.958h-3.583a.973.973,0,0,1-.693-.265.988.988,0,0,1-.28-.693V38.169a.958.958,0,0,1,.973-.973h3.583a.944.944,0,0,1,.678.28.929.929,0,0,1,.28.693v1.858a4.512,4.512,0,0,1,1.931-2.344,5.293,5.293,0,0,1,2.8-.84,5.735,5.735,0,0,1,4.615,1.99,8.079,8.079,0,0,1,1.681,5.411v9.583a.929.929,0,0,1-.28.693" transform="translate(52.252 -29.218)" fill="#fff"/>
        <path id="Path_319" data-name="Path 319" d="M144.141,52.825c-.531-.339-.575-.752-.162-1.253l1.637-1.887a1.253,1.253,0,0,1,.678-.457,1.371,1.371,0,0,1,.767.354,7.372,7.372,0,0,0,4.423,1.474,3.1,3.1,0,0,0,1.076-.147,1.71,1.71,0,0,0,.634-.369,1.283,1.283,0,0,0,.295-.442,1.475,1.475,0,0,0,.074-.369,1.283,1.283,0,0,0-.929-1.209,20.643,20.643,0,0,0-2.182-.752c-.663-.177-1.342-.383-2.035-.634a7.667,7.667,0,0,1-1.887-.988,4.9,4.9,0,0,1-1.4-1.548,4.659,4.659,0,0,1-.56-2.388,4.423,4.423,0,0,1,.442-1.9,4.924,4.924,0,0,1,1.312-1.681,6.886,6.886,0,0,1,2.153-1.209,8.714,8.714,0,0,1,2.949-.457,12.179,12.179,0,0,1,3.627.516,8.2,8.2,0,0,1,2.772,1.474.87.87,0,0,1,.1,1.474l-1.474,1.563a1.474,1.474,0,0,1-.575.428,1.24,1.24,0,0,1-.9-.354,5.559,5.559,0,0,0-3.376-1.076,2.831,2.831,0,0,0-1.047.162,1.931,1.931,0,0,0-.59.369,1.017,1.017,0,0,0-.28.428,1.474,1.474,0,0,0,0,.339,1.047,1.047,0,0,0,.251.693,2.05,2.05,0,0,0,.693.5,4.969,4.969,0,0,0,.973.369c.369.118.767.221,1.194.324.663.162,1.342.369,2.035.59a7.254,7.254,0,0,1,1.887.929,4.6,4.6,0,0,1,1.474,1.548,4.88,4.88,0,0,1,.56,2.447,4.747,4.747,0,0,1-.442,1.976,5.072,5.072,0,0,1-1.356,1.74,7.372,7.372,0,0,1-2.492,1.312,10.32,10.32,0,0,1-3.332.472,11.8,11.8,0,0,1-3.715-.546,10.321,10.321,0,0,1-3.273-1.813" transform="translate(58.202 -29.16)" fill="#fff"/>
        <path id="Path_320" data-name="Path 320" d="M41.944,44.186A.958.958,0,0,1,41,43.257V40.308a.973.973,0,0,1,.28-.678.929.929,0,0,1,.693-.28H52.191a.929.929,0,0,1,.693.28.973.973,0,0,1,.28.678v2.949a.958.958,0,0,1-.973.973Z" transform="translate(9.483 -28.026)" fill="#fff"/>
      </g>
      <path id="Path_321" data-name="Path 321" d="M22.369,24.534a.885.885,0,0,1,.28.678v3.524a.958.958,0,0,1-.958.958H7.7a1.062,1.062,0,0,1-.6-.265h0a.973.973,0,0,1-.295-.663V7.018a.956.956,0,0,1,.973-.958h3.45a.958.958,0,0,1,.678.265.929.929,0,0,1,.28.693V24.254h9.51a.885.885,0,0,1,.678.28M30.8,6.326a.929.929,0,0,1,.28.693V28.736a.958.958,0,0,1-.958.958H26.6a.914.914,0,0,1-.678-.28.885.885,0,0,1-.28-.678V7.018a.929.929,0,0,1,.28-.693A.958.958,0,0,1,26.6,6.06h3.524a.929.929,0,0,1,.678.265m24.047,0a.929.929,0,0,1,.28.693V28.736a.958.958,0,0,1-.958.958H50.648a.487.487,0,0,1-.221,0h0l-.575-.413L39.9,15.82V28.736a.9.9,0,0,1-.295.678,1,1,0,0,1-.708.28h-3.45a1,1,0,0,1-.708-.28.9.9,0,0,1-.295-.678V7.018a.929.929,0,0,1,.295-.693,1.062,1.062,0,0,1,.708-.265h4.069l9.952,13.461V7.018a.932.932,0,0,1,.958-.958h3.524a.929.929,0,0,1,.678.265m9.126,5.131v3.7h9.687a.929.929,0,0,1,.693.28.944.944,0,0,1,.28.678v3.48a1.076,1.076,0,0,1-.28.708.929.929,0,0,1-.693.295H63.976v3.656h9.465a.929.929,0,0,1,.693.28.944.944,0,0,1,.28.678v3.524a.944.944,0,0,1-.28.678.929.929,0,0,1-.693.28H59.494a1.062,1.062,0,0,1-.663-.265h0a1.135,1.135,0,0,1-.251-.663V7.018a.9.9,0,0,1,.251-.663h0a.885.885,0,0,1,.663-.251H73.442a.973.973,0,0,1,.693.265.988.988,0,0,1,.28.693V10.5a.973.973,0,0,1-.28.678.929.929,0,0,1-.693.28Z" transform="translate(95.498 230.565)" fill="#fff"/>
    </g>
  </g>
</svg>
