<?xml version="1.0" encoding="utf-8"?>
<!-- Generator: Adobe Illustrator 21.0.0, SVG Export Plug-In . SVG Version: 6.00 Build 0)  -->
<svg version="1.1" xmlns="http://www.w3.org/2000/svg" xmlns:xlink="http://www.w3.org/1999/xlink" x="0px" y="0px" width="412px"
	 height="230px" viewBox="0 0 412 230" enable-background="new 0 0 412 230" xml:space="preserve">
<g id="bg" display="none">
</g>
<g id="圖層_1">
	<rect fill-rule="evenodd" clip-rule="evenodd" fill="#2B5B99" width="412" height="230"/>
	<rect x="298" y="73" fill-rule="evenodd" clip-rule="evenodd" fill="#F4DD37" width="114" height="42"/>
	<rect x="230" y="115" fill-rule="evenodd" clip-rule="evenodd" fill="#79E68B" width="182" height="42"/>
	<g>
		<path fill="#FFFFFF" d="M43.505,109.482c1.289,0,2.422-0.114,3.398-0.342c0.977-0.228,1.826-0.55,2.549-0.967
			c0.723-0.417,1.325-0.908,1.807-1.475c0.481-0.566,0.875-1.191,1.182-1.875c0.306-0.684,0.53-1.406,0.674-2.168
			c0.143-0.762,0.234-1.54,0.273-2.334c-0.313,0.391-0.671,0.759-1.074,1.104c-0.404,0.345-0.859,0.648-1.367,0.908
			c-0.508,0.261-1.071,0.466-1.689,0.615c-0.619,0.15-1.292,0.225-2.021,0.225c-1.406,0-2.621-0.276-3.643-0.83
			c-1.022-0.553-1.865-1.279-2.529-2.178s-1.152-1.914-1.465-3.047s-0.469-2.272-0.469-3.418c0-1.341,0.186-2.607,0.557-3.799
			s0.924-2.233,1.66-3.125c0.735-0.892,1.653-1.602,2.754-2.129c1.1-0.527,2.379-0.791,3.838-0.791c1.094,0,2.08,0.153,2.959,0.459
			c0.879,0.306,1.653,0.729,2.324,1.27c0.67,0.541,1.247,1.179,1.729,1.914c0.481,0.736,0.875,1.53,1.182,2.383
			c0.306,0.853,0.53,1.745,0.674,2.676c0.143,0.931,0.215,1.865,0.215,2.803v1.309c0,1.211-0.059,2.451-0.176,3.721
			s-0.349,2.497-0.693,3.682c-0.345,1.185-0.83,2.302-1.455,3.35c-0.625,1.048-1.439,1.963-2.441,2.744
			c-1.003,0.781-2.22,1.4-3.652,1.855c-1.433,0.456-3.132,0.684-5.098,0.684h-0.371v-3.223H43.505z M47.821,100.185
			c0.612,0,1.208-0.101,1.787-0.303c0.579-0.202,1.113-0.488,1.602-0.859s0.924-0.807,1.309-1.309
			c0.384-0.501,0.687-1.058,0.908-1.67v-1.172c0-1.263-0.146-2.389-0.439-3.379c-0.293-0.989-0.69-1.826-1.191-2.51
			c-0.501-0.684-1.081-1.208-1.738-1.572c-0.658-0.364-1.357-0.547-2.1-0.547c-0.847,0-1.595,0.169-2.246,0.508
			c-0.651,0.339-1.201,0.804-1.65,1.396c-0.449,0.593-0.791,1.296-1.025,2.109c-0.234,0.814-0.352,1.689-0.352,2.627
			c0,0.833,0.104,1.65,0.313,2.451c0.208,0.801,0.524,1.514,0.947,2.139c0.423,0.625,0.957,1.13,1.602,1.514
			C46.19,99.993,46.948,100.185,47.821,100.185z"/>
		<path fill="#FFFFFF" d="M99.344,112.685h-3.613V88.857l-7.441,2.832v-3.301l10.762-4.141h0.293V112.685z"/>
		<path fill="#FFFFFF" d="M129.481,101.806c0,1.81-0.208,3.415-0.625,4.814c-0.417,1.4-1.016,2.578-1.797,3.535
			s-1.738,1.683-2.871,2.178s-2.429,0.742-3.887,0.742c-1.445,0-2.738-0.248-3.877-0.742c-1.14-0.495-2.106-1.221-2.9-2.178
			c-0.794-0.957-1.403-2.135-1.826-3.535c-0.423-1.399-0.635-3.004-0.635-4.814v-6.66c0-1.81,0.208-3.415,0.625-4.814
			c0.417-1.399,1.019-2.581,1.807-3.545c0.788-0.963,1.751-1.696,2.891-2.197c1.139-0.501,2.432-0.752,3.877-0.752
			c1.458,0,2.757,0.251,3.896,0.752c1.139,0.501,2.103,1.234,2.891,2.197c0.788,0.964,1.39,2.146,1.807,3.545
			c0.417,1.4,0.625,3.005,0.625,4.814V101.806z M114.696,101.084l11.074-8.496c-0.208-1.888-0.759-3.323-1.65-4.307
			c-0.892-0.983-2.178-1.475-3.857-1.475c-1.901,0-3.304,0.642-4.209,1.924c-0.905,1.283-1.357,3.154-1.357,5.615V101.084z
			 M125.848,96.045l-11.055,8.457c0.221,1.836,0.788,3.236,1.699,4.199c0.911,0.964,2.181,1.445,3.809,1.445
			c1.914,0,3.317-0.651,4.209-1.953c0.892-1.302,1.338-3.177,1.338-5.625V96.045z"/>
	</g>
	<g>
		<path fill="#FFFFFF" d="M69.343,111.516h-2.432l8.906-23.159h2.417L69.343,111.516z"/>
	</g>
	<g>
		<path fill="#FFFFFF" d="M47.467,140.981c-0.181,0.215-0.393,0.413-0.637,0.593s-0.518,0.337-0.82,0.469s-0.631,0.234-0.985,0.308
			c-0.354,0.073-0.731,0.11-1.132,0.11c-0.64,0-1.206-0.125-1.699-0.374s-0.91-0.59-1.249-1.022s-0.598-0.941-0.776-1.527
			s-0.27-1.216-0.274-1.89v-1.318c0-0.674,0.088-1.304,0.264-1.89s0.429-1.096,0.758-1.531c0.33-0.435,0.734-0.778,1.212-1.029
			s1.025-0.377,1.641-0.377c0.552,0,1.045,0.076,1.479,0.227s0.808,0.37,1.121,0.656s0.561,0.634,0.743,1.044
			c0.184,0.41,0.299,0.869,0.348,1.377h-1.729c-0.044-0.288-0.112-0.547-0.205-0.776s-0.217-0.425-0.374-0.586
			s-0.346-0.284-0.567-0.37c-0.223-0.085-0.485-0.128-0.788-0.128c-0.371,0-0.69,0.092-0.956,0.275
			c-0.267,0.183-0.487,0.43-0.663,0.74s-0.305,0.669-0.388,1.077s-0.127,0.834-0.132,1.278v1.333
			c0.005,0.444,0.05,0.869,0.135,1.274s0.22,0.763,0.403,1.073c0.183,0.31,0.418,0.558,0.707,0.743s0.635,0.281,1.04,0.286
			c0.166,0,0.337-0.011,0.513-0.033s0.343-0.057,0.501-0.106s0.304-0.111,0.436-0.187s0.239-0.17,0.322-0.282l0.015-2.131h-1.926
			v-1.37h3.647L47.467,140.981z"/>
		<path fill="#FFFFFF" d="M49.034,138.278c0-0.571,0.084-1.104,0.252-1.597c0.169-0.493,0.41-0.92,0.726-1.282
			c0.314-0.361,0.699-0.645,1.153-0.85s0.969-0.308,1.545-0.308c0.581,0,1.1,0.103,1.556,0.308s0.843,0.488,1.157,0.85
			c0.315,0.361,0.556,0.789,0.722,1.282s0.249,1.025,0.249,1.597v0.154c0,0.576-0.083,1.111-0.249,1.604s-0.406,0.919-0.722,1.278
			c-0.314,0.359-0.699,0.641-1.153,0.846s-0.969,0.308-1.545,0.308c-0.581,0-1.1-0.103-1.556-0.308
			c-0.457-0.205-0.843-0.487-1.157-0.846c-0.315-0.359-0.557-0.785-0.726-1.278c-0.168-0.493-0.252-1.028-0.252-1.604V138.278z
			 M50.785,138.432c0,0.361,0.038,0.701,0.113,1.018s0.193,0.597,0.352,0.839s0.36,0.432,0.604,0.571s0.535,0.209,0.872,0.209
			c0.327,0,0.612-0.07,0.853-0.209c0.242-0.139,0.442-0.33,0.601-0.571s0.276-0.521,0.352-0.839s0.114-0.657,0.114-1.018v-0.154
			c0-0.352-0.038-0.686-0.114-1.003s-0.193-0.596-0.352-0.835s-0.358-0.43-0.601-0.571c-0.241-0.142-0.531-0.212-0.868-0.212
			c-0.332,0-0.62,0.071-0.864,0.212s-0.444,0.332-0.601,0.571s-0.272,0.518-0.348,0.835s-0.113,0.652-0.113,1.003V138.432z"/>
		<path fill="#FFFFFF" d="M58.036,138.278c0-0.571,0.084-1.104,0.252-1.597c0.169-0.493,0.41-0.92,0.726-1.282
			c0.314-0.361,0.699-0.645,1.153-0.85s0.969-0.308,1.545-0.308c0.581,0,1.1,0.103,1.556,0.308s0.843,0.488,1.157,0.85
			c0.315,0.361,0.556,0.789,0.722,1.282s0.249,1.025,0.249,1.597v0.154c0,0.576-0.083,1.111-0.249,1.604s-0.406,0.919-0.722,1.278
			c-0.314,0.359-0.699,0.641-1.153,0.846s-0.969,0.308-1.545,0.308c-0.581,0-1.1-0.103-1.556-0.308
			c-0.457-0.205-0.843-0.487-1.157-0.846c-0.315-0.359-0.557-0.785-0.726-1.278c-0.168-0.493-0.252-1.028-0.252-1.604V138.278z
			 M59.786,138.432c0,0.361,0.038,0.701,0.113,1.018s0.193,0.597,0.352,0.839s0.36,0.432,0.604,0.571s0.535,0.209,0.872,0.209
			c0.327,0,0.612-0.07,0.853-0.209c0.242-0.139,0.442-0.33,0.601-0.571s0.276-0.521,0.352-0.839s0.114-0.657,0.114-1.018v-0.154
			c0-0.352-0.038-0.686-0.114-1.003s-0.193-0.596-0.352-0.835s-0.358-0.43-0.601-0.571c-0.241-0.142-0.531-0.212-0.868-0.212
			c-0.332,0-0.62,0.071-0.864,0.212s-0.444,0.332-0.601,0.571s-0.272,0.518-0.348,0.835s-0.113,0.652-0.113,1.003V138.432z"/>
		<path fill="#FFFFFF" d="M67.125,138.293c0-0.601,0.073-1.15,0.22-1.648s0.356-0.925,0.63-1.282s0.604-0.632,0.993-0.828
			c0.388-0.195,0.824-0.293,1.307-0.293c0.435,0,0.818,0.074,1.15,0.223s0.623,0.363,0.872,0.641v-4.043h1.758v11.25h-1.589
			l-0.088-0.806c-0.249,0.308-0.548,0.543-0.897,0.707s-0.755,0.245-1.219,0.245c-0.479,0-0.911-0.101-1.296-0.304
			s-0.714-0.482-0.985-0.839c-0.271-0.356-0.481-0.78-0.63-1.271s-0.223-1.024-0.223-1.6V138.293z M68.876,138.446
			c0,0.356,0.034,0.691,0.103,1.003s0.177,0.586,0.326,0.82c0.148,0.234,0.339,0.419,0.571,0.553
			c0.231,0.134,0.509,0.201,0.831,0.201c0.4,0,0.728-0.087,0.981-0.26s0.457-0.406,0.608-0.699v-3.442
			c-0.151-0.288-0.355-0.518-0.612-0.688c-0.256-0.171-0.577-0.256-0.963-0.256c-0.327,0-0.607,0.068-0.839,0.205
			s-0.422,0.325-0.571,0.564s-0.259,0.518-0.329,0.835c-0.071,0.317-0.106,0.654-0.106,1.011V138.446z"/>
		<path fill="#FFFFFF" d="M85.04,138.278c0-0.571,0.084-1.104,0.252-1.597c0.169-0.493,0.41-0.92,0.726-1.282
			c0.314-0.361,0.699-0.645,1.153-0.85s0.969-0.308,1.545-0.308c0.581,0,1.1,0.103,1.556,0.308s0.843,0.488,1.157,0.85
			c0.315,0.361,0.556,0.789,0.722,1.282s0.249,1.025,0.249,1.597v0.154c0,0.576-0.083,1.111-0.249,1.604s-0.406,0.919-0.722,1.278
			c-0.314,0.359-0.699,0.641-1.153,0.846s-0.969,0.308-1.545,0.308c-0.581,0-1.1-0.103-1.556-0.308
			c-0.457-0.205-0.843-0.487-1.157-0.846c-0.315-0.359-0.557-0.785-0.726-1.278c-0.168-0.493-0.252-1.028-0.252-1.604V138.278z
			 M86.791,138.432c0,0.361,0.038,0.701,0.113,1.018s0.193,0.597,0.352,0.839s0.36,0.432,0.604,0.571s0.535,0.209,0.872,0.209
			c0.327,0,0.612-0.07,0.853-0.209c0.242-0.139,0.442-0.33,0.601-0.571s0.276-0.521,0.352-0.839s0.114-0.657,0.114-1.018v-0.154
			c0-0.352-0.038-0.686-0.114-1.003s-0.193-0.596-0.352-0.835s-0.358-0.43-0.601-0.571c-0.241-0.142-0.531-0.212-0.868-0.212
			c-0.332,0-0.62,0.071-0.864,0.212s-0.444,0.332-0.601,0.571s-0.272,0.518-0.348,0.835s-0.113,0.652-0.113,1.003V138.432z"/>
		<path fill="#FFFFFF" d="M99.806,134.242c0.142,0,0.283,0.005,0.425,0.015s0.277,0.024,0.406,0.044s0.248,0.04,0.355,0.062
			s0.198,0.048,0.271,0.077l-0.249,1.721c-0.537-0.122-1.067-0.183-1.589-0.183c-0.586,0-1.059,0.122-1.417,0.366
			c-0.359,0.244-0.624,0.583-0.795,1.018v4.951h-1.75v-7.925h1.641l0.081,1.238c0.322-0.43,0.704-0.768,1.146-1.014
			C98.772,134.366,99.264,134.242,99.806,134.242z"/>
		<path fill="#FFFFFF" d="M119.332,138.439c0,0.586-0.067,1.124-0.201,1.615c-0.135,0.491-0.333,0.914-0.597,1.271
			s-0.588,0.635-0.974,0.835s-0.83,0.3-1.333,0.3c-0.483,0-0.902-0.085-1.256-0.256c-0.354-0.171-0.658-0.417-0.912-0.74
			l-0.081,0.85h-1.589v-11.25h1.75v4.08c0.249-0.288,0.542-0.51,0.879-0.667s0.735-0.234,1.194-0.234
			c0.508,0,0.956,0.099,1.344,0.297c0.389,0.198,0.714,0.475,0.978,0.831s0.462,0.782,0.597,1.278
			c0.134,0.496,0.201,1.041,0.201,1.637V138.439z M117.582,138.285c0-0.352-0.031-0.685-0.091-1
			c-0.062-0.315-0.161-0.592-0.301-0.831c-0.139-0.239-0.326-0.428-0.56-0.568s-0.522-0.209-0.864-0.209
			c-0.415,0-0.754,0.095-1.018,0.286s-0.466,0.439-0.608,0.747v3.274c0.142,0.308,0.345,0.559,0.612,0.754
			c0.266,0.195,0.609,0.293,1.029,0.293c0.332,0,0.613-0.067,0.842-0.201s0.415-0.319,0.557-0.553s0.244-0.509,0.308-0.824
			s0.095-0.653,0.095-1.014V138.285z"/>
		<path fill="#FFFFFF" d="M126.422,142.314c-0.049-0.098-0.089-0.212-0.121-0.344c-0.032-0.132-0.06-0.273-0.084-0.425
			c-0.122,0.127-0.26,0.245-0.414,0.355c-0.154,0.11-0.325,0.206-0.513,0.289c-0.188,0.083-0.391,0.149-0.608,0.198
			s-0.45,0.073-0.699,0.073c-0.42,0-0.8-0.06-1.139-0.179c-0.34-0.12-0.63-0.286-0.872-0.498c-0.241-0.212-0.428-0.463-0.56-0.751
			s-0.198-0.601-0.198-0.938c0-0.85,0.316-1.499,0.948-1.948s1.54-0.674,2.721-0.674h1.282v-0.52c0-0.42-0.142-0.753-0.425-1
			s-0.684-0.37-1.201-0.37c-0.234,0-0.439,0.028-0.615,0.084s-0.322,0.133-0.439,0.231s-0.205,0.212-0.264,0.344
			s-0.088,0.273-0.088,0.425h-1.75c0-0.308,0.072-0.607,0.216-0.897c0.144-0.291,0.355-0.549,0.633-0.776s0.619-0.409,1.022-0.546
			c0.402-0.137,0.863-0.205,1.38-0.205c0.469,0,0.903,0.057,1.304,0.172s0.747,0.286,1.04,0.513s0.522,0.51,0.688,0.85
			s0.249,0.736,0.249,1.19v3.53c0,0.347,0.026,0.663,0.077,0.948c0.052,0.286,0.126,0.533,0.224,0.743v0.125H126.422z
			 M124.313,141.047c0.225,0,0.436-0.028,0.633-0.084c0.198-0.056,0.376-0.129,0.535-0.22c0.158-0.09,0.295-0.194,0.41-0.311
			c0.114-0.117,0.206-0.237,0.274-0.359v-1.487h-1.113c-0.713,0-1.239,0.115-1.578,0.344c-0.34,0.229-0.509,0.557-0.509,0.981
			c0,0.161,0.027,0.311,0.081,0.45s0.136,0.259,0.245,0.359c0.11,0.1,0.249,0.179,0.418,0.238
			C123.877,141.017,124.078,141.047,124.313,141.047z"/>
		<path fill="#FFFFFF" d="M130.135,138.293c0-0.601,0.073-1.15,0.22-1.648s0.356-0.925,0.63-1.282s0.604-0.632,0.993-0.828
			c0.388-0.195,0.824-0.293,1.307-0.293c0.435,0,0.818,0.074,1.15,0.223s0.623,0.363,0.872,0.641v-4.043h1.758v11.25h-1.589
			l-0.088-0.806c-0.249,0.308-0.548,0.543-0.897,0.707s-0.755,0.245-1.219,0.245c-0.479,0-0.911-0.101-1.296-0.304
			s-0.714-0.482-0.985-0.839c-0.271-0.356-0.481-0.78-0.63-1.271s-0.223-1.024-0.223-1.6V138.293z M131.886,138.446
			c0,0.356,0.034,0.691,0.103,1.003s0.177,0.586,0.326,0.82c0.148,0.234,0.339,0.419,0.571,0.553
			c0.231,0.134,0.509,0.201,0.831,0.201c0.4,0,0.728-0.087,0.981-0.26s0.457-0.406,0.608-0.699v-3.442
			c-0.151-0.288-0.355-0.518-0.612-0.688c-0.256-0.171-0.577-0.256-0.963-0.256c-0.327,0-0.607,0.068-0.839,0.205
			s-0.422,0.325-0.571,0.564s-0.259,0.518-0.329,0.835c-0.071,0.317-0.106,0.654-0.106,1.011V138.446z"/>
		<path fill="#FFFFFF" d="M149.874,139.706l0.051,0.505l0.081-0.505l1.135-5.317h1.15l1.15,5.376l0.081,0.527l0.066-0.579
			l0.769-5.325h1.582l-1.545,7.925h-1.472l-1.201-5.303l-0.015-0.095l-0.015,0.088l-1.179,5.31h-1.465l-1.545-7.925h1.575
			L149.874,139.706z"/>
		<path fill="#FFFFFF" d="M161.066,142.46c-0.586,0-1.121-0.098-1.604-0.293s-0.897-0.464-1.241-0.806
			c-0.345-0.342-0.612-0.746-0.802-1.212s-0.286-0.97-0.286-1.512v-0.3c0-0.63,0.101-1.196,0.304-1.699s0.474-0.933,0.813-1.289
			c0.339-0.356,0.734-0.63,1.187-0.82c0.451-0.19,0.926-0.286,1.424-0.286c0.576,0,1.084,0.096,1.523,0.289s0.807,0.464,1.102,0.813
			s0.519,0.763,0.67,1.241s0.227,1.003,0.227,1.575v0.74h-5.493c0.029,0.308,0.105,0.593,0.227,0.857s0.282,0.492,0.48,0.685
			c0.197,0.193,0.429,0.344,0.695,0.454s0.558,0.165,0.875,0.165c0.444,0,0.853-0.088,1.227-0.264
			c0.373-0.176,0.677-0.417,0.912-0.725l0.952,0.894c-0.127,0.19-0.291,0.375-0.491,0.553s-0.435,0.337-0.703,0.476
			s-0.57,0.251-0.904,0.337C161.826,142.417,161.461,142.46,161.066,142.46z M160.853,135.656c-0.244,0-0.471,0.044-0.681,0.132
			s-0.398,0.216-0.564,0.385s-0.307,0.374-0.421,0.615c-0.115,0.242-0.197,0.516-0.246,0.824h3.713v-0.132
			c-0.015-0.234-0.06-0.46-0.136-0.677s-0.187-0.411-0.333-0.582s-0.331-0.308-0.553-0.41
			C161.411,135.707,161.151,135.656,160.853,135.656z"/>
		<path fill="#FFFFFF" d="M173.341,138.439c0,0.586-0.067,1.124-0.201,1.615c-0.135,0.491-0.333,0.914-0.597,1.271
			s-0.588,0.635-0.974,0.835s-0.83,0.3-1.333,0.3c-0.483,0-0.902-0.085-1.256-0.256c-0.354-0.171-0.658-0.417-0.912-0.74
			l-0.081,0.85h-1.589v-11.25h1.75v4.08c0.249-0.288,0.542-0.51,0.879-0.667s0.735-0.234,1.194-0.234
			c0.508,0,0.956,0.099,1.344,0.297c0.389,0.198,0.714,0.475,0.978,0.831s0.462,0.782,0.597,1.278
			c0.134,0.496,0.201,1.041,0.201,1.637V138.439z M171.59,138.285c0-0.352-0.031-0.685-0.091-1
			c-0.062-0.315-0.161-0.592-0.301-0.831c-0.139-0.239-0.326-0.428-0.56-0.568s-0.522-0.209-0.864-0.209
			c-0.415,0-0.754,0.095-1.018,0.286s-0.466,0.439-0.608,0.747v3.274c0.142,0.308,0.345,0.559,0.612,0.754
			c0.266,0.195,0.609,0.293,1.029,0.293c0.332,0,0.613-0.067,0.842-0.201s0.415-0.319,0.557-0.553s0.244-0.509,0.308-0.824
			s0.095-0.653,0.095-1.014V138.285z"/>
		<path fill="#FFFFFF" d="M180.541,140.168c0-0.132-0.027-0.253-0.081-0.363s-0.15-0.21-0.29-0.3
			c-0.139-0.09-0.329-0.175-0.571-0.253c-0.241-0.078-0.55-0.154-0.926-0.227c-0.469-0.098-0.893-0.215-1.271-0.352
			s-0.703-0.3-0.974-0.491c-0.271-0.19-0.48-0.411-0.626-0.663s-0.22-0.543-0.22-0.875c0-0.322,0.076-0.629,0.227-0.919
			s0.367-0.546,0.648-0.765c0.28-0.22,0.622-0.394,1.025-0.524c0.402-0.129,0.853-0.194,1.351-0.194c0.527,0,1,0.066,1.417,0.198
			c0.417,0.132,0.77,0.311,1.058,0.538s0.509,0.494,0.663,0.802c0.154,0.308,0.231,0.637,0.231,0.989h-1.75
			c0-0.156-0.034-0.306-0.103-0.45s-0.171-0.272-0.308-0.385s-0.307-0.201-0.509-0.267c-0.203-0.066-0.436-0.099-0.7-0.099
			s-0.492,0.028-0.685,0.084s-0.353,0.129-0.479,0.22s-0.221,0.197-0.282,0.319s-0.091,0.249-0.091,0.381s0.023,0.251,0.07,0.359
			c0.046,0.107,0.133,0.205,0.26,0.293s0.303,0.167,0.527,0.238s0.515,0.138,0.872,0.201c0.498,0.088,0.946,0.198,1.344,0.33
			c0.397,0.132,0.737,0.293,1.018,0.483s0.497,0.416,0.648,0.677s0.227,0.568,0.227,0.919s-0.081,0.674-0.242,0.967
			s-0.391,0.546-0.688,0.758s-0.655,0.377-1.073,0.494c-0.417,0.117-0.885,0.176-1.402,0.176c-0.576,0-1.084-0.077-1.523-0.231
			s-0.808-0.355-1.106-0.604s-0.524-0.532-0.677-0.85c-0.154-0.317-0.231-0.64-0.231-0.967h1.699
			c0.015,0.244,0.078,0.452,0.19,0.623s0.256,0.309,0.432,0.414s0.371,0.181,0.586,0.227s0.432,0.07,0.652,0.07
			c0.542,0,0.955-0.092,1.238-0.275S180.541,140.456,180.541,140.168z"/>
		<path fill="#FFFFFF" d="M184.759,134.389h4.226v6.475h2.351v1.45h-6.577v-1.45h2.461v-5.017h-2.461V134.389z M187.074,132.338
			c0-0.273,0.088-0.499,0.264-0.677s0.422-0.267,0.74-0.267c0.322,0,0.572,0.089,0.751,0.267c0.178,0.178,0.267,0.404,0.267,0.677
			s-0.089,0.499-0.267,0.677c-0.179,0.178-0.429,0.267-0.751,0.267c-0.317,0-0.564-0.089-0.74-0.267
			S187.074,132.611,187.074,132.338z"/>
		<path fill="#FFFFFF" d="M196.888,132.47v1.919h2.996v1.304h-2.996v3.801c0,0.298,0.035,0.544,0.106,0.74
			c0.07,0.195,0.169,0.352,0.296,0.469s0.276,0.199,0.447,0.245s0.359,0.07,0.564,0.07c0.151,0,0.309-0.009,0.472-0.026
			s0.322-0.037,0.477-0.059c0.153-0.022,0.295-0.046,0.425-0.073c0.129-0.027,0.238-0.052,0.326-0.077l0.198,1.208
			c-0.127,0.073-0.28,0.14-0.458,0.201s-0.372,0.111-0.582,0.15s-0.429,0.07-0.655,0.092c-0.228,0.022-0.451,0.033-0.67,0.033
			c-0.396,0-0.758-0.055-1.087-0.165c-0.33-0.11-0.613-0.281-0.85-0.513c-0.237-0.232-0.423-0.53-0.557-0.894
			c-0.135-0.364-0.202-0.8-0.202-1.307v-3.896h-1.934v-1.304h1.934v-1.919H196.888z"/>
		<path fill="#FFFFFF" d="M206.073,142.46c-0.586,0-1.121-0.098-1.604-0.293s-0.897-0.464-1.241-0.806
			c-0.345-0.342-0.612-0.746-0.802-1.212s-0.286-0.97-0.286-1.512v-0.3c0-0.63,0.101-1.196,0.304-1.699s0.474-0.933,0.813-1.289
			c0.339-0.356,0.734-0.63,1.187-0.82c0.451-0.19,0.926-0.286,1.424-0.286c0.576,0,1.084,0.096,1.523,0.289s0.807,0.464,1.102,0.813
			s0.519,0.763,0.67,1.241s0.227,1.003,0.227,1.575v0.74h-5.493c0.029,0.308,0.105,0.593,0.227,0.857s0.282,0.492,0.48,0.685
			c0.197,0.193,0.429,0.344,0.695,0.454s0.558,0.165,0.875,0.165c0.444,0,0.853-0.088,1.227-0.264
			c0.373-0.176,0.677-0.417,0.912-0.725l0.952,0.894c-0.127,0.19-0.291,0.375-0.491,0.553s-0.435,0.337-0.703,0.476
			s-0.57,0.251-0.904,0.337C206.833,142.417,206.468,142.46,206.073,142.46z M205.86,135.656c-0.244,0-0.471,0.044-0.681,0.132
			s-0.398,0.216-0.564,0.385s-0.307,0.374-0.421,0.615c-0.115,0.242-0.197,0.516-0.246,0.824h3.713v-0.132
			c-0.015-0.234-0.06-0.46-0.136-0.677s-0.187-0.411-0.333-0.582s-0.331-0.308-0.553-0.41
			C206.418,135.707,206.158,135.656,205.86,135.656z"/>
		<path fill="#FFFFFF" d="M213.924,139.193c0-0.347,0.01-0.637,0.029-0.872s0.063-0.442,0.132-0.623s0.171-0.35,0.308-0.509
			s0.325-0.341,0.564-0.546c0.161-0.161,0.327-0.328,0.498-0.502s0.326-0.354,0.465-0.542c0.139-0.188,0.253-0.382,0.344-0.582
			s0.136-0.408,0.136-0.623c0-0.483-0.134-0.844-0.403-1.08s-0.657-0.355-1.165-0.355c-0.195,0-0.387,0.026-0.575,0.077
			s-0.355,0.131-0.501,0.238s-0.265,0.245-0.355,0.414c-0.091,0.168-0.136,0.37-0.136,0.604h-1.758
			c0.005-0.454,0.094-0.856,0.268-1.205c0.173-0.349,0.409-0.642,0.707-0.879s0.647-0.415,1.047-0.535s0.835-0.179,1.304-0.179
			c0.527,0,0.996,0.062,1.406,0.187s0.758,0.306,1.044,0.546c0.285,0.239,0.502,0.535,0.651,0.886s0.224,0.754,0.224,1.208
			c0,0.347-0.06,0.67-0.18,0.97s-0.276,0.582-0.469,0.846s-0.409,0.51-0.648,0.74s-0.476,0.449-0.71,0.659
			c-0.146,0.146-0.259,0.278-0.337,0.396s-0.136,0.237-0.172,0.359c-0.037,0.122-0.058,0.254-0.063,0.396s-0.007,0.31-0.007,0.505
			H213.924z M213.697,141.435c0-0.288,0.089-0.526,0.267-0.714s0.434-0.282,0.766-0.282s0.59,0.094,0.772,0.282
			c0.184,0.188,0.275,0.426,0.275,0.714c0,0.278-0.091,0.509-0.275,0.692c-0.183,0.183-0.44,0.275-0.772,0.275
			s-0.587-0.092-0.766-0.275S213.697,141.713,213.697,141.435z"/>
	</g>
</g>
<g id="圖層_3">
</g>
</svg>
