<?xml version="1.0" encoding="utf-8"?>
<!-- Generator: Adobe Illustrator 21.0.0, SVG Export Plug-In . SVG Version: 6.00 Build 0)  -->
<svg version="1.1" xmlns="http://www.w3.org/2000/svg" xmlns:xlink="http://www.w3.org/1999/xlink" x="0px" y="0px" width="412px"
	 height="250px" viewBox="0 0 412 250" enable-background="new 0 0 412 250" xml:space="preserve">
<g id="bg" display="none">
	<g display="inline">
		<polyline fill="none" stroke="#000000" stroke-miterlimit="10" points="-1034.822,-111.612 885.178,-111.612 885.178,2940.388 
			-1034.822,2940.388 -1034.822,-111.612 		"/>
		<line fill="none" stroke="#000000" stroke-miterlimit="10" x1="-1034.822" y1="-111.612" x2="885.178" y2="2940.388"/>
		<line fill="none" stroke="#000000" stroke-miterlimit="10" x1="885.178" y1="-111.612" x2="-1034.822" y2="2940.388"/>
	</g>
</g>
<g id="圖層_1">
</g>
<g id="圖層_3">
	<rect fill-rule="evenodd" clip-rule="evenodd" fill="#4D3F8A" width="412" height="250"/>
	<g>
		<path fill="#FF8487" d="M227.11,220.5c-36.729,0-66.61-29.832-66.61-66.5s29.881-66.5,66.61-66.5s66.61,29.832,66.61,66.5
			S263.839,220.5,227.11,220.5z M227.11,90.5c-35.075,0-63.61,28.486-63.61,63.5s28.536,63.5,63.61,63.5s63.61-28.486,63.61-63.5
			S262.185,90.5,227.11,90.5z"/>
	</g>
	<g>
		<path fill="#FFFFFF" d="M324.89,220.5c-36.729,0-66.61-29.832-66.61-66.5s29.881-66.5,66.61-66.5s66.61,29.832,66.61,66.5
			S361.619,220.5,324.89,220.5z M324.89,90.5c-35.075,0-63.61,28.486-63.61,63.5s28.535,63.5,63.61,63.5s63.61-28.486,63.61-63.5
			S359.965,90.5,324.89,90.5z"/>
	</g>
	<g>
		<path fill="#FF8487" d="M284.782,125.31c-0.54,0-1.061-0.292-1.33-0.803c-4.356-8.297-10.647-15.668-18.191-21.317
			c-0.663-0.497-0.798-1.437-0.302-2.1c0.497-0.663,1.438-0.797,2.1-0.302c7.899,5.914,14.486,13.634,19.049,22.324
			c0.385,0.733,0.103,1.64-0.631,2.025C285.255,125.255,285.016,125.31,284.782,125.31z"/>
	</g>
	<g>
		<g>
			<path fill="#FF8486" d="M40.2,41.253c-0.05-0.136-0.093-0.265-0.129-0.387c-0.036-0.122-0.068-0.229-0.097-0.322
				c-0.029-0.107-0.061-0.208-0.097-0.301c-0.021,0.093-0.047,0.197-0.075,0.312c-0.029,0.1-0.061,0.215-0.097,0.344
				c-0.036,0.129-0.079,0.265-0.129,0.408L37.676,47h-2.202L32.23,36h2.374l1.858,6.553c0.079,0.272,0.156,0.564,0.231,0.875
				s0.145,0.604,0.209,0.875c0.079,0.315,0.154,0.627,0.226,0.935c0.107-0.344,0.215-0.68,0.322-1.01
				c0.093-0.279,0.189-0.573,0.29-0.881c0.1-0.308,0.189-0.576,0.269-0.806l1.729-5.167h1.289l1.794,5.167
				c0.079,0.229,0.167,0.498,0.263,0.806c0.097,0.308,0.188,0.602,0.274,0.881c0.1,0.33,0.2,0.666,0.301,1.01
				c0.1-0.344,0.193-0.68,0.279-1.01c0.079-0.279,0.159-0.573,0.242-0.881c0.082-0.308,0.156-0.576,0.22-0.806L46.184,36h1.343
				l-3.147,11h-2.202L40.2,41.253z"/>
			<path fill="#FF8486" d="M57.188,47v-4.952h-4.974V47H49.97V36h2.245v4.813h4.974V36h2.245v11H57.188z"/>
			<path fill="#FF8486" d="M65.356,47h-2.245V36h2.245V47z"/>
			<path fill="#FF8486" d="M73.449,47.151c-0.859,0-1.592-0.138-2.197-0.414s-1.096-0.666-1.472-1.171s-0.65-1.108-0.822-1.81
				c-0.172-0.702-0.258-1.482-0.258-2.342c0-0.695,0.084-1.314,0.252-1.858c0.168-0.544,0.396-1.022,0.682-1.434
				c0.287-0.412,0.621-0.761,1.004-1.047c0.383-0.286,0.786-0.519,1.208-0.698c0.422-0.179,0.856-0.308,1.3-0.387
				c0.444-0.079,0.874-0.118,1.289-0.118c0.258,0,0.532,0.009,0.822,0.027c0.29,0.018,0.571,0.04,0.843,0.064
				c0.272,0.025,0.526,0.056,0.763,0.091c0.236,0.036,0.43,0.072,0.58,0.107l-0.419,1.568c-0.15-0.043-0.363-0.093-0.639-0.15
				c-0.276-0.057-0.571-0.109-0.886-0.156c-0.315-0.046-0.625-0.086-0.929-0.118s-0.561-0.048-0.768-0.048
				c-0.229,0-0.43,0.007-0.602,0.021c-0.172,0.014-0.33,0.04-0.473,0.075c-0.143,0.036-0.281,0.084-0.414,0.145
				c-0.132,0.061-0.267,0.142-0.403,0.242c-0.344,0.229-0.575,0.668-0.693,1.316c-0.118,0.648-0.177,1.452-0.177,2.412
				c0,1.468,0.229,2.583,0.688,3.346s1.2,1.144,2.224,1.144c0.287,0,0.583-0.011,0.892-0.032s0.614-0.054,0.918-0.097
				s0.602-0.097,0.892-0.161s0.564-0.14,0.822-0.226v0.913c-0.287,0.129-0.596,0.242-0.929,0.338s-0.675,0.179-1.026,0.247
				s-0.702,0.12-1.053,0.156C74.119,47.133,73.779,47.151,73.449,47.151z"/>
			<path fill="#FF8486" d="M87.72,47v-4.952h-4.974V47h-2.245V36h2.245v4.813h4.974V36h2.245v11H87.72z"/>
			<path fill="#FF8486" d="M108.676,41.457c0,0.874-0.117,1.662-0.349,2.363c-0.233,0.702-0.582,1.3-1.047,1.794
				c-0.466,0.494-1.046,0.874-1.74,1.139c-0.695,0.265-1.504,0.397-2.428,0.397c-0.945,0-1.755-0.136-2.428-0.408
				c-0.673-0.272-1.229-0.657-1.665-1.155c-0.437-0.498-0.757-1.096-0.961-1.794s-0.306-1.477-0.306-2.336s0.105-1.633,0.317-2.32
				c0.211-0.688,0.535-1.273,0.972-1.756c0.437-0.483,0.994-0.854,1.67-1.112s1.484-0.387,2.422-0.387
				c0.924,0,1.731,0.129,2.422,0.387c0.691,0.258,1.268,0.628,1.729,1.112s0.809,1.069,1.042,1.756
				C108.559,39.824,108.676,40.598,108.676,41.457z M106.312,41.468c0-0.673-0.061-1.275-0.183-1.805
				c-0.122-0.53-0.312-0.981-0.569-1.354c-0.258-0.372-0.587-0.657-0.988-0.854c-0.401-0.197-0.881-0.295-1.439-0.295
				c-0.487,0-0.94,0.05-1.359,0.15c-0.419,0.1-0.75,0.244-0.994,0.43c-0.244,0.186-0.421,0.589-0.532,1.208
				c-0.111,0.62-0.167,1.459-0.167,2.519c0,0.659,0.05,1.257,0.15,1.794c0.1,0.537,0.267,0.999,0.5,1.386
				c0.232,0.387,0.542,0.686,0.929,0.897c0.387,0.211,0.87,0.317,1.45,0.317c0.594,0,1.086-0.052,1.477-0.156
				c0.39-0.104,0.718-0.242,0.983-0.414c0.122-0.079,0.229-0.238,0.322-0.478c0.093-0.24,0.17-0.532,0.231-0.875
				c0.061-0.344,0.107-0.729,0.14-1.155C106.296,42.358,106.312,41.919,106.312,41.468z"/>
			<path fill="#FF8486" d="M121.055,47.054l-7.767-7.713h-0.032c0.014,0.645,0.029,1.239,0.043,1.783
				c0.007,0.229,0.013,0.46,0.016,0.693c0.003,0.233,0.007,0.448,0.011,0.645c0.003,0.197,0.007,0.369,0.011,0.516
				c0.003,0.147,0.005,0.252,0.005,0.317V47h-1.311V35.925h0.978l7.778,7.691h0.011c-0.015-0.594-0.025-1.149-0.032-1.665
				c0-0.222-0.002-0.446-0.006-0.671s-0.007-0.44-0.011-0.645s-0.005-0.392-0.005-0.564s0-0.312,0-0.419V36h1.311v11.054H121.055z"
				/>
			<path fill="#FF8486" d="M132.36,47h-6.628V36h6.392l-0.107,1.117l-4.039,0.054v3.577l3.803,0.043l-0.107,1.021l-3.695,0.086
				v3.932l4.49,0.086L132.36,47z"/>
			<path fill="#FFFFFF" d="M146.537,41.253c-0.05-0.136-0.093-0.265-0.129-0.387c-0.036-0.122-0.068-0.229-0.097-0.322
				c-0.029-0.107-0.061-0.208-0.097-0.301c-0.021,0.093-0.047,0.197-0.075,0.312c-0.029,0.1-0.061,0.215-0.097,0.344
				c-0.036,0.129-0.079,0.265-0.129,0.408L144.013,47h-2.202l-3.244-11h2.374l1.858,6.553c0.079,0.272,0.156,0.564,0.231,0.875
				s0.145,0.604,0.209,0.875c0.079,0.315,0.154,0.627,0.226,0.935c0.107-0.344,0.215-0.68,0.322-1.01
				c0.093-0.279,0.189-0.573,0.29-0.881c0.1-0.308,0.189-0.576,0.269-0.806l1.729-5.167h1.289l1.794,5.167
				c0.079,0.229,0.167,0.498,0.263,0.806c0.097,0.308,0.188,0.602,0.274,0.881c0.1,0.33,0.2,0.666,0.301,1.01
				c0.1-0.344,0.193-0.68,0.279-1.01c0.079-0.279,0.159-0.573,0.242-0.881c0.082-0.308,0.156-0.576,0.22-0.806L152.521,36h1.343
				l-3.147,11h-2.202L146.537,41.253z"/>
			<path fill="#FFFFFF" d="M158.552,47h-2.245V36h2.245V47z"/>
			<path fill="#FFFFFF" d="M162.23,47V36h2.245v9.84h4.179L168.546,47H162.23z"/>
			<path fill="#FFFFFF" d="M171.408,47V36h2.245v9.84h4.179L177.724,47H171.408z"/>
			<path fill="#FFFFFF" d="M192.74,44.025c0,0.487-0.083,0.92-0.247,1.3c-0.165,0.38-0.416,0.704-0.752,0.972
				c-0.337,0.269-0.768,0.473-1.294,0.612s-1.148,0.209-1.864,0.209c-0.236,0-0.51-0.004-0.822-0.011
				c-0.312-0.007-0.63-0.018-0.956-0.032c-0.326-0.014-0.646-0.032-0.961-0.054c-0.315-0.021-0.591-0.043-0.827-0.064V36.075
				c0.222-0.021,0.463-0.041,0.725-0.059c0.261-0.018,0.528-0.032,0.8-0.043c0.272-0.011,0.546-0.02,0.822-0.027
				c0.275-0.007,0.539-0.011,0.79-0.011c0.608,0,1.164,0.05,1.665,0.15c0.501,0.1,0.931,0.254,1.289,0.462
				c0.358,0.208,0.634,0.478,0.827,0.811s0.29,0.729,0.29,1.187c0,0.373-0.054,0.702-0.161,0.988
				c-0.107,0.287-0.252,0.534-0.435,0.741c-0.183,0.208-0.396,0.378-0.639,0.51c-0.244,0.133-0.498,0.231-0.763,0.295v0.032
				c0.444,0.093,0.825,0.231,1.144,0.414c0.318,0.183,0.58,0.399,0.784,0.65c0.204,0.251,0.353,0.534,0.446,0.849
				C192.693,43.341,192.74,43.674,192.74,44.025z M189.947,38.804c0-0.329-0.047-0.605-0.14-0.827
				c-0.093-0.222-0.231-0.403-0.414-0.542s-0.407-0.24-0.671-0.301c-0.265-0.061-0.569-0.091-0.913-0.091
				c-0.101,0-0.199,0.002-0.295,0.005c-0.097,0.004-0.181,0.013-0.252,0.027v3.545h0.741c0.25,0,0.508-0.023,0.773-0.07
				c0.265-0.046,0.469-0.109,0.612-0.188c0.064-0.036,0.13-0.088,0.199-0.156c0.068-0.068,0.129-0.161,0.183-0.279
				s0.097-0.269,0.129-0.451S189.947,39.069,189.947,38.804z M190.451,43.896c0-0.716-0.213-1.257-0.639-1.622
				c-0.426-0.365-1.044-0.548-1.853-0.548h-0.698v4.222c0.064,0.007,0.118,0.014,0.161,0.021c0.043,0.007,0.089,0.013,0.14,0.016
				c0.05,0.004,0.114,0.005,0.193,0.005c0.079,0,0.186,0,0.322,0c0.136,0,0.285-0.005,0.446-0.016s0.32-0.027,0.478-0.048
				c0.157-0.021,0.301-0.048,0.43-0.081s0.232-0.07,0.312-0.113c0.079-0.043,0.161-0.104,0.247-0.183
				c0.086-0.079,0.163-0.188,0.231-0.328c0.068-0.14,0.124-0.317,0.167-0.532S190.451,44.211,190.451,43.896z"/>
			<path fill="#FFFFFF" d="M202.304,47h-6.628V36h6.392l-0.107,1.117l-4.039,0.054v3.577l3.803,0.043l-0.107,1.021l-3.695,0.086
				v3.932l4.49,0.086L202.304,47z"/>
			<path fill="#FFFFFF" d="M217.47,44.025c0,0.487-0.083,0.92-0.247,1.3c-0.165,0.38-0.416,0.704-0.752,0.972
				c-0.337,0.269-0.768,0.473-1.294,0.612s-1.148,0.209-1.864,0.209c-0.236,0-0.51-0.004-0.822-0.011
				c-0.312-0.007-0.63-0.018-0.956-0.032c-0.326-0.014-0.646-0.032-0.961-0.054c-0.315-0.021-0.591-0.043-0.827-0.064V36.075
				c0.222-0.021,0.463-0.041,0.725-0.059c0.261-0.018,0.528-0.032,0.8-0.043c0.272-0.011,0.546-0.02,0.822-0.027
				c0.275-0.007,0.539-0.011,0.79-0.011c0.608,0,1.164,0.05,1.665,0.15c0.501,0.1,0.931,0.254,1.289,0.462
				c0.358,0.208,0.634,0.478,0.827,0.811s0.29,0.729,0.29,1.187c0,0.373-0.054,0.702-0.161,0.988
				c-0.107,0.287-0.252,0.534-0.435,0.741c-0.183,0.208-0.396,0.378-0.639,0.51c-0.244,0.133-0.498,0.231-0.763,0.295v0.032
				c0.444,0.093,0.825,0.231,1.144,0.414c0.318,0.183,0.58,0.399,0.784,0.65c0.204,0.251,0.353,0.534,0.446,0.849
				C217.423,43.341,217.47,43.674,217.47,44.025z M214.677,38.804c0-0.329-0.047-0.605-0.14-0.827
				c-0.093-0.222-0.231-0.403-0.414-0.542s-0.407-0.24-0.671-0.301c-0.265-0.061-0.569-0.091-0.913-0.091
				c-0.101,0-0.199,0.002-0.295,0.005c-0.097,0.004-0.181,0.013-0.252,0.027v3.545h0.741c0.25,0,0.508-0.023,0.773-0.07
				c0.265-0.046,0.469-0.109,0.612-0.188c0.064-0.036,0.13-0.088,0.199-0.156c0.068-0.068,0.129-0.161,0.183-0.279
				s0.097-0.269,0.129-0.451S214.677,39.069,214.677,38.804z M215.182,43.896c0-0.716-0.213-1.257-0.639-1.622
				c-0.426-0.365-1.044-0.548-1.853-0.548h-0.698v4.222c0.064,0.007,0.118,0.014,0.161,0.021c0.043,0.007,0.089,0.013,0.14,0.016
				c0.05,0.004,0.114,0.005,0.193,0.005c0.079,0,0.186,0,0.322,0c0.136,0,0.285-0.005,0.446-0.016s0.32-0.027,0.478-0.048
				c0.157-0.021,0.301-0.048,0.43-0.081s0.232-0.07,0.312-0.113c0.079-0.043,0.161-0.104,0.247-0.183
				c0.086-0.079,0.163-0.188,0.231-0.328c0.068-0.14,0.124-0.317,0.167-0.532S215.182,44.211,215.182,43.896z"/>
			<path fill="#FFFFFF" d="M227.035,47h-6.628V36h6.392l-0.107,1.117l-4.039,0.054v3.577l3.803,0.043l-0.107,1.021l-3.695,0.086
				v3.932l4.49,0.086L227.035,47z"/>
			<path fill="#FFFFFF" d="M232.303,47v-9.829l-3.384-0.054L229.027,36h8.905l-0.107,1.085l-3.276,0.086V47H232.303z"/>
			<path fill="#FFFFFF" d="M242.738,47v-9.829l-3.384-0.054L239.462,36h8.905l-0.107,1.085l-3.276,0.086V47H242.738z"/>
			<path fill="#FFFFFF" d="M257.545,47h-6.628V36h6.392l-0.107,1.117l-4.039,0.054v3.577l3.803,0.043l-0.107,1.021l-3.695,0.086
				v3.932l4.49,0.086L257.545,47z"/>
			<path fill="#FFFFFF" d="M263.554,42.467h-0.752V47h-2.245V36.022c0.222-0.014,0.463-0.029,0.725-0.043
				c0.261-0.014,0.53-0.027,0.806-0.038c0.275-0.011,0.555-0.02,0.838-0.027c0.283-0.007,0.553-0.011,0.811-0.011
				c1.332,0,2.342,0.244,3.029,0.73c0.688,0.487,1.031,1.246,1.031,2.277c0,0.458-0.059,0.859-0.177,1.203s-0.274,0.643-0.467,0.897
				c-0.193,0.254-0.416,0.467-0.666,0.639c-0.251,0.172-0.512,0.319-0.784,0.44c0.329,0.566,0.643,1.099,0.94,1.601
				c0.297,0.501,0.592,0.94,0.886,1.316c0.293,0.376,0.594,0.673,0.902,0.892c0.308,0.219,0.637,0.328,0.988,0.328h0.075v0.698
				c-0.179,0.057-0.383,0.104-0.612,0.14c-0.229,0.036-0.487,0.054-0.773,0.054c-0.272,0-0.521-0.014-0.747-0.043
				c-0.226-0.029-0.437-0.084-0.634-0.167c-0.197-0.082-0.391-0.202-0.58-0.36c-0.19-0.157-0.385-0.365-0.585-0.623
				c-0.201-0.258-0.416-0.575-0.645-0.951c-0.229-0.376-0.48-0.825-0.752-1.348L263.554,42.467z M263.189,41.382
				c0.315,0,0.618-0.038,0.908-0.113s0.517-0.17,0.682-0.285c0.086-0.057,0.172-0.127,0.258-0.209
				c0.086-0.082,0.163-0.197,0.231-0.344c0.068-0.147,0.122-0.331,0.161-0.553c0.039-0.222,0.059-0.501,0.059-0.838
				c0-0.372-0.045-0.688-0.134-0.945c-0.09-0.258-0.222-0.464-0.397-0.618c-0.176-0.154-0.392-0.265-0.65-0.333
				c-0.258-0.068-0.559-0.102-0.902-0.102c-0.079,0-0.176,0.004-0.29,0.011c-0.115,0.007-0.219,0.018-0.312,0.032v4.297H263.189z"/>
			<path fill="#FFFFFF" d="M279.01,41.479c-0.215,0.115-0.396,0.217-0.542,0.306c-0.147,0.09-0.265,0.183-0.354,0.279
				c-0.09,0.097-0.152,0.201-0.188,0.312c-0.036,0.111-0.054,0.242-0.054,0.392c0,0.172,0.018,0.322,0.054,0.451
				c0.036,0.129,0.082,0.247,0.14,0.354l-0.849,0.301c-0.079-0.086-0.16-0.183-0.242-0.29c-0.083-0.107-0.158-0.227-0.226-0.36
				c-0.068-0.132-0.124-0.274-0.167-0.424s-0.064-0.312-0.064-0.483c0-0.193,0.025-0.367,0.075-0.521
				c0.05-0.154,0.127-0.295,0.231-0.424c0.104-0.129,0.234-0.25,0.392-0.365c0.157-0.115,0.34-0.233,0.548-0.354
				c0.272-0.157,0.5-0.31,0.682-0.457c0.183-0.147,0.329-0.299,0.44-0.457c0.111-0.157,0.189-0.319,0.236-0.483
				c0.046-0.165,0.07-0.344,0.07-0.537c0-0.179-0.027-0.344-0.081-0.494s-0.149-0.283-0.285-0.397
				c-0.136-0.115-0.321-0.204-0.553-0.269c-0.233-0.064-0.528-0.097-0.886-0.097c-0.322,0-0.648,0.029-0.978,0.086
				c-0.33,0.057-0.666,0.15-1.01,0.279l0.269-1.719c0.279-0.072,0.602-0.129,0.967-0.172s0.72-0.064,1.063-0.064
				c1.045,0,1.86,0.217,2.444,0.65c0.583,0.433,0.875,1.108,0.875,2.025c0,0.401-0.047,0.749-0.14,1.042
				c-0.093,0.294-0.228,0.553-0.403,0.779c-0.176,0.226-0.387,0.428-0.634,0.607C279.595,41.153,279.318,41.321,279.01,41.479z
				 M277.699,44.325l1.461,1.504l-1.461,1.504l-1.45-1.504L277.699,44.325z"/>
		</g>
	</g>
	<g>
		<path fill="#FF8487" d="M178.36,158.858c-0.781,0-1.447-0.125-1.997-0.376c-0.55-0.25-0.996-0.605-1.338-1.064
			s-0.591-1.007-0.747-1.646c-0.156-0.638-0.234-1.348-0.234-2.129c0-0.631,0.076-1.195,0.229-1.689
			c0.153-0.495,0.359-0.929,0.62-1.304c0.26-0.374,0.564-0.692,0.913-0.952c0.348-0.26,0.714-0.472,1.099-0.635
			c0.384-0.163,0.778-0.28,1.182-0.352c0.403-0.072,0.794-0.107,1.172-0.107c0.234,0,0.483,0.008,0.747,0.024
			c0.264,0.016,0.519,0.036,0.767,0.059c0.247,0.023,0.479,0.051,0.693,0.083c0.215,0.033,0.391,0.065,0.527,0.098l-0.381,1.426
			c-0.137-0.039-0.331-0.084-0.581-0.137c-0.251-0.052-0.52-0.099-0.806-0.142c-0.287-0.042-0.568-0.078-0.845-0.107
			c-0.277-0.029-0.51-0.044-0.698-0.044c-0.208,0-0.391,0.007-0.547,0.02c-0.156,0.013-0.3,0.036-0.43,0.068
			c-0.13,0.033-0.256,0.077-0.376,0.132c-0.121,0.055-0.243,0.129-0.366,0.22c-0.313,0.208-0.522,0.607-0.63,1.196
			c-0.107,0.589-0.161,1.32-0.161,2.192c0,1.335,0.208,2.349,0.625,3.042c0.417,0.693,1.09,1.04,2.021,1.04
			c0.26,0,0.53-0.01,0.811-0.029c0.28-0.02,0.558-0.049,0.835-0.088c0.276-0.039,0.547-0.088,0.811-0.146s0.513-0.127,0.747-0.205
			v0.83c-0.261,0.117-0.542,0.22-0.845,0.308s-0.614,0.163-0.933,0.225c-0.319,0.062-0.638,0.109-0.957,0.142
			C178.968,158.842,178.659,158.858,178.36,158.858z"/>
		<path fill="#FF8487" d="M187.494,154.601h-0.684v4.121h-2.041v-9.98c0.202-0.013,0.421-0.026,0.659-0.039
			c0.237-0.013,0.481-0.024,0.732-0.034c0.25-0.01,0.504-0.018,0.762-0.024c0.257-0.006,0.503-0.01,0.737-0.01
			c1.211,0,2.129,0.221,2.754,0.664c0.625,0.443,0.938,1.133,0.938,2.07c0,0.417-0.054,0.781-0.161,1.094s-0.249,0.584-0.425,0.815
			c-0.176,0.231-0.378,0.425-0.605,0.581c-0.228,0.156-0.466,0.29-0.713,0.4c0.299,0.514,0.584,1,0.854,1.455
			c0.27,0.456,0.539,0.854,0.806,1.196c0.267,0.342,0.54,0.612,0.82,0.811c0.28,0.199,0.579,0.298,0.898,0.298h0.068v0.635
			c-0.163,0.052-0.349,0.094-0.557,0.127c-0.208,0.032-0.443,0.049-0.703,0.049c-0.248,0-0.474-0.013-0.679-0.039
			c-0.205-0.026-0.397-0.076-0.576-0.151c-0.179-0.075-0.355-0.184-0.527-0.327c-0.173-0.143-0.35-0.332-0.532-0.566
			c-0.183-0.234-0.378-0.522-0.586-0.864c-0.208-0.342-0.437-0.75-0.684-1.226L187.494,154.601z M187.162,153.614
			c0.286,0,0.562-0.034,0.825-0.103s0.47-0.155,0.62-0.259c0.078-0.052,0.156-0.115,0.234-0.19c0.078-0.075,0.148-0.179,0.21-0.313
			c0.062-0.133,0.11-0.301,0.146-0.503c0.036-0.202,0.054-0.456,0.054-0.762c0-0.338-0.041-0.625-0.122-0.859
			c-0.082-0.234-0.202-0.421-0.361-0.562c-0.16-0.14-0.356-0.241-0.591-0.303c-0.234-0.062-0.508-0.093-0.82-0.093
			c-0.072,0-0.16,0.003-0.264,0.01c-0.104,0.007-0.199,0.016-0.283,0.029v3.906H187.162z"/>
		<path fill="#FF8487" d="M200.946,158.722h-6.025v-10h5.811l-0.098,1.016l-3.672,0.049v3.252l3.457,0.039l-0.098,0.928
			l-3.359,0.078v3.574l4.082,0.078L200.946,158.722z"/>
		<path fill="#FF8487" d="M209.973,158.722l-1.172-3.369l-3.76,0.049l-1.221,3.32h-1.289l3.965-9.912l1.973-0.342l3.691,10.254
			H209.973z M208.479,154.405l-1.504-4.316l-1.582,4.316H208.479z"/>
		<path fill="#FF8487" d="M215.621,158.722v-8.936l-3.076-0.049l0.098-1.016h8.096l-0.098,0.986l-2.979,0.078v8.936H215.621z"/>
		<path fill="#FF8487" d="M225.098,158.722h-2.041v-10h2.041V158.722z"/>
		<path fill="#FF8487" d="M235.492,148.722h1.24l-3.701,10h-2.002l-3.75-10h2.197l1.895,5.391c0.143,0.41,0.28,0.812,0.41,1.206
			c0.13,0.394,0.247,0.75,0.352,1.069c0.117,0.371,0.228,0.726,0.332,1.064c0.13-0.404,0.26-0.807,0.391-1.211
			c0.11-0.352,0.234-0.729,0.371-1.133c0.137-0.404,0.267-0.781,0.391-1.133L235.492,148.722z"/>
		<path fill="#FF8487" d="M244.94,158.722h-6.025v-10h5.811l-0.098,1.016l-3.672,0.049v3.252l3.457,0.039l-0.098,0.928l-3.359,0.078
			v3.574l4.082,0.078L244.94,158.722z"/>
	</g>
	<g>
		<path fill="#FFFFFF" d="M330.384,155.792c0,0.365-0.093,0.729-0.278,1.094c-0.186,0.365-0.449,0.693-0.791,0.986
			s-0.754,0.531-1.235,0.713c-0.482,0.182-1.022,0.273-1.621,0.273c-0.326,0-0.624-0.016-0.894-0.049
			c-0.271-0.033-0.526-0.082-0.767-0.146c-0.241-0.065-0.473-0.142-0.693-0.229c-0.222-0.088-0.443-0.187-0.664-0.298l0.498-1.484
			c0.143,0.098,0.337,0.2,0.581,0.308s0.504,0.207,0.781,0.298c0.276,0.091,0.558,0.168,0.845,0.229
			c0.286,0.062,0.547,0.093,0.781,0.093c0.54,0,0.947-0.059,1.221-0.176c0.149-0.065,0.271-0.211,0.366-0.439
			c0.094-0.228,0.142-0.527,0.142-0.898c0-0.26-0.07-0.477-0.21-0.649c-0.141-0.172-0.324-0.324-0.552-0.454
			c-0.229-0.13-0.488-0.247-0.781-0.352c-0.293-0.104-0.591-0.215-0.894-0.332s-0.601-0.252-0.894-0.405
			c-0.293-0.153-0.554-0.342-0.781-0.566c-0.229-0.225-0.412-0.495-0.552-0.811c-0.141-0.316-0.21-0.698-0.21-1.147
			c0-0.293,0.079-0.602,0.239-0.928c0.159-0.325,0.392-0.622,0.698-0.889c0.306-0.267,0.682-0.488,1.128-0.664
			c0.445-0.176,0.955-0.264,1.528-0.264c0.462,0,0.903,0.023,1.323,0.068c0.42,0.046,0.828,0.104,1.226,0.176l-0.313,1.484
			c-0.189-0.065-0.399-0.127-0.63-0.186c-0.231-0.059-0.468-0.109-0.708-0.151c-0.241-0.042-0.476-0.076-0.703-0.103
			c-0.229-0.026-0.43-0.039-0.605-0.039c-0.189,0-0.386,0.011-0.591,0.034c-0.205,0.023-0.373,0.07-0.503,0.142
			c-0.131,0.072-0.225,0.195-0.283,0.371s-0.088,0.387-0.088,0.635c0,0.254,0.069,0.466,0.21,0.635
			c0.14,0.169,0.323,0.316,0.552,0.439c0.228,0.124,0.488,0.238,0.781,0.342c0.293,0.104,0.592,0.217,0.898,0.337
			c0.306,0.121,0.605,0.257,0.898,0.41c0.293,0.153,0.553,0.345,0.781,0.576c0.228,0.231,0.411,0.51,0.552,0.835
			C330.313,154.936,330.384,155.33,330.384,155.792z"/>
		<path fill="#FFFFFF" d="M335.055,158.722h-2.041v-10h2.041V158.722z"/>
		<path fill="#FFFFFF" d="M348.731,158.722l-0.82-7.627l-3.594,7.627h-0.625l-3.779-7.627l-0.674,7.627h-1.182l1.025-10.068h1.895
			l3.506,7.09l3.35-7.09h1.846l1.113,10.068H348.731z"/>
		<path fill="#FFFFFF" d="M356.177,154.093l0.283-0.059c0.267-0.059,0.518-0.133,0.752-0.225c0.234-0.091,0.438-0.225,0.61-0.4
			c0.172-0.176,0.308-0.408,0.405-0.698c0.098-0.29,0.146-0.659,0.146-1.108c0-0.338-0.043-0.63-0.127-0.874
			c-0.085-0.244-0.202-0.444-0.352-0.601c-0.15-0.156-0.331-0.272-0.542-0.347c-0.212-0.075-0.448-0.112-0.708-0.112
			c-0.261,0-0.531,0.02-0.811,0.059v8.994h-2.041v-9.951c0.215-0.013,0.449-0.026,0.703-0.039c0.254-0.013,0.514-0.024,0.781-0.034
			c0.267-0.01,0.535-0.018,0.806-0.024c0.27-0.006,0.532-0.01,0.786-0.01c0.611,0,1.144,0.067,1.597,0.2
			c0.452,0.134,0.828,0.322,1.128,0.566c0.299,0.244,0.521,0.544,0.664,0.898c0.143,0.355,0.215,0.75,0.215,1.187
			c0,0.462-0.078,0.897-0.234,1.304c-0.156,0.407-0.4,0.762-0.732,1.064s-0.756,0.542-1.27,0.718
			c-0.515,0.176-1.127,0.264-1.836,0.264h-0.088L356.177,154.093z"/>
		<path fill="#FFFFFF" d="M363.143,158.722v-10h2.041v8.945h3.799l-0.098,1.055H363.143z"/>
		<path fill="#FFFFFF" d="M377.512,158.722h-6.025v-10h5.811l-0.098,1.016l-3.672,0.049v3.252l3.457,0.039l-0.098,0.928
			l-3.359,0.078v3.574l4.082,0.078L377.512,158.722z"/>
	</g>
</g>
</svg>
