<svg id="圖層_1" xmlns="http://www.w3.org/2000/svg" width="196" height="40" viewBox="0 0 196 40"><style>.st0{fill:url(#SVGID_1_)}.st1{fill:red}.st2{fill:#222}.st3{fill:#999}</style><linearGradient id="SVGID_1_" gradientUnits="userSpaceOnUse" x1="19.227" y1="39.757" x2="35.966" y2="-.243" gradientTransform="matrix(1 0 0 -1 0 39)"><stop offset="0" stop-color="#9b0000"/><stop offset=".608" stop-color="red"/></linearGradient><path class="st0" d="M24.7 0l15.6 40h-9.2L15.6 0z"/><path class="st1" d="M15.6 0L0 40h9.1L24.7 0z"/><g><path class="st2" d="M55 34v1.2h5.8v2.2c0 .3-.3.5-.6.5h-4v-1.5H55V39h5.6c.8 0 1.4-.5 1.4-1.2V34h-7zM64.1 21.3h1.4v14.1h-1.4z"/><path class="st2" d="M67.5 20.4v15.3c0 1.4-.8 1.6-1.6 1.6h-1.1l.3 1.6h.5c1.5 0 3.2-.5 3.2-2.6V20.4h-1.3zM57.1 24.5v-1.3h-1.2v1.3h-3.8l1.3-3.2h6.1l1.3 3.2h-3.7zM52.7 20L51 23.5l.2 1.4.5-.2v1.2h8.1v1.8H52v1.2h7.8V30c0 .4-.3.7-.7.7h-7l-1 8.4h1.3l.9-7h6.5c.8 0 1.5-.7 1.5-1.5v-5.8l.5.2.2-1.4-1.7-3.6h-7.6zM79.3 32.1v3.4h9.5c.8 0 1.5-.7 1.5-1.5v-4.8h-11v1.4H89v2.9c0 .3-.3.6-.7.6h-7.6v-2h-1.4zM79.3 23.4h4.6v2.5h-5.8v1.3h12.7v-1.3h-5.3v-2.5h5v-1.1h-5V20h-1.6v2.3h-4.1l.9-1.6-1.1-.3-1.9 3.5 1.1.3zM73.1 20.8h2.3v1.3h-2.3z"/><path class="st2" d="M83.3 37.4h-4.5c-2.6 0-2.4-2.2-2.4-2.2V30h-.6v-5.5h-2.7v1.4h1.5v4h-1.4v1.4h2.1v4.4c0 1.4-.8 1.6-1.6 1.6H73l.3 1.6c1.1 0 2.2-.4 2.8-1.3.6 1 1.8 1.3 2.9 1.3h12v-1.6l-7.7.1z"/><g><path class="st2" d="M115 21v1.3h4.2l-2.4 9.4-.3 1.3h7.1l.4-1.3h-5.7l2.4-9.4H131V21z"/><path class="st2" d="M129.3 28.3l.2-1.3h-7.1l-.2 1.3h5.6l-1.7 9.5H115V39h16v-1.2h-3.4z"/></g><g><path class="st2" d="M143 28.8v2.5c0 .3-.2.5-.5.5H141.1v-3h1.9zm-1.9 7.2h3.6v-1.3h-3.6V33h2.2c.6 0 1.1-.5 1.1-1.1v-4.3h-4.7v4.2h-1.9v-4.2l.8-1.6h6.2v-1.3h-5.6l1.1-2.2 2.8-.3-.1-1.2-7.1.8.1 1.2 2.8-.3-1 2.1H136V26h1.3l-.8 1.6V33h3.4v1.8h-3.5V36h3.5v1.8H136V39h9v-1.3h-3.9V36zM153 23.3v-.4H149.1l.1-1.9h-1.3l-.1 1.9h-1.7l-.1 1.2h1.7l-.8 14.9h1.3l.8-14.9h2.7V37.4l-.1.1-.1.1c-.3.3-.6.2-.6.2h-1.1l.2 1.2h1.2c.5 0 .9-.1 1.2-.4.6-.5.6-1 .6-2V23.3z"/></g><g><path class="st2" d="M109.3 22.1h-7.7l.5-1.7h-1.6l-.5 1.7h-4.9v1.4h4.5l-4.5 15.3h1.6l4.5-15.3h7.6l-.5 11.1-.1 1.5c-.1 1.2-1.3 1.1-1.3 1.1h-1.2l.3 1.5h1.7c1 0 1.9-.8 1.9-1.8l.1-1.4.6-13.5h-1v.1z"/></g><g><path class="st2" d="M193.8 38.7l.6-2.1h-1.1l-.6 2.1h-3l-.6-2.1H188l.6 2.1h-2.2v1h9.6v-1zM187 33.6v2.2h7.5c.5 0 .9-.4.9-.9v-3.1H187v1h7.2v1.6c0 .2-.2.4-.4.4h-5.5v-1.2H187zM186.8 29.4h8.9v1.1h-8.9zM182.4 27.1v-2h1.6v2h-1.6zm-2.7 0v-4.5h4.3v1.6h-2.7v2.9h-1.6zm5.4-2v-3.8h-6.5v5.8h-.6v.9h6.5v1.5h1.1v-2.4h-.5v-2zM183.9 32.6h-4.1v-1.8h4.1v1.8zm0 2.6h-4.1v-1.8h4.1v1.8zm-4.2-5.4h-1.2v9.9h1.2v-3.6h4.1v2.4c0 .1-.1.2-.2.2H182v1h2.3c.4 0 .7-.3.7-.7v-9.2h-5.3zM190.9 24.4V23h3.3v3.6c0 .3-.2.5-.5.5H192v-2.8h-1.1v.1zm0 3.8H194.3c.7 0 1.3-.6 1.3-1.3V22H191v-1h-1.1v1h-3v1h3v2.8h1.1v1.4h-2.9v-2.8h-1.3v3.8h4.1z"/></g><g><path class="st2" d="M158.7 35.6l.4-10.8h1.8l-.4 10.9-1.8-.1zm3.6-10.9h1.3v-1.3h-1.3l.1-2.3h-1.3l-.1 2.4h-1.8l.1-2.3H158l-.1 2.4h-.8v1.3h.8l-.5 12.1 3.2.2-.1 2.8h1.3l.1-2.7 1.7.1.1-1.3-1.7-.1.3-11.3zM167.2 28.8v-2.1h4.6v1.5c0 .3-.3.6-.6.6h-4zm4.6-4.9v1.7h-4.6v-1.7h4.6zm2.2 9.2v-1.3h-3.8V30h1.6c.8 0 1.4-.6 1.4-1.4v-4.9h.9v-1.3h-.9V21h-1.3v1.6h-4.6V21H166v1.6h-1v1.3h.9v6.2h2.9v1.8H165v1.3h3.8V40h1.3v-6.9h3.9zM164 38l1.1.9c.1-.1 1.6-2 2.3-3.9l-1.3-.5c-.7 1.7-2.1 3.4-2.1 3.5zm8.8-3.6l-1.2.7 2.2 3.7 1.2-.8-2.2-3.6z"/></g><g><path class="st3" d="M56.5 11.4c-.1.6-.3 1.1-.7 1.5s-1 .5-1.7.5c-.5 0-.9-.1-1.3-.3-.4-.2-.6-.6-.8-1s-.3-.9-.3-1.5V10c0-.6.1-1.1.3-1.5s.5-.8.9-1 .8-.4 1.3-.4c.7 0 1.2.2 1.6.5.4.4.6.9.7 1.5h-1c0-.4-.2-.7-.4-.9s-.5-.3-.9-.3c-.5 0-.8.2-1.1.5-.2.3-.4.8-.4 1.5v.5c0 .7.1 1.2.4 1.5s.6.5 1 .5.7-.1.9-.3c.2-.2.3-.5.4-.9h1.1v.2zM60.4 11.1h-1.2v2.3h-1v-6h2.1c.7 0 1.2.2 1.6.5s.6.8.6 1.4c0 .4-.1.7-.3 1-.2.3-.5.5-.8.6l1.4 2.5v.1h-1.1l-1.3-2.4zm-1.2-.9h1.1c.4 0 .6-.1.8-.3.2-.2.3-.4.3-.7s-.1-.6-.3-.8-.5-.3-.8-.3h-1.1v2.1zM67.8 10.7h-2.5v1.9h2.9v.8h-4v-6h3.9v.8h-2.9v1.7h2.5l.1.8zM73.2 12h-2.3l-.5 1.4h-1.1l2.3-6h.9l2.3 6h-1.1l-.5-1.4zm-2-.8H73l-1-2.5-.8 2.5zM80.1 8.2h-1.9v5.2h-1V8.2h-1.9v-.8h4.8v.8zM86.4 10.5c0 .6-.1 1.1-.3 1.6s-.5.8-.9 1-.8.4-1.3.4-.9-.1-1.3-.4-.7-.6-.9-1c-.2-.4-.3-1-.3-1.5v-.3c0-.6.1-1.1.3-1.6s.5-.8.9-1 .8-.4 1.3-.4.9.1 1.3.4c.4.2.7.6.9 1 .2.4.3 1 .3 1.5v.3zm-1.1-.3c0-.7-.1-1.2-.4-1.5-.3-.4-.6-.5-1.1-.5s-.8.2-1.1.5-.4.9-.4 1.5v.3c0 .7.1 1.2.4 1.5.3.4.6.5 1.1.5s.8-.2 1.1-.5.4-.9.4-1.6v-.2zM89.2 11.2v2.2h-1v-6h2.3c.7 0 1.2.2 1.6.5.4.4.6.8.6 1.4 0 .6-.2 1.1-.6 1.4s-.9.5-1.6.5h-1.3zm0-.9h1.3c.4 0 .7-.1.9-.3.2-.2.3-.4.3-.8 0-.3-.1-.6-.3-.8-.2-.2-.5-.3-.8-.3h-1.3l-.1 2.2z"/></g><g><path class="st3" d="M101.3 13.4h-1v-6h1v6zM108.2 13.4h-1l-2.7-4.3v4.3h-1v-6h1l2.7 4.3V7.4h1v6zM114.4 8.2h-1.9v5.2h-1V8.2h-1.9v-.8h4.8v.8zM119.5 10.7H117v1.9h2.9v.8h-4v-6h3.9v.8H117v1.7h2.5v.8zM123.8 11.1h-1.2v2.3h-1v-6h2.1c.7 0 1.2.2 1.6.5s.6.8.6 1.4c0 .4-.1.7-.3 1-.2.3-.5.5-.8.6l1.4 2.5v.1H125l-1.2-2.4zm-1.2-.9h1.1c.4 0 .6-.1.8-.3s.3-.4.3-.7-.1-.6-.3-.8-.5-.3-.8-.3h-1.1v2.1zM131 12h-2.3l-.5 1.4h-1.1l2.3-6h.9l2.3 6h-1.1L131 12zm-2-.8h1.8l-.9-2.5-.9 2.5zM138.6 11.4c-.1.6-.3 1.1-.7 1.5s-1 .5-1.7.5c-.5 0-.9-.1-1.3-.3-.4-.2-.6-.6-.8-1s-.3-.9-.3-1.5V10c0-.6.1-1.1.3-1.5s.5-.8.9-1 .8-.4 1.3-.4c.7 0 1.2.2 1.6.5.4.4.6.9.7 1.5h-1c-.1-.4-.2-.7-.4-.9s-.5-.3-.9-.3c-.5 0-.8.2-1.1.5-.2.3-.4.8-.4 1.5v.5c0 .7.1 1.2.4 1.5.2.3.6.5 1 .5s.7-.1.9-.3c.2-.2.3-.5.4-.9h1.1v.2zM144.5 8.2h-1.9v5.2h-1V8.2h-1.9v-.8h4.8v.8zM147.2 13.4h-1v-6h1v6zM151.4 12.1l1.5-4.7h1.2l-2.2 6h-1l-2.2-6h1.2l1.5 4.7zM159 10.7h-2.5v1.9h2.9v.8h-4v-6h3.9v.8h-2.9v1.7h2.5v.8h.1z"/></g><g><path class="st3" d="M168.4 7.4l1.7 4.6 1.7-4.6h1.4v6h-1v-2l.1-2.7-1.8 4.7h-.8l-1.8-4.7.1 2.7v2h-1v-6h1.4zM178.8 10.7h-2.5v1.9h2.9v.8h-4v-6h3.9v.8h-2.9v1.7h2.5v.8h.1zM180.8 13.4v-6h1.8c.5 0 1 .1 1.4.4.4.2.7.6 1 1s.3.9.3 1.5v.3c0 .6-.1 1.1-.3 1.5s-.6.8-1 1-.9.4-1.5.4l-1.7-.1zm1.1-5.2v4.3h.7c.5 0 1-.2 1.3-.5s.4-.8.5-1.5v-.3c0-.7-.1-1.2-.4-1.5s-.7-.5-1.2-.5h-.9zM188.2 13.4h-1v-6h1v6zM193.8 12h-2.3l-.5 1.4h-1.1l2.3-6h.9l2.3 6h-1.1l-.5-1.4zm-2.1-.8h1.8l-.9-2.5-.9 2.5z"/></g></g></svg>