<?xml version="1.0" encoding="UTF-8"?>
<svg id="_圖層_1" data-name="圖層_1" xmlns="http://www.w3.org/2000/svg" xmlns:xlink="http://www.w3.org/1999/xlink" version="1.1" viewBox="0 0 196 40">
  <!-- Generator: Adobe Illustrator 29.5.1, SVG Export Plug-In . SVG Version: 2.1.0 Build 141)  -->
  <defs>
    <style>
      .st0 {
        fill: url(#linear-gradient2);
      }

      .st1 {
        fill: url(#linear-gradient1);
      }

      .st2 {
        fill: url(#linear-gradient3);
      }

      .st3 {
        fill: url(#linear-gradient4);
      }

      .st4 {
        fill: #004282;
      }

      .st5 {
        fill: url(#linear-gradient);
      }

      .st6 {
        fill: url(#_新增漸層色票);
      }

      .st7 {
        fill: url(#_未命名漸層_7);
      }

      .st8 {
        fill: url(#_未命名漸層_8);
      }

      .st9 {
        fill: #999;
      }
    </style>
    <linearGradient id="linear-gradient" x1="17.84" y1="29.94" x2="16.43" y2="3.98" gradientUnits="userSpaceOnUse">
      <stop offset="0" stop-color="#0050b8"/>
      <stop offset="1" stop-color="#00ec88"/>
    </linearGradient>
    <linearGradient id="linear-gradient1" x1="32.84" y1="29.12" x2="31.42" y2="3.16" xlink:href="#linear-gradient"/>
    <linearGradient id="linear-gradient2" x1="21.95" y1="29.71" x2="20.54" y2="3.76" xlink:href="#linear-gradient"/>
    <linearGradient id="_未命名漸層_7" data-name="未命名漸層 7" x1="28.5" y1="29.35" x2="27.09" y2="3.4" gradientUnits="userSpaceOnUse">
      <stop offset="0" stop-color="#0050b8"/>
      <stop offset="1" stop-color="#00ec88"/>
    </linearGradient>
    <linearGradient id="linear-gradient3" x1="19.88" y1="29.82" x2="18.47" y2="3.87" gradientUnits="userSpaceOnUse">
      <stop offset="0" stop-color="#004282"/>
      <stop offset="1" stop-color="#008dd3"/>
    </linearGradient>
    <linearGradient id="linear-gradient4" x1="16.59" y1="30" x2="15.17" y2="4.05" xlink:href="#linear-gradient3"/>
    <linearGradient id="_未命名漸層_8" data-name="未命名漸層 8" x1="23.18" y1="29.65" x2="21.76" y2="3.69" gradientUnits="userSpaceOnUse">
      <stop offset="0" stop-color="#004282"/>
      <stop offset="1" stop-color="#008dd3"/>
    </linearGradient>
    <linearGradient id="_新增漸層色票" data-name="新增漸層色票" x1="26.47" y1="29.47" x2="25.06" y2="3.51" gradientUnits="userSpaceOnUse">
      <stop offset="0" stop-color="#004282"/>
      <stop offset="1" stop-color="#008dd3"/>
    </linearGradient>
  </defs>
  <g>
    <polygon class="st5" points="22.82 1.51 13.09 22.28 12.7 23.12 10.94 23.12 11.31 22.28 20.46 1.51 22.82 1.51"/>
    <polygon class="st1" points="37 1.51 28.76 14.47 28.39 15.04 26.41 15.04 26.76 14.47 34.63 1.51 37 1.51"/>
    <polygon class="st0" points="27.55 1.51 20.76 14.47 16.22 23.12 14.46 23.12 14.87 22.28 25.18 1.51 27.55 1.51"/>
    <polygon class="st7" points="32.27 1.51 24.76 14.47 24.43 15.04 22.44 15.04 22.76 14.47 29.91 1.51 32.27 1.51"/>
    <g>
      <polygon class="st2" points="27.37 16.74 13.5 38.49 12.16 38.49 25.41 16.74 27.37 16.74"/>
      <polygon class="st3" points="23.46 16.74 10.81 38.49 9.46 38.49 21.5 16.74 23.46 16.74"/>
      <polygon class="st8" points="31.28 16.74 16.2 38.49 14.85 38.49 29.32 16.74 31.28 16.74"/>
      <polygon class="st6" points="35.19 16.74 18.9 38.49 17.55 38.49 33.23 16.74 35.19 16.74"/>
    </g>
  </g>
  <g>
    <path class="st4" d="M54.3,11.08h-4.36v4.47h-2.71V4.32h7.51v2.09h-4.8v2.58h4.36v2.08Z"/>
    <path class="st4" d="M58.74,15.55h-2.7V4.32h2.7v11.22Z"/>
    <path class="st4" d="M70,15.55h-2.69l-3.98-6.98v6.98h-2.71V4.32h2.71l3.97,6.98v-6.98h2.7v11.22Z"/>
    <path class="st4" d="M78.67,10.78h-4.25v2.68h5.02v2.08h-7.73V4.32h7.75v2.09h-5.04v2.37h4.25v2Z"/>
    <path class="st4" d="M87.17,11.74v3.81h-2.71V4.32h4.48c.86,0,1.62.16,2.28.47s1.17.77,1.53,1.35.54,1.24.54,1.98c0,1.09-.39,1.97-1.17,2.62-.78.65-1.86.98-3.23.98h-1.73ZM87.17,9.65h1.77c.52,0,.92-.13,1.2-.39s.41-.63.41-1.11c0-.52-.14-.94-.42-1.26-.28-.31-.67-.47-1.16-.48h-1.8v3.24Z"/>
    <path class="st4" d="M104.24,10.17c0,1.09-.2,2.06-.61,2.91-.41.84-.98,1.49-1.73,1.95-.75.45-1.6.68-2.55.68s-1.8-.22-2.54-.66c-.74-.44-1.32-1.07-1.73-1.88s-.63-1.75-.65-2.81v-.63c0-1.1.2-2.07.6-2.91.4-.84.98-1.49,1.73-1.95.75-.46,1.61-.69,2.57-.69s1.8.23,2.54.68,1.32,1.1,1.74,1.93c.41.83.62,1.79.63,2.87v.52ZM101.49,9.7c0-1.11-.19-1.96-.56-2.54-.37-.58-.91-.87-1.6-.87-1.36,0-2.07,1.02-2.15,3.05v.82c0,1.1.17,1.94.54,2.54s.91.89,1.63.89,1.21-.29,1.58-.87c.37-.58.56-1.42.56-2.5v-.52Z"/>
    <path class="st4" d="M114.33,11.36l1.29-7.04h2.68l-2.38,11.22h-2.8l-1.5-6.4-1.47,6.4h-2.8l-2.39-11.22h2.69l1.29,7.04,1.54-7.04h2.3l1.56,7.04Z"/>
    <path class="st4" d="M126.31,10.78h-4.25v2.68h5.02v2.08h-7.73V4.32h7.75v2.09h-5.04v2.37h4.25v2Z"/>
    <path class="st4" d="M132.36,11.58h-1.46v3.97h-2.71V4.32h4.42c1.33,0,2.37.29,3.12.89s1.12,1.42,1.12,2.5c0,.78-.16,1.43-.47,1.94-.32.51-.81.93-1.48,1.25l2.34,4.53v.12h-2.9l-1.98-3.97ZM130.89,9.5h1.71c.51,0,.9-.13,1.16-.41.26-.27.39-.65.39-1.13s-.13-.86-.39-1.14c-.26-.28-.65-.41-1.16-.41h-1.71v3.09Z"/>
  </g>
  <g>
    <path class="st4" d="M53.13,27.47c-.45-.07-.69-.09-1.39-.09h-.25c.39.73,1.3,1.78,2.15,2.49-.41.93-.61,1.48-.89,2.48-.66-.69-.94-1.14-1.35-2.05.02.39.05,1.19.05,1.58v2.15c0,.85.02,1.35.11,1.85h-2.67c.07-.52.11-1.03.11-1.85v-1.23q0-.62.05-1.53c-.5,1.25-.85,1.87-1.55,2.71-.28-1.1-.61-1.91-1.05-2.67.85-.8,1.83-2.49,2.28-3.93h-.55c-.73,0-1.02.02-1.41.09v-2.6c.32.05.48.05,1.35.05h.85v-4.18c0-.73-.04-1.23-.09-1.64h2.64c-.05.34-.07.84-.07,1.62v2.97c.36-1.25.52-2.14.64-3.53l1.39.57v-.61c.57.07,1.1.11,1.94.11h1.3c0-.48-.02-.71-.11-1.09h2.72c-.07.41-.09.61-.09,1.09h1.82c.8,0,1.32-.04,1.89-.11v2.05c-.53-.05-.96-.07-1.75-.07h-1.96v.5h1.83c.73,0,.93,0,1.3-.05v1.67c-.07-.02-.12-.02-.16-.02-.28-.04-.57-.04-1.19-.04h-1.78v.52h2.3c.93,0,1.26-.02,1.78-.09v2.05c-.53-.07-.89-.09-1.78-.09h-6.7c-.87,0-1.25.02-1.73.09v.82ZM48.14,20.04c.37,1.32.62,2.48.78,3.72l-1.58.73c-.25-1.53-.45-2.33-.87-3.79l1.67-.66ZM53.07,24.6c.36.07.75.09,1.78.09h1.87v-.52h-1.53c-.68,0-.93.02-1.35.05v-1.67c.43.05.69.05,1.39.05h1.5v-.5h-1.51c-.93,0-1.23.02-1.73.07-.18.85-.32,1.32-.64,2.26l-1.39-.69v1.17h.29c.59,0,1.1-.02,1.34-.04v-.29ZM56.22,33.75c0,.89.02,1.5.09,2.14h-2.69c.07-.59.11-1.03.11-2.14v-5.29c0-.53-.02-.98-.05-1.48.39.04.62.04,1.19.04h6.09c.73,0,1.19-.02,1.58-.05-.05.43-.07.94-.07,1.76v5c0,1.64-.61,2.07-2.9,2.07-.25,0-.3,0-1.16-.04-.11-.94-.23-1.42-.53-2.19.71.09,1.01.12,1.41.12.55,0,.66-.07.66-.39v-.37h-3.72v.82ZM59.94,29.3v-.52h-3.72v.52h3.72ZM59.94,31.37v-.53h-3.72v.53h3.72Z"/>
    <path class="st4" d="M77.54,22.57c1.14,0,1.82-.02,2.49-.09-.07.71-.09.96-.09,1.87-.05,3.9-.25,7.26-.5,8.74-.16.91-.59,1.62-1.16,1.94-.59.32-1.41.48-2.58.48-.64,0-1.14-.02-2.28-.11-.14-1.26-.32-2.05-.71-3.01,1.1.16,1.75.23,2.39.23.94,0,1.28-.12,1.44-.53.29-.71.46-3.21.48-6.77h-4.1c-.37,3.15-1.09,5.16-2.44,6.98-.98,1.3-2.35,2.44-4.31,3.53-.66-1.18-1.18-1.87-2.05-2.69,2.21-.98,3.63-2.12,4.54-3.63.71-1.16,1.07-2.3,1.28-4.18h-2.74c-.8,0-1.55.04-2.23.12v-3.01c.75.09,1.41.12,2.31.12h2.81v-1.03c0-1.05-.04-1.64-.12-2.19h3.35q-.09.53-.16,2.62c0,.21,0,.27-.02.61h4.38Z"/>
    <path class="st4" d="M88.2,26.53c.28.04.57.05.89.07-.53-.57-.89-.87-1.69-1.42.32-.2.43-.27.68-.48-.21-.02-.32-.02-.5-.02h-.94v1.94q.62-.18,1.19-.36v2.47l-1.19.37v4.61c0,1.58-.71,2.1-2.87,2.1-.37,0-.68-.02-1.3-.04-.09-1.14-.2-1.66-.57-2.6.77.07,1.23.11,1.64.11.36,0,.45-.11.45-.55v-2.88c-.43.11-.53.14-.71.18-.64.16-.71.18-1,.27l-.43-2.78q.55-.04,2.14-.32v-2.53h-.68c-.43,0-.8.02-1.26.07v-2.62c.44.07.75.09,1.28.09h.66v-1.23c0-.93-.02-1.25-.09-1.82h2.83c-.07.53-.09.89-.09,1.82v1.23h.96c.29,0,.41,0,.73-.05v2.3c.75-.85.98-1.8.98-4.04,0-.34-.02-.69-.05-.93.27.04.8.07,1.1.07h4.34c.34,0,.64-.02,1.09-.07-.04.39-.05.64-.05.96v2.87c0,.2.09.25.34.25.16,0,.3-.04.34-.07.11-.09.16-.52.16-1.41v-.93c.85.5,1.35.71,2.17.96-.11,1.96-.18,2.46-.43,2.94-.37.73-.94.91-2.74.91-.98,0-1.44-.05-1.76-.2-.52-.21-.68-.57-.68-1.51v-2.17h-1.28c-.09,2.1-.62,3.42-1.85,4.5h5.4c.45,0,.77-.02,1.07-.07l1.42,1.55c-.18.23-.21.28-.45.68-.91,1.53-1.48,2.31-2.4,3.28,1.18.53,2.01.77,3.83,1.05-.52.82-.89,1.58-1.34,2.79-2.31-.62-3.47-1.09-4.84-1.96-1.48.94-2.81,1.5-4.72,1.98-.37-1.03-.68-1.6-1.32-2.56,1.55-.27,2.55-.59,3.83-1.23-.69-.73-.98-1.1-1.83-2.32l1.8-.77h-.84c-.64,0-.96.02-1.41.07v-2.56ZM91.28,29.02c.45.68.82,1.09,1.5,1.64.62-.53.93-.87,1.46-1.64h-2.96Z"/>
    <path class="st4" d="M107.29,22.13c-.61.62-1.03.98-1.94,1.57-.66-.84-1.03-1.19-1.64-1.66,1.35-.82,2.56-2.1,2.92-3.08l2.74.34c-.12.21-.16.25-.28.45-.07.14-.09.18-.21.36h4.68c.62,0,.98-.02,1.28-.05l1.42,1.09q-.12.18-.69,1.1c-.34.55-.64.93-1.23,1.64-.82-.39-1.42-.62-2.32-.91.46-.36.64-.53.91-.84h-1.83c.52,1.53,2.39,2.35,5.4,2.39-.43.87-.66,1.44-.89,2.35-.61-.07-.8-.09-1.21-.18v4.42c0,1.09.02,1.57.07,1.94-.45-.02-.93-.04-1.78-.04h-.69c1.25.52,2.46.75,4.54.85-.62.68-.96,1.14-1.53,2.12-2.69-.46-3.99-.93-6.14-2.17l1.48-.8h-4.77l1.58.8c-2.08,1.26-3.19,1.67-5.96,2.17-.52-.86-.84-1.3-1.51-2.01,2.08-.2,3.29-.46,4.42-.96h-.64c-.89,0-1.32.02-1.8.04.04-.41.07-.94.07-1.75v-3.72c0-.69-.02-1.26-.05-1.58q-.77.34-1.05.48l-.93-2.48c1.1-.21,2.87-.87,4.22-1.57l.69,1.96c2.24-.41,3.42-1.1,3.77-2.26h-1.09ZM102.8,22.7c-1.12-.86-1.71-1.21-2.83-1.75l1.6-1.85c1.16.52,1.78.85,2.92,1.58l-1.69,2.01ZM104.67,25.83c-.2-.36-.34-.59-.62-.96-.75.37-1.1.55-1.98.94.66.02.71.02,1.34.02h1.26ZM104.34,27.77h7.39v-.46h-7.39v.46ZM104.34,29.55h7.39v-.48h-7.39v.48ZM104.34,31.33h7.39v-.48h-7.39v.48ZM111.83,25.83c-.89-.48-1.41-.91-2.05-1.78-.53.82-1.16,1.3-2.3,1.78h4.35Z"/>
    <path class="st4" d="M123.53,33.42c0,1,.04,1.78.11,2.42h-2.92c.07-.61.11-1.35.11-2.46v-4.93c-.61.59-1.01.94-1.96,1.67-.55-1.16-.94-1.76-1.6-2.51,2.14-1.37,3.58-2.76,4.72-4.52h-1.92c-.96,0-1.64.04-2.28.11v-2.69c.64.07,1.32.11,2.28.11h3.13c.23-.62.36-1.09.43-1.62l3.04.3c-.07.18-.25.62-.52,1.32h5.64c1,0,1.67-.04,2.28-.11v2.69c-.66-.07-1.33-.11-2.28-.11h-6.78c-.18.32-.32.55-.57.96h5.77c.89,0,1.35-.02,1.85-.05-.07.53-.09,1.07-.09,1.98v7.71c0,.87-.29,1.46-.89,1.78-.46.23-1.16.34-2.35.34-.46,0-.82-.02-1.62-.05-.09-1.03-.23-1.62-.64-2.6.89.11,1.67.18,2.12.18.55,0,.68-.09.68-.5v-.62h-5.73v1.21ZM129.26,27.17v-.78h-5.73v.78h5.73ZM129.26,30.09v-.8h-5.73v.8h5.73Z"/>
    <path class="st4" d="M142.46,21.59s-.02.04-.05.14c0,.02-.02.05-.04.12-.27.89-.87,2.44-1.48,3.69,1.07,1.71,1.35,2.55,1.35,3.94,0,1-.46,1.82-1.23,2.19-.48.21-1.14.34-2,.36-.05-1.28-.14-1.75-.46-2.56.21.04.32.05.48.05.54,0,.68-.12.68-.59,0-.78-.21-1.62-.61-2.32-.14-.27-.21-.37-.59-.87v7.67c0,.87.04,1.64.09,2.42h-2.81c.07-.59.11-1.46.11-2.42v-11.91c0-.43-.02-1.09-.07-1.96.39.05.68.07,1.41.07h2.78c.82,0,1.1-.02,1.35-.09l1.09,1.5q-.02-.71-.07-1.42c.44.05.78.07,1.67.07h5.61c.86,0,1.07-.02,1.6-.07-.05.36-.07.93-.07,2v4.5c0,.93.02,1.28.07,1.99q-.43-.02-.84-.04l1.8,1.46c-.09.07-.14.11-.91.8-.36.32-.93.78-1.42,1.14.77.84,1.42,1.34,2.48,1.89-.59.78-.93,1.42-1.35,2.62-.87-.52-1.23-.78-1.82-1.33-.62-.55-1.07-1.05-1.48-1.62v1.33c-1.37.37-3.46.87-4.72,1.12-1.19.23-1.64.34-1.94.45l-.43-2.81c.36,0,.75-.05,1.82-.2v-11.31ZM138.52,25.49c.59-1.21.82-1.85,1.25-3.44h-1.25v3.44ZM145.08,22.84h3.53v-.8h-3.53v.8ZM145.08,25.85h3.53v-.87h-3.53v.87ZM145.08,32.42c.73-.14,1.35-.29,1.99-.46-.64-1.18-1-2.26-1.26-3.9h-.73v4.36ZM148.26,28.06c.11.62.18.87.36,1.32.5-.39,1.16-1.02,1.41-1.32h-1.76Z"/>
    <path class="st4" d="M160.87,20.45c-.12.18-.28.46-.48.89-.62,1.35-1.75,3.04-2.9,4.42-.89,1.05-1.62,1.76-2.81,2.72-.62-1.14-1.07-1.78-1.78-2.6,1.8-1.23,3.12-2.62,4.15-4.4.52-.89.78-1.51.91-2.14l2.92,1.1ZM166.68,35.98c-.45-.94-.57-1.21-.91-1.91-3.13.52-5.77.78-10.52,1.05-.34.02-.66.05-1,.11l-.43-3.04c.37.04.69.05,1.3.05h.96c1.02-1.75,1.82-3.33,2.51-4.93.73-1.62.89-2.12,1.09-3.04l3.19.78c-.12.21-.14.25-.27.57-.96,2.28-2.33,5.02-3.26,6.5,2.51-.12,3.81-.23,5.11-.43-.59-1-1.28-1.96-1.89-2.71l2.4-1.32c1.78,2.35,3.19,4.54,4.36,6.8l-2.65,1.51ZM164.84,19.35c.23.91,1.05,2.39,1.92,3.47.96,1.19,1.98,2.07,3.4,2.94-.77.96-1.16,1.57-1.75,2.72-1.73-1.34-2.85-2.49-3.99-4.08-.89-1.25-1.28-1.92-2.05-3.65q-.09-.2-.16-.32l2.62-1.09Z"/>
    <path class="st4" d="M186.39,33.2c0,2.1-.64,2.55-3.76,2.55-.45,0-.93-.02-1.62-.05-.21-1.16-.37-1.69-.82-2.78,1.07.12,1.91.18,2.72.18.53,0,.75-.14.75-.53v-10.36h-10.06c-1.28,0-1.8.02-2.44.09v-2.71c.59.09,1.14.11,2.44.11h10.86c.84,0,1.39-.02,2.01-.09-.07.69-.09,1.12-.09,1.96v11.65ZM171.8,22.98c.46.05.77.07,1.55.07h7.71c.8,0,1.12-.02,1.57-.07v2.6c-.45-.07-.8-.09-1.55-.09h-7.73c-.77,0-1.1.02-1.55.09v-2.6ZM181.88,30.94c0,.86.02,1.26.05,1.73-.53-.04-.93-.05-1.82-.05h-4.81v1.41h-2.76c.07-.55.09-1.1.09-2.01v-4.04c0-.66-.02-1.19-.09-1.69.48.04.94.05,1.73.05h5.79c.94,0,1.41-.02,1.87-.05-.04.46-.05.87-.05,1.73v2.94ZM175.33,30.18h3.92v-1.44h-3.92v1.44Z"/>
  </g>
  <g>
    <path class="st9" d="M141.09,9.41h-1.18v-4.9h1.18v4.9Z"/>
    <path class="st9" d="M146,9.41h-1.17l-1.74-3.05v3.05h-1.18v-4.9h1.18l1.73,3.05v-3.05h1.18v4.9Z"/>
    <path class="st9" d="M148.65,8.07l.98-3.57h1.32l-1.65,4.9h-1.29l-1.63-4.9h1.31l.97,3.57Z"/>
    <path class="st9" d="M154.34,7.33h-1.86v1.17h2.19v.91h-3.38v-4.9h3.38v.91h-2.2v1.03h1.86v.88Z"/>
    <path class="st9" d="M157.68,8.1c0-.17-.06-.31-.18-.4-.12-.1-.34-.2-.64-.3s-.56-.2-.75-.3c-.63-.31-.95-.74-.95-1.29,0-.27.08-.51.24-.72.16-.21.38-.37.67-.48.29-.12.62-.17.98-.17s.67.06.95.19.5.3.65.54c.16.23.23.5.23.8h-1.18c0-.2-.06-.35-.18-.46s-.29-.17-.5-.17-.38.05-.5.14c-.12.09-.18.21-.18.35,0,.13.07.24.2.34s.37.21.71.32c.34.11.62.23.83.35.53.31.79.73.79,1.26,0,.43-.16.76-.48,1.01-.32.24-.77.37-1.33.37-.4,0-.76-.07-1.08-.21-.32-.14-.56-.34-.73-.59-.16-.25-.24-.53-.24-.86h1.18c0,.26.07.46.2.58s.36.19.66.19c.2,0,.35-.04.46-.13.11-.08.17-.2.17-.35Z"/>
    <path class="st9" d="M163.31,5.42h-1.47v3.99h-1.18v-3.99h-1.44v-.91h4.09v.91Z"/>
    <path class="st9" d="M165.36,4.51l1.09,3.41,1.09-3.41h1.55v4.9h-1.18v-1.14l.11-2.34-1.18,3.49h-.78l-1.19-3.49.11,2.35v1.14h-1.18v-4.9h1.55Z"/>
    <path class="st9" d="M172.89,7.33h-1.86v1.17h2.19v.91h-3.38v-4.9h3.38v.91h-2.2v1.03h1.86v.88Z"/>
    <path class="st9" d="M177.8,9.41h-1.17l-1.74-3.05v3.05h-1.18v-4.9h1.18l1.73,3.05v-3.05h1.18v4.9Z"/>
    <path class="st9" d="M182.39,5.42h-1.47v3.99h-1.18v-3.99h-1.44v-.91h4.09v.91Z"/>
    <path class="st9" d="M185.36,8.1c0-.17-.06-.31-.18-.4-.12-.1-.34-.2-.64-.3s-.56-.2-.75-.3c-.63-.31-.95-.74-.95-1.29,0-.27.08-.51.24-.72.16-.21.38-.37.67-.48.29-.12.62-.17.98-.17s.67.06.95.19.5.3.65.54c.16.23.23.5.23.8h-1.18c0-.2-.06-.35-.18-.46s-.29-.17-.5-.17-.38.05-.5.14c-.12.09-.18.21-.18.35,0,.13.07.24.2.34s.37.21.71.32c.34.11.62.23.83.35.53.31.79.73.79,1.26,0,.43-.16.76-.48,1.01-.32.24-.77.37-1.33.37-.4,0-.76-.07-1.08-.21-.32-.14-.56-.34-.73-.59-.16-.25-.24-.53-.24-.86h1.18c0,.26.07.46.2.58s.36.19.66.19c.2,0,.35-.04.46-.13.11-.08.17-.2.17-.35Z"/>
    <path class="st9" d="M141.01,14.64h2.06v.91h-3.24v-4.9h1.18v3.99Z"/>
    <path class="st9" d="M144.82,15.55h-1.18v-4.9h1.18v4.9Z"/>
    <path class="st9" d="M147.19,10.65l1.09,3.41,1.09-3.41h1.55v4.9h-1.18v-1.14l.11-2.34-1.18,3.49h-.78l-1.19-3.49.11,2.35v1.14h-1.18v-4.9h1.55Z"/>
    <path class="st9" d="M152.94,15.55h-1.18v-4.9h1.18v4.9Z"/>
    <path class="st9" d="M157.61,11.56h-1.47v3.99h-1.18v-3.99h-1.44v-.91h4.09v.91Z"/>
    <path class="st9" d="M161.14,13.47h-1.86v1.17h2.19v.91h-3.38v-4.9h3.38v.91h-2.2v1.03h1.86v.88Z"/>
    <path class="st9" d="M161.96,15.55v-4.9h1.58c.43,0,.82.1,1.17.29.35.2.62.47.81.83s.29.76.29,1.2v.23c0,.45-.09.85-.28,1.21-.19.36-.46.63-.8.83-.34.2-.73.3-1.15.3h-1.61ZM163.14,11.56v3.08h.41c.34,0,.6-.12.78-.36s.27-.6.27-1.08v-.21c0-.47-.09-.83-.27-1.07-.18-.24-.45-.36-.79-.36h-.4Z"/>
  </g>
</svg>