<?xml version="1.0" encoding="UTF-8"?>
<svg xmlns="http://www.w3.org/2000/svg" xmlns:xlink="http://www.w3.org/1999/xlink" version="1.1" viewBox="0 0 1920 780">
  <!-- Generator: Adobe Illustrator 29.1.0, SVG Export Plug-In . SVG Version: 2.1.0 Build 142)  -->
  <defs>
    <style>
      .st0, .st1, .st2 {
        fill: none;
      }

      .st3 {
        fill: url(#linear-gradient1);
      }

      .st4 {
        fill: url(#linear-gradient4);
        mix-blend-mode: screen;
      }

      .st5 {
        fill: url(#linear-gradient6);
        opacity: .8;
      }

      .st1, .st2 {
        stroke: #fff;
        stroke-miterlimit: 10;
      }

      .st6 {
        fill: url(#linear-gradient2);
        mix-blend-mode: color-burn;
      }

      .st7 {
        fill: url(#linear-gradient);
      }

      .st8 {
        isolation: isolate;
      }

      .st9 {
        clip-path: url(#clippath-1);
      }

      .st10 {
        clip-path: url(#clippath-3);
      }

      .st11 {
        clip-path: url(#clippath-2);
      }

      .st12 {
        fill: url(#radial-gradient);
        mix-blend-mode: lighten;
      }

      .st13 {
        fill: url(#linear-gradient5);
        mix-blend-mode: multiply;
        opacity: .7;
      }

      .st2, .st14, .st15, .st16 {
        mix-blend-mode: overlay;
      }

      .st15 {
        fill: url(#linear-gradient3);
        opacity: .6;
      }

      .st16 {
        fill: url(#linear-gradient7);
      }

      .st17 {
        clip-path: url(#clippath);
      }

      .st18 {
        fill: url(#radial-gradient1);
        mix-blend-mode: color;
      }
    </style>
    <linearGradient id="linear-gradient" x1="145.7" y1="1078.8" x2="1774.3" y2="-549.8" gradientUnits="userSpaceOnUse">
      <stop offset="0" stop-color="#8f19a6"/>
      <stop offset=".1" stop-color="#8428a7"/>
      <stop offset=".3" stop-color="#6851a9"/>
      <stop offset=".6" stop-color="#3a93ae"/>
      <stop offset="1" stop-color="#00e9b4"/>
    </linearGradient>
    <clipPath id="clippath">
      <rect class="st0" x="-17.2" y="-387" width="1954.4" height="1302.9"/>
    </clipPath>
    <radialGradient id="radial-gradient" cx="2479.9" cy="-421.9" fx="2479.9" fy="-421.9" r="1297.4" gradientTransform="translate(350.8) scale(.7 1)" gradientUnits="userSpaceOnUse">
      <stop offset="0" stop-color="#00e9b4"/>
      <stop offset="0" stop-color="#00e9b4" stop-opacity=".9"/>
      <stop offset=".3" stop-color="#00e9b4" stop-opacity=".6"/>
      <stop offset=".6" stop-color="#00e9b4" stop-opacity=".3"/>
      <stop offset=".8" stop-color="#00e9b4" stop-opacity=".1"/>
      <stop offset=".9" stop-color="#00e9b4" stop-opacity="0"/>
      <stop offset="1" stop-color="#00e9b4" stop-opacity="0"/>
    </radialGradient>
    <radialGradient id="radial-gradient1" cx="247.2" cy="903.1" fx="247.2" fy="903.1" r="989.1" gradientTransform="translate(-403.2) scale(1.5 1)" gradientUnits="userSpaceOnUse">
      <stop offset="0" stop-color="#ff3e83"/>
      <stop offset=".3" stop-color="#ff3e83" stop-opacity=".7"/>
      <stop offset=".5" stop-color="#ff3e83" stop-opacity=".4"/>
      <stop offset=".8" stop-color="#ff3e83" stop-opacity=".2"/>
      <stop offset=".9" stop-color="#ff3e83" stop-opacity="0"/>
      <stop offset="1" stop-color="#ff3e83" stop-opacity="0"/>
    </radialGradient>
    <clipPath id="clippath-1">
      <rect class="st0" x="-17.2" y="-387" width="1954.4" height="1302.9"/>
    </clipPath>
    <linearGradient id="linear-gradient1" x1="384.3" y1="602.8" x2="1118.1" y2="602.8" gradientTransform="translate(2175.3 582.3) rotate(166.3)" gradientUnits="userSpaceOnUse">
      <stop offset="0" stop-color="#00e9b4"/>
      <stop offset="0" stop-color="#00e9b4" stop-opacity=".9"/>
      <stop offset=".3" stop-color="#00e9b4" stop-opacity=".6"/>
      <stop offset=".6" stop-color="#00e9b4" stop-opacity=".3"/>
      <stop offset=".8" stop-color="#00e9b4" stop-opacity=".1"/>
      <stop offset=".9" stop-color="#00e9b4" stop-opacity="0"/>
      <stop offset="1" stop-color="#00e9b4" stop-opacity="0"/>
    </linearGradient>
    <linearGradient id="linear-gradient2" x1="1904.5" y1="1716.1" x2="2351.4" y2="1495.2" gradientTransform="translate(173.4 1221.8) rotate(-76.7)" gradientUnits="userSpaceOnUse">
      <stop offset="0" stop-color="#ff80ad" stop-opacity="0"/>
      <stop offset="0" stop-color="#ff80ad" stop-opacity="0"/>
      <stop offset=".2" stop-color="#ff80ad" stop-opacity=".1"/>
      <stop offset=".4" stop-color="#ff80ad" stop-opacity=".3"/>
      <stop offset=".6" stop-color="#ff80ad" stop-opacity=".5"/>
      <stop offset=".9" stop-color="#ff80ad" stop-opacity=".8"/>
      <stop offset="1" stop-color="#ff80ad"/>
    </linearGradient>
    <linearGradient id="linear-gradient3" x1="628.1" y1="679.4" x2="896.3" y2="546.8" gradientTransform="matrix(1,0,0,1,0,0)" xlink:href="#linear-gradient2"/>
    <linearGradient id="linear-gradient4" x1="320.3" y1="827" x2="48.5" y2="-307.9" gradientTransform="translate(-67.1 157.4) rotate(-11.2)" gradientUnits="userSpaceOnUse">
      <stop offset="0" stop-color="#8f19a6"/>
      <stop offset=".2" stop-color="#8f19a6" stop-opacity=".8"/>
      <stop offset=".4" stop-color="#8f19a6" stop-opacity=".5"/>
      <stop offset=".7" stop-color="#8f19a6" stop-opacity=".2"/>
      <stop offset=".9" stop-color="#8f19a6" stop-opacity="0"/>
      <stop offset="1" stop-color="#8f19a6" stop-opacity="0"/>
    </linearGradient>
    <linearGradient id="linear-gradient5" x1="1469.2" y1="-319.2" x2="1197.4" y2="-1454.1" gradientTransform="translate(907.7 -401.3) rotate(53.6)" gradientUnits="userSpaceOnUse">
      <stop offset="0" stop-color="#00c6db"/>
      <stop offset="0" stop-color="#00c6db" stop-opacity=".9"/>
      <stop offset=".3" stop-color="#00c6db" stop-opacity=".6"/>
      <stop offset=".5" stop-color="#00c6db" stop-opacity=".3"/>
      <stop offset=".7" stop-color="#00c6db" stop-opacity=".2"/>
      <stop offset=".9" stop-color="#00c6db" stop-opacity="0"/>
      <stop offset="1" stop-color="#00c6db" stop-opacity="0"/>
    </linearGradient>
    <linearGradient id="linear-gradient6" x1="1259.8" y1="1727.7" x2="988" y2="592.8" gradientTransform="translate(907.7 -401.3) rotate(53.6)" xlink:href="#linear-gradient2"/>
    <linearGradient id="linear-gradient7" x1="877.7" y1="1042.4" x2="1280.7" y2="843.2" gradientTransform="translate(170.5 1277.6) rotate(-63)" xlink:href="#linear-gradient5"/>
    <clipPath id="clippath-2">
      <path class="st0" d="M1895.1,449.2c5.4,101.9-175.8,239.8-339.3,160.9-107.7-52-132.1-120.1-153.4-225.3-53.4-263.8,104.7-393.8,205.5-181.3,56.6,119.3,280.1,112.7,287.2,245.7Z"/>
    </clipPath>
    <clipPath id="clippath-3">
      <path class="st0" d="M855.1,581.7c19.9,144.9-21.9,238.8-214.4,247.4-134.1,6-140.5,235.4,49.8,320.6,190.3,85.2,414.9-60.2,434.5-277.1,19.5-216.9-295.2-475-269.9-290.9Z"/>
    </clipPath>
  </defs>
  <g class="st8">
    <g id="_图层_2" data-name="图层_2">
      <g>
        <g>
          <rect class="st7" x="-17.2" y="-387" width="1954.4" height="1302.9"/>
          <g class="st17">
            <g>
              <ellipse class="st12" cx="2092.9" cy="-421.9" rx="911.4" ry="1297.3"/>
              <ellipse class="st18" cx="-25.1" cy="903.1" rx="1513" ry="989.1"/>
            </g>
          </g>
        </g>
        <g class="st9">
          <g>
            <path class="st3" d="M1208.2,480.8c-21.5-180.9-15.3-319.3,272.6-303.2,166.9,9.4,249-221.2,13.9-331.6S976.8-88.5,947.5,181.1c-29.3,269.6,288.1,529.6,260.8,299.7Z"/>
            <path class="st6" d="M2343.8-431.2c30.6,149.3,306.6,24.6,119.6,124.5-187,99.8-396.8,71.8-468.6-62.7-71.8-134.5-79.4-325.2,127.6-371,204.4-45.3,204.4,226.5,221.4,309.2Z"/>
            <path class="st15" d="M940.6,623.7c0,82.8-70.8,150-158.2,150s-158.2-67.1-158.2-150,35.3-180.7,122.7-180.7,193.8,97.8,193.8,180.7Z"/>
            <path class="st4" d="M-370.9,363.6C-218.5,90.2,126.2,259.9,176.1,35c49.7-224.1,210.9-333.3,354.1-258.8,320.4,166.7,151,475.5-259.3,491.3C-60.2,280.3-93.1,620.7-62.4,926c30.7,305.3-538-150.4-308.5-562.4Z"/>
            <path class="st13" d="M2196.1-343.7c312.3,21.7,305.1,405.9,530,355.5,224-50.2,391.3,49.3,384.7,210.6-14.7,360.9-366.2,338.8-555-26-152.3-294.3-474.3-179.4-737.7-21.9-263.3,157.5-92.5-550.9,378-518.2Z"/>
            <path class="st5" d="M424.2,702c312.3,21.7,305.1,405.9,530,355.5,224-50.2,391.3,49.3,384.7,210.6-14.7,360.9-366.2,338.8-555-26-152.3-294.3-474.3-179.4-737.7-21.9-263.3,157.5-92.5-550.9,378-518.2Z"/>
            <path class="st16" d="M1636.7,513c110.9,56.5,152.4,197.2,92.7,314.2-59.6,117-197.9,166-308.7,109.4-110.9-56.5-217.7-170.6-158.1-287.5,59.6-117,263.2-192.6,374.1-136.1Z"/>
            <g class="st14">
              <g class="st11">
                <g>
                  <line class="st1" x1="1316.2" y1="1119.2" x2="1929.6" y2="501.6"/>
                  <line class="st1" x1="1314.8" y1="1096.5" x2="1928.2" y2="478.9"/>
                  <line class="st1" x1="1313.4" y1="1073.8" x2="1926.8" y2="456.2"/>
                  <line class="st1" x1="1312" y1="1051.1" x2="1925.4" y2="433.5"/>
                  <line class="st1" x1="1310.6" y1="1028.4" x2="1924" y2="410.9"/>
                  <line class="st1" x1="1309.2" y1="1005.7" x2="1922.5" y2="388.2"/>
                  <line class="st1" x1="1307.8" y1="983" x2="1921.1" y2="365.5"/>
                  <line class="st1" x1="1306.3" y1="960.4" x2="1919.7" y2="342.8"/>
                  <line class="st1" x1="1304.9" y1="937.7" x2="1918.3" y2="320.1"/>
                  <line class="st1" x1="1303.5" y1="915" x2="1916.9" y2="297.4"/>
                  <line class="st1" x1="1302.1" y1="892.3" x2="1915.5" y2="274.7"/>
                  <line class="st1" x1="1300.7" y1="869.6" x2="1914.1" y2="252"/>
                  <line class="st1" x1="1299.3" y1="846.9" x2="1912.7" y2="229.4"/>
                  <line class="st1" x1="1297.9" y1="824.2" x2="1911.3" y2="206.7"/>
                  <line class="st1" x1="1296.5" y1="801.6" x2="1909.9" y2="184"/>
                  <line class="st1" x1="1295.1" y1="778.9" x2="1908.4" y2="161.3"/>
                  <line class="st1" x1="1293.7" y1="756.2" x2="1907" y2="138.6"/>
                  <line class="st1" x1="1292.2" y1="733.5" x2="1905.6" y2="115.9"/>
                  <line class="st1" x1="1290.8" y1="710.8" x2="1904.2" y2="93.2"/>
                  <line class="st1" x1="1289.4" y1="688.1" x2="1902.8" y2="70.6"/>
                  <line class="st1" x1="1288" y1="665.4" x2="1901.4" y2="47.9"/>
                  <line class="st1" x1="1286.6" y1="642.7" x2="1900" y2="25.2"/>
                  <line class="st1" x1="1285.2" y1="620.1" x2="1898.6" y2="2.5"/>
                  <line class="st1" x1="1283.8" y1="597.4" x2="1897.2" y2="-20.2"/>
                  <line class="st1" x1="1282.4" y1="574.7" x2="1895.8" y2="-42.9"/>
                  <line class="st1" x1="1281" y1="552" x2="1894.3" y2="-65.6"/>
                  <line class="st1" x1="1279.6" y1="529.3" x2="1892.9" y2="-88.3"/>
                  <line class="st1" x1="1278.1" y1="506.6" x2="1891.5" y2="-110.9"/>
                  <line class="st1" x1="1276.7" y1="483.9" x2="1890.1" y2="-133.6"/>
                  <line class="st1" x1="1275.3" y1="461.3" x2="1888.7" y2="-156.3"/>
                  <line class="st1" x1="1273.9" y1="438.6" x2="1887.3" y2="-179"/>
                  <line class="st1" x1="1272.5" y1="415.9" x2="1885.9" y2="-201.7"/>
                  <line class="st1" x1="1271.1" y1="393.2" x2="1884.5" y2="-224.4"/>
                  <line class="st1" x1="1269.7" y1="370.5" x2="1883.1" y2="-247.1"/>
                  <line class="st1" x1="1268.3" y1="347.8" x2="1881.7" y2="-269.7"/>
                  <line class="st1" x1="1266.9" y1="325.1" x2="1880.2" y2="-292.4"/>
                  <line class="st1" x1="1265.5" y1="302.4" x2="1878.8" y2="-315.1"/>
                  <line class="st1" x1="1264" y1="279.8" x2="1877.4" y2="-337.8"/>
                  <line class="st1" x1="1262.6" y1="257.1" x2="1876" y2="-360.5"/>
                  <line class="st1" x1="1261.2" y1="234.4" x2="1874.6" y2="-383.2"/>
                </g>
                <path class="st1" d="M1680.1-134.8"/>
              </g>
            </g>
            <g class="st14">
              <g class="st10">
                <g>
                  <line class="st1" x1="473.3" y1="1700.4" x2="1210" y2="936.1"/>
                  <line class="st1" x1="472.9" y1="1676.2" x2="1209.6" y2="911.9"/>
                  <line class="st1" x1="472.4" y1="1652" x2="1209.2" y2="887.8"/>
                  <line class="st1" x1="472" y1="1627.9" x2="1208.7" y2="863.6"/>
                  <line class="st1" x1="471.5" y1="1603.7" x2="1208.3" y2="839.4"/>
                  <line class="st1" x1="471.1" y1="1579.5" x2="1207.8" y2="815.3"/>
                  <line class="st1" x1="470.6" y1="1555.4" x2="1207.4" y2="791.1"/>
                  <line class="st1" x1="470.2" y1="1531.2" x2="1206.9" y2="766.9"/>
                  <line class="st1" x1="469.8" y1="1507" x2="1206.5" y2="742.7"/>
                  <line class="st1" x1="469.3" y1="1482.8" x2="1206.1" y2="718.6"/>
                  <line class="st1" x1="468.9" y1="1458.7" x2="1205.6" y2="694.4"/>
                  <line class="st1" x1="468.4" y1="1434.5" x2="1205.2" y2="670.2"/>
                  <line class="st1" x1="468" y1="1410.3" x2="1204.7" y2="646.1"/>
                  <line class="st1" x1="467.5" y1="1386.2" x2="1204.3" y2="621.9"/>
                  <line class="st1" x1="467.1" y1="1362" x2="1203.8" y2="597.7"/>
                  <line class="st1" x1="466.7" y1="1337.8" x2="1203.4" y2="573.6"/>
                  <line class="st1" x1="466.2" y1="1313.7" x2="1202.9" y2="549.4"/>
                  <line class="st1" x1="465.8" y1="1289.5" x2="1202.5" y2="525.2"/>
                  <line class="st1" x1="465.3" y1="1265.3" x2="1202.1" y2="501"/>
                  <line class="st1" x1="464.9" y1="1241.1" x2="1201.6" y2="476.9"/>
                  <line class="st1" x1="464.4" y1="1217" x2="1201.2" y2="452.7"/>
                  <line class="st1" x1="464" y1="1192.8" x2="1200.7" y2="428.5"/>
                  <line class="st1" x1="463.5" y1="1168.6" x2="1200.3" y2="404.4"/>
                  <line class="st1" x1="463.1" y1="1144.5" x2="1199.8" y2="380.2"/>
                  <line class="st1" x1="462.7" y1="1120.3" x2="1199.4" y2="356"/>
                  <line class="st1" x1="462.2" y1="1096.1" x2="1199" y2="331.9"/>
                  <line class="st1" x1="461.8" y1="1072" x2="1198.5" y2="307.7"/>
                  <line class="st1" x1="461.3" y1="1047.8" x2="1198.1" y2="283.5"/>
                  <line class="st1" x1="460.9" y1="1023.6" x2="1197.6" y2="259.4"/>
                  <line class="st1" x1="460.4" y1="999.4" x2="1197.2" y2="235.2"/>
                  <line class="st1" x1="460" y1="975.3" x2="1196.7" y2="211"/>
                  <line class="st1" x1="459.6" y1="951.1" x2="1196.3" y2="186.8"/>
                  <line class="st1" x1="459.1" y1="926.9" x2="1195.9" y2="162.7"/>
                  <line class="st1" x1="458.7" y1="902.8" x2="1195.4" y2="138.5"/>
                  <line class="st1" x1="458.2" y1="878.6" x2="1195" y2="114.3"/>
                  <line class="st1" x1="457.8" y1="854.4" x2="1194.5" y2="90.2"/>
                  <line class="st1" x1="457.3" y1="830.3" x2="1194.1" y2="66"/>
                  <line class="st1" x1="456.9" y1="806.1" x2="1193.6" y2="41.8"/>
                  <line class="st1" x1="456.5" y1="781.9" x2="1193.2" y2="17.7"/>
                  <line class="st1" x1="456" y1="757.7" x2="1192.8" y2="-6.5"/>
                </g>
              </g>
            </g>
            <circle class="st2" cx="1033.4" cy="-13.5" r="78.5" transform="translate(880.2 1008.6) rotate(-80.7)"/>
            <circle class="st2" cx="1756.7" cy="808.1" r="39.9" transform="translate(-56.9 1478.9) rotate(-45)"/>
            <circle class="st2" cx="126.3" cy="684.7" r="23.8"/>
            <circle class="st2" cx="1391.7" cy="-124.2" r="23.8"/>
            <line class="st2" x1="962.7" y1="468.9" x2="1289.1" y2="142.5"/>
            <line class="st2" x1="1226.1" y1="1097.5" x2="1552.5" y2="771"/>
            <line class="st2" x1="388.4" y1="768.2" x2="610" y2="546.6"/>
            <line class="st2" x1="-107.3" y1="208.2" x2="114.3" y2="-13.5"/>
            <line class="st2" x1="1643.4" y1="142.5" x2="1818.7" y2="-32.9"/>
            <line class="st2" x1="610" y1="-50.7" x2="756.9" y2="-197.6"/>
          </g>
        </g>
      </g>
    </g>
  </g>
</svg>