<svg xmlns="http://www.w3.org/2000/svg" xmlns:xlink="http://www.w3.org/1999/xlink" width="1920" height="780" viewBox="0 0 1920 780">
  <defs>
    <clipPath id="clip-home-desktop-banner-1">
      <rect width="1920" height="780"/>
    </clipPath>
  </defs>
  <g id="home-desktop-banner-1" clip-path="url(#clip-home-desktop-banner-1)">
    <rect width="1920" height="780" fill="#7037d1"/>
    <line id="Line_1" data-name="Line 1" x2="509" transform="translate(1242.57 664.587) rotate(-40)" fill="none" stroke="#42c1ca" stroke-linecap="round" stroke-width="119"/>
    <line id="Line_2" data-name="Line 2" x2="509" transform="translate(1086.602 885.533) rotate(-40)" fill="none" stroke="#fce86a" stroke-linecap="round" stroke-width="30"/>
    <line id="Line_7" data-name="Line 7" x2="509" transform="translate(1455.594 278.278) rotate(-40)" fill="none" stroke="#42c1ca" stroke-linecap="round" stroke-width="36"/>
    <line id="Line_11" data-name="Line 11" x2="187" transform="translate(358.3 727.765) rotate(-40)" fill="none" stroke="#f8585d" stroke-linecap="round" stroke-width="100"/>
    <line id="Line_12" data-name="Line 12" x2="628" transform="translate(322.319 425.078) rotate(-40)" fill="none" stroke="#42c1ca" stroke-linecap="round" stroke-width="80"/>
    <line id="Line_13" data-name="Line 13" x2="628" transform="translate(280.738 170.168) rotate(-40)" fill="none" stroke="#fce86a" stroke-linecap="round" stroke-width="53"/>
    <line id="Line_14" data-name="Line 14" x2="628" transform="translate(459.333 51.64) rotate(-40)" fill="none" stroke="#42c1ca" stroke-linecap="round" stroke-width="38"/>
    <line id="Line_15" data-name="Line 15" x2="628" transform="translate(-298.684 456.634) rotate(-40)" fill="none" stroke="#42c1ca" stroke-linecap="round" stroke-width="20"/>
    <line id="Line_18" data-name="Line 18" x2="628" transform="translate(-367.781 1035.471) rotate(-40)" fill="none" stroke="#f8585d" stroke-linecap="round" stroke-width="52"/>
    <line id="Line_17" data-name="Line 17" x2="628" transform="translate(-386.264 946.547) rotate(-40)" fill="none" stroke="#fce86a" stroke-linecap="round" stroke-width="129"/>
    <line id="Line_8" data-name="Line 8" x2="575" transform="translate(863.19 700.956) rotate(-40)" fill="none" stroke="#f8585d" stroke-linecap="round" stroke-width="81"/>
    <line id="Line_3" data-name="Line 3" x2="509" transform="translate(1223.313 1026.678) rotate(-40)" fill="none" stroke="#42c1ca" stroke-linecap="round" stroke-width="20"/>
    <line id="Line_5" data-name="Line 5" x2="509" transform="translate(1790.082 746.913) rotate(-40)" fill="none" stroke="#42c1ca" stroke-linecap="round" stroke-width="25"/>
    <line id="Line_4" data-name="Line 4" x2="509" transform="translate(1241.021 1075.785) rotate(-40)" fill="none" stroke="#f8585d" stroke-linecap="round" stroke-width="84"/>
    <circle id="Ellipse_91" data-name="Ellipse 91" cx="19" cy="19" r="19" transform="translate(1452.537 471.434) rotate(-40)" fill="#e0ca6a"/>
    <circle id="Ellipse_107" data-name="Ellipse 107" cx="33" cy="33" r="33" transform="translate(1306.96 472.184) rotate(-40)" fill="#e0ca6a" opacity="0.8"/>
    <circle id="Ellipse_94" data-name="Ellipse 94" cx="12" cy="12" r="12" transform="translate(1608.477 506.371) rotate(-40)" fill="#f8585d"/>
    <circle id="Ellipse_95" data-name="Ellipse 95" cx="32" cy="32" r="32" transform="translate(1636.275 586.172) rotate(-40)" fill="#56a2bb" opacity="0.6"/>
    <circle id="Ellipse_99" data-name="Ellipse 99" cx="28" cy="28" r="28" transform="translate(1682.601 730.057) rotate(-40)" fill="#f8585d" opacity="0.4"/>
    <circle id="Ellipse_100" data-name="Ellipse 100" cx="30" cy="30" r="30" transform="translate(1859.029 538.938) rotate(-40)" fill="#f8585d" opacity="0.4"/>
    <circle id="Ellipse_96" data-name="Ellipse 96" cx="32" cy="32" r="32" transform="translate(1672.339 384.903) rotate(-40)" fill="#56a2bb" opacity="0.6"/>
    <circle id="Ellipse_97" data-name="Ellipse 97" cx="26" cy="26" r="26" transform="translate(1760.294 345.04) rotate(-40)" fill="#56a2bb"/>
    <circle id="Ellipse_103" data-name="Ellipse 103" cx="28" cy="28" r="28" transform="translate(1856.779 102.21) rotate(-40)" fill="#56a2bb" opacity="0.8"/>
    <circle id="Ellipse_104" data-name="Ellipse 104" cx="19" cy="19" r="19" transform="translate(1798.505 21.872) rotate(-40)" fill="#56a2bb" opacity="0.8"/>
    <circle id="Ellipse_105" data-name="Ellipse 105" cx="22" cy="22" r="22" transform="translate(1673.075 35.741) rotate(-40)" fill="#f8585d"/>
    <circle id="Ellipse_106" data-name="Ellipse 106" cx="28.5" cy="28.5" r="28.5" transform="translate(1611.773 6.245) rotate(-40)" fill="#f8585d" opacity="0.4"/>
    <circle id="Ellipse_118" data-name="Ellipse 118" cx="46.5" cy="46.5" r="46.5" transform="translate(1237.932 52.326) rotate(-40)" fill="#56a2bb"/>
    <circle id="Ellipse_98" data-name="Ellipse 98" cx="10" cy="10" r="10" transform="translate(1826.289 361.461) rotate(-40)" fill="#f8585d" opacity="0.4"/>
    <circle id="Ellipse_92" data-name="Ellipse 92" cx="23" cy="23" r="23" transform="translate(1502.03 416.85) rotate(-40)" fill="#f8585d"/>
    <circle id="Ellipse_93" data-name="Ellipse 93" cx="44" cy="44" r="44" transform="translate(1548.838 401.07) rotate(-40)" fill="#e0ca6a"/>
    <circle id="Ellipse_101" data-name="Ellipse 101" cx="19.5" cy="19.5" r="19.5" transform="translate(1889.82 519.628) rotate(-40)" fill="#f8585d" opacity="0.4"/>
    <circle id="Ellipse_102" data-name="Ellipse 102" cx="44" cy="44" r="44" transform="translate(1883.62 428.231) rotate(-40)" fill="#e0ca6a" opacity="0.4"/>
    <ellipse id="Ellipse_109" data-name="Ellipse 109" cx="14.5" cy="14" rx="14.5" ry="14" transform="translate(1248.301 542.291) rotate(-40)" fill="#56a2bb"/>
    <ellipse id="Ellipse_110" data-name="Ellipse 110" cx="21" cy="20" rx="21" ry="20" transform="translate(1232.521 495.483) rotate(-40)" fill="#56a2bb"/>
    <ellipse id="Ellipse_111" data-name="Ellipse 111" cx="30" cy="29" rx="30" ry="29" transform="translate(1227.343 441.085) rotate(-40)" fill="#e0ca6a" opacity="0.4"/>
    <ellipse id="Ellipse_123" data-name="Ellipse 123" cx="39" cy="38" rx="39" ry="38" transform="translate(1128.927 340.909) rotate(-40)" fill="#56a2bb"/>
    <ellipse id="Ellipse_112" data-name="Ellipse 112" cx="33" cy="32" rx="33" ry="32" transform="translate(1314.162 406.092) rotate(-40)" fill="#f8585d" opacity="0.2"/>
    <ellipse id="Ellipse_114" data-name="Ellipse 114" cx="26.5" cy="26" rx="26.5" ry="26" transform="translate(1286.206 392.999) rotate(-40)" fill="#56a2bb" opacity="0.9"/>
    <ellipse id="Ellipse_115" data-name="Ellipse 115" cx="25" cy="24.5" rx="25" ry="24.5" transform="translate(1246.979 378.92) rotate(-40)" fill="#56a2bb" opacity="0.9"/>
    <ellipse id="Ellipse_117" data-name="Ellipse 117" cx="19.5" cy="19" rx="19.5" ry="19" transform="translate(1372.68 256.473) rotate(-40)" fill="#e0ca6a" opacity="0.8"/>
    <ellipse id="Ellipse_119" data-name="Ellipse 119" cx="26.5" cy="26" rx="26.5" ry="26" transform="translate(1147.669 53.657) rotate(-40)" fill="#e0ca6a" opacity="0.7"/>
    <circle id="Ellipse_120" data-name="Ellipse 120" cx="24" cy="24" r="24" transform="translate(1097.808 226.037) rotate(-40)" fill="#e0ca6a" opacity="0.8"/>
    <circle id="Ellipse_124" data-name="Ellipse 124" cx="34" cy="34" r="34" transform="translate(985.921 344.723) rotate(-40)" fill="#e0ca6a" opacity="0.8"/>
    <circle id="Ellipse_127" data-name="Ellipse 127" cx="12.5" cy="12.5" r="12.5" transform="translate(1017.631 558.311) rotate(-40)" fill="#56a2bb"/>
    <circle id="Ellipse_132" data-name="Ellipse 132" cx="10.5" cy="10.5" r="10.5" transform="translate(769.343 589.114) rotate(-40)" fill="#56a2bb"/>
    <circle id="Ellipse_131" data-name="Ellipse 131" cx="20.5" cy="20.5" r="20.5" transform="translate(730.989 719.202) rotate(-40)" fill="#56a2bb"/>
    <circle id="Ellipse_133" data-name="Ellipse 133" cx="22.5" cy="22.5" r="22.5" transform="translate(581.812 752.998) rotate(-40)" fill="#56a2bb"/>
    <ellipse id="Ellipse_135" data-name="Ellipse 135" cx="47" cy="45.5" rx="47" ry="45.5" transform="translate(487.7 563.054) rotate(-40)" fill="#e0ca6a" opacity="0.6"/>
    <ellipse id="Ellipse_136" data-name="Ellipse 136" cx="32" cy="30.5" rx="32" ry="30.5" transform="translate(548.015 490.252) rotate(-40)" fill="#e0ca6a" opacity="0.6"/>
    <ellipse id="Ellipse_137" data-name="Ellipse 137" cx="29" cy="27.5" rx="29" ry="27.5" transform="translate(565.211 464.073) rotate(-40)" fill="#56a2bb" opacity="0.8"/>
    <ellipse id="Ellipse_138" data-name="Ellipse 138" cx="20" cy="19.5" rx="20" ry="19.5" transform="translate(681.861 428.852) rotate(-40)" fill="#56a2bb" opacity="0.8"/>
    <ellipse id="Ellipse_142" data-name="Ellipse 142" cx="40" cy="38.5" rx="40" ry="38.5" transform="translate(724.634 167.126) rotate(-40)" fill="#e0ca6a" opacity="0.7"/>
    <ellipse id="Ellipse_144" data-name="Ellipse 144" cx="38.5" cy="36.5" rx="38.5" ry="36.5" transform="translate(858.445 57.455) rotate(-40)" fill="#f8585d" opacity="0.2"/>
    <ellipse id="Ellipse_170" data-name="Ellipse 170" cx="38.5" cy="36.5" rx="38.5" ry="36.5" transform="translate(786.753 -15.539) rotate(-40)" fill="#56a2bb"/>
    <ellipse id="Ellipse_141" data-name="Ellipse 141" cx="19" cy="18" rx="19" ry="18" transform="translate(642.439 319.641) rotate(-40)" fill="#56a2bb" opacity="0.8"/>
    <circle id="Ellipse_149" data-name="Ellipse 149" cx="19" cy="19" r="19" transform="translate(513.514 284.228) rotate(-40)" fill="#f8585d"/>
    <circle id="Ellipse_153" data-name="Ellipse 153" cx="30" cy="30" r="30" transform="translate(371.326 189.451) rotate(-40)" fill="#e0ca6a" opacity="0.6"/>
    <circle id="Ellipse_158" data-name="Ellipse 158" cx="37.5" cy="37.5" r="37.5" transform="translate(122.253 139.977) rotate(-40)" fill="#56a2bb"/>
    <circle id="Ellipse_159" data-name="Ellipse 159" cx="19" cy="19" r="19" transform="translate(86.101 277.356) rotate(-40)" fill="#56a2bb"/>
    <circle id="Ellipse_160" data-name="Ellipse 160" cx="19" cy="19" r="19" transform="translate(168.429 277.461) rotate(-40)" fill="#56a2bb"/>
    <circle id="Ellipse_161" data-name="Ellipse 161" cx="17" cy="17" r="17" transform="translate(191.111 245.374) rotate(-40)" fill="#f8585d" opacity="0.6"/>
    <circle id="Ellipse_162" data-name="Ellipse 162" cx="17" cy="17" r="17" transform="translate(7.577 379.797) rotate(-40)" fill="#f8585d" opacity="0.7"/>
    <circle id="Ellipse_165" data-name="Ellipse 165" cx="16.5" cy="16.5" r="16.5" transform="translate(118.243 542.797) rotate(-40)" fill="#e0ca6a"/>
    <circle id="Ellipse_167" data-name="Ellipse 167" cx="16.5" cy="16.5" r="16.5" transform="translate(185.313 611.838) rotate(-40)" fill="#f8585d" opacity="0.4"/>
    <circle id="Ellipse_169" data-name="Ellipse 169" cx="12.5" cy="12.5" r="12.5" transform="translate(211.475 775.253) rotate(-40)" fill="#56a2bb"/>
    <circle id="Ellipse_168" data-name="Ellipse 168" cx="26" cy="26" r="26" transform="translate(-44.934 639.251) rotate(-40)" fill="#e0ca6a"/>
    <circle id="Ellipse_166" data-name="Ellipse 166" cx="23" cy="23" r="23" transform="translate(83.928 505.014) rotate(-40)" fill="#56a2bb"/>
    <circle id="Ellipse_163" data-name="Ellipse 163" cx="31.5" cy="31.5" r="31.5" transform="translate(-30.25 438.95) rotate(-40)" fill="#56a2bb"/>
    <circle id="Ellipse_154" data-name="Ellipse 154" cx="30" cy="30" r="30" transform="translate(311.646 336.128) rotate(-40)" fill="#e0ca6a" opacity="0.6"/>
    <circle id="Ellipse_155" data-name="Ellipse 155" cx="53" cy="53" r="53" transform="translate(317.765 290.526) rotate(-40)" fill="#e0ca6a" opacity="0.6"/>
    <ellipse id="Ellipse_150" data-name="Ellipse 150" cx="15.5" cy="15" rx="15.5" ry="15" transform="translate(634.786 139.39) rotate(-40)" fill="#f8585d" opacity="0.6"/>
    <ellipse id="Ellipse_139" data-name="Ellipse 139" cx="26" cy="25.5" rx="26" ry="25.5" transform="translate(645.619 388.771) rotate(-40)" fill="#e0ca6a" opacity="0.8"/>
    <ellipse id="Ellipse_145" data-name="Ellipse 145" cx="39" cy="38.5" rx="39" ry="38.5" transform="translate(808.437 450.573) rotate(-40)" fill="#56a2bb"/>
    <circle id="Ellipse_128" data-name="Ellipse 128" cx="23.5" cy="23.5" r="23.5" transform="translate(1042.146 651.311) rotate(-40)" fill="#f8585d"/>
    <circle id="Ellipse_129" data-name="Ellipse 129" cx="28.5" cy="28.5" r="28.5" transform="translate(1015.871 643.333) rotate(-40)" fill="#f8585d" opacity="0.4"/>
    <circle id="Ellipse_130" data-name="Ellipse 130" cx="47.5" cy="47.5" r="47.5" transform="translate(865.461 691.218) rotate(-40)" fill="#56a2bb"/>
    <circle id="Ellipse_125" data-name="Ellipse 125" cx="38.5" cy="38.5" r="38.5" transform="translate(1041.333 336.085) rotate(-40)" fill="#56a2bb"/>
    <circle id="Ellipse_126" data-name="Ellipse 126" cx="44.5" cy="44.5" r="44.5" transform="translate(1047.682 433.884) rotate(-40)" fill="#56a2bb"/>
    <circle id="Ellipse_122" data-name="Ellipse 122" cx="36.5" cy="36.5" r="36.5" transform="translate(991.291 153.545) rotate(-40)" fill="#56a2bb"/>
    <circle id="Ellipse_121" data-name="Ellipse 121" cx="13.5" cy="13.5" r="13.5" transform="translate(1017.865 174.325) rotate(-40)" fill="#f8585d" opacity="0.6"/>
    <ellipse id="Ellipse_143" data-name="Ellipse 143" cx="21.5" cy="20.5" rx="21.5" ry="20.5" transform="translate(748.698 127.352) rotate(-40)" fill="#f8585d" opacity="0.4"/>
    <circle id="Ellipse_151" data-name="Ellipse 151" cx="11" cy="11" r="11" transform="translate(623.17 36.871) rotate(-40)" fill="#56a2bb"/>
    <circle id="Ellipse_152" data-name="Ellipse 152" cx="11" cy="11" r="11" transform="translate(472.083 149.289) rotate(-40)" fill="#56a2bb"/>
    <ellipse id="Ellipse_146" data-name="Ellipse 146" cx="39" cy="38.5" rx="39" ry="38.5" transform="translate(757.516 424.114) rotate(-40)" fill="#e0ca6a" opacity="0.8"/>
    <ellipse id="Ellipse_147" data-name="Ellipse 147" cx="49" cy="48" rx="49" ry="48" transform="translate(710.803 317.104) rotate(-40)" fill="#e0ca6a" opacity="0.9"/>
    <ellipse id="Ellipse_148" data-name="Ellipse 148" cx="24" cy="23.5" rx="24" ry="23.5" transform="translate(691.713 275.685) rotate(-40)" fill="#f8585d" opacity="0.4"/>
    <circle id="Ellipse_157" data-name="Ellipse 157" cx="30" cy="30" r="30" transform="translate(280.591 390.906) rotate(-40)" fill="#56a2bb"/>
    <line id="Line_6" data-name="Line 6" x2="509" transform="translate(1767.595 874.131) rotate(-40)" fill="none" stroke="#fce86a" stroke-linecap="round" stroke-width="150"/>
    <line id="Line_10" data-name="Line 10" x2="509" transform="translate(322.667 867.319) rotate(-40)" fill="none" stroke="#42c1ca" stroke-linecap="round" stroke-width="20"/>
    <line id="Line_9" data-name="Line 9" x2="509" transform="translate(336.316 889.807) rotate(-40)" fill="none" stroke="#fce86a" stroke-linecap="round" stroke-width="46"/>
    <ellipse id="Ellipse_134" data-name="Ellipse 134" cx="17" cy="16.5" rx="17" ry="16.5" transform="translate(575.779 635.352) rotate(-40)" fill="#56a2bb"/>
    <line id="Line_16" data-name="Line 16" x2="628" transform="translate(-300.759 788.643) rotate(-40)" fill="none" stroke="#42c1ca" stroke-linecap="round" stroke-width="25"/>
    <circle id="Ellipse_164" data-name="Ellipse 164" cx="19.5" cy="19.5" r="19.5" transform="translate(84.166 461.737) rotate(-40)" fill="#fce86a" opacity="0.6"/>
    <circle id="Ellipse_156" data-name="Ellipse 156" cx="17.5" cy="17.5" r="17.5" transform="translate(288.701 403.682) rotate(-40)" fill="#f8585d" opacity="0.2"/>
    <ellipse id="Ellipse_113" data-name="Ellipse 113" cx="20" cy="19.5" rx="20" ry="19.5" transform="translate(1323.028 377.765) rotate(-40)" fill="#e0ca6a" opacity="0.8"/>
    <ellipse id="Ellipse_116" data-name="Ellipse 116" cx="34.5" cy="34" rx="34.5" ry="34" transform="translate(1275.392 338.107) rotate(-40)" fill="#e0ca6a" opacity="0.9"/>
    <circle id="Ellipse_108" data-name="Ellipse 108" cx="35.5" cy="35.5" r="35.5" transform="translate(1185.986 516.255) rotate(-40)" fill="#e0ca6a" opacity="0.9"/>
    <ellipse id="Ellipse_140" data-name="Ellipse 140" cx="21" cy="20.5" rx="21" ry="20.5" transform="translate(655.568 339.955) rotate(-40)" fill="#f8585d"/>
  </g>
</svg>
