<svg xmlns="http://www.w3.org/2000/svg" xmlns:xlink="http://www.w3.org/1999/xlink" width="1920" height="780.508" viewBox="0 0 1920 780.508">
  <defs>
    <clipPath id="clip-path">
      <rect id="Rectangle_12555" data-name="Rectangle 12555" width="1920" height="780" transform="translate(0 0)" fill="#fff" stroke="#707070" stroke-width="1"/>
    </clipPath>
    <clipPath id="clip-path-2">
      <rect id="Rectangle_12655" data-name="Rectangle 12655" width="621.03" height="689.222" fill="#fff" stroke="#707070" stroke-width="1"/>
    </clipPath>
    <clipPath id="clip-path-3">
      <path id="Path_99718" data-name="Path 99718" d="M230.249,223.142H112.275s20.881-17.583,19.183-50.093,17.4-50.454,26.537-51.469,40.933-10.362,51.306,8.8l-16.284,1.692L180.5,128.352l1.027,9.074-10.268,3.563-5.16-7.126s.8,30.067-14.343,33.944,9.2,23.852,9.2,23.852H214.33S216.159,222.127,230.249,223.142Z" transform="translate(-112.275 -118.413)"/>
    </clipPath>
    <clipPath id="clip-path-4">
      <path id="Path_99735" data-name="Path 99735" d="M173.6,141.391s-3.995-9.916-12.649-10.845a15.547,15.547,0,0,0-16.386,9.226s6.118,8.106,15.537,7.852C169.557,147.37,173.6,141.391,173.6,141.391Z" transform="translate(-144.561 -130.432)" fill="#fff"/>
    </clipPath>
    <clipPath id="clip-path-5">
      <path id="Path_99739" data-name="Path 99739" d="M120.759,173.838c-.731-33.015,17.4-51.182,26.537-52.211s40.934-10.513,51.306,8.927l-16.286,1.719L169.8,128.495l1.029,9.208-10.268,3.614-5.16-7.228s7.828,28.5-7.314,32.434-3.886,25.852-3.886,25.852C137.563,214.827,121.557,209.857,120.759,173.838Z" transform="translate(-120.737 -118.412)"/>
    </clipPath>
    <clipPath id="clip-path-6">
      <path id="Path_99774" data-name="Path 99774" d="M267.594,316.294c2.383,1.258,28.344,12.459,48.427,7.62,11.12-2.681,17.722-4.068,21.446-5.211a7.078,7.078,0,0,0,4.54-6.413h0c.107-2.779-1.652-4.783-4.022-4.585-6.016.5-17.209,1.122-25.063-.343C301.692,305.264,267.594,316.294,267.594,316.294Z" transform="translate(-267.594 -307.097)" fill="none"/>
    </clipPath>
    <clipPath id="clip-path-7">
      <path id="Path_99793" data-name="Path 99793" d="M298.228,132.724s4.026-11.653,13.812-10.333,13.178,8.019,13.178,8.019-5.9,11.5-14.559,11.88S298.228,132.724,298.228,132.724Z" transform="translate(-298.228 -122.287)" fill="none"/>
    </clipPath>
    <clipPath id="clip-path-8">
      <path id="Path_99795" data-name="Path 99795" d="M291.515,122.453a10.038,10.038,0,0,0-1.34.563,50.3,50.3,0,0,0-4.03,9.881c-.138,4.169,1.463,9.756,14.154-1.292C300.3,131.605,297.5,120.44,291.515,122.453Z" transform="translate(-286.136 -122.21)" fill="none"/>
    </clipPath>
    <clipPath id="clip-path-9">
      <path id="Path_99801" data-name="Path 99801" d="M357.9,123.223s-15.375-11.842-34.942-10.072c-18.167,1.643-35.238,16-37.617,43.083-2.961,33.694,13.214,40.707,27.013,43.913s44.455-1.5,53.263-26.388S368.7,132.322,357.9,123.223Z" transform="translate(-284.985 -112.971)" fill="none"/>
    </clipPath>
    <clipPath id="clip-path-10">
      <rect id="Rectangle_12654" data-name="Rectangle 12654" width="447.509" height="565.125" fill="none"/>
    </clipPath>
    <clipPath id="clip-path-11">
      <rect id="Rectangle_12637" data-name="Rectangle 12637" width="555.565" height="682.664" fill="none"/>
    </clipPath>
    <clipPath id="clip-path-12">
      <path id="Path_98136" data-name="Path 98136" d="M168.319,71.2l2.045,26.36,28.817-4.093L187.312,58.509Z" transform="translate(-168.319 -58.509)" fill="none"/>
    </clipPath>
    <clipPath id="clip-path-14">
      <path id="Path_98662" data-name="Path 98662" d="M316.988,134.432,337.64,152.8l-9.228,7.585Zm-33.971-70.91L246.764,80.795c-6.083,1.725-38.5,12.078-51.266,30.246-8,11.384-34.074,53.448-34.074,53.448l-28.279-41.473-30.161,18.641s25.306,79.069,57.812,77.92c29.679-1.048,59.067-45.871,59.067-45.871l15.71,37.075,90.068-25.346,6.7,10.682s70.642-20.4,54.513-56.239c-11.259-25.02-50.893-56.946-72.847-73.3a30.152,30.152,0,0,0-30.993-3.056" transform="translate(-102.985 -60.594)" fill="none"/>
    </clipPath>
    <clipPath id="clip-path-16">
      <path id="Path_98939" data-name="Path 98939" d="M170.372,46.1l14.527,6.43,2.411,20.138s-2.955,42.957-6.618,63.857c0,0,24.534-1.8,23.427-16.14-1.048-13.566-4.7-54.851-6.777-62.991-1.642-6.444-9.85-12.318-19.8-12.318a25.858,25.858,0,0,0-7.175,1.024" transform="translate(-170.372 -45.077)" fill="none"/>
    </clipPath>
    <clipPath id="clip-path-18">
      <path id="Path_99135" data-name="Path 99135" d="M155.629,257.583c4.281,26.62,8.148,48.972,8.148,48.972l40.258-3.583-1.566-53.662Z" transform="translate(-155.629 -249.31)" fill="none"/>
    </clipPath>
    <clipPath id="clip-path-20">
      <path id="Path_99150" data-name="Path 99150" d="M164.789,58.029c8.525,3.96,11.85-3.027,11.85-3.027-2.54-1.81-4.559-2.481-6.155-2.481-4.576,0-5.695,5.509-5.695,5.509" transform="translate(-164.789 -52.52)" fill="none"/>
    </clipPath>
    <clipPath id="clip-path-22">
      <path id="Path_99366" data-name="Path 99366" d="M188.368,323.626h77.89l1.033-13.389c1.314-15.171-9.852-28.741-25.6-31.12l-2.569-.387s-24.69,7.543-32.47,2.3c-3.79-2.556-6.574-11.416-6.574-11.416Z" transform="translate(-188.368 -269.613)" fill="none"/>
    </clipPath>
    <clipPath id="clip-path-24">
      <path id="Path_99574" data-name="Path 99574" d="M140.482,61.785,84.778,108.5a4.454,4.454,0,0,0,5.554,6.961l57.9-43.958a4.453,4.453,0,0,0,.787-6.326l-2.2-2.753a4.457,4.457,0,0,0-6.345-.635" transform="translate(-83.185 -60.744)" fill="none"/>
    </clipPath>
    <clipPath id="clip-path-26">
      <path id="Path_99709" data-name="Path 99709" d="M83.871,91.3c-5.67,8.106-15.822,7.659-11.223,10.144,7.964,4.3,18.248-1.342,18.248-1.342a5.856,5.856,0,0,0-2.311-11.242,5.71,5.71,0,0,0-4.715,2.44" transform="translate(-71.486 -88.864)" fill="none"/>
    </clipPath>
  </defs>
  <g id="Group_133989" data-name="Group 133989" transform="translate(-3242 -5461)">
    <path id="Rectangle_88" data-name="Rectangle 88" d="M0,0H1920V780H0Z" transform="translate(3242 5461)" fill="#058e67"/>
    <g id="Group_125016" data-name="Group 125016" transform="translate(2497 5241)">
      <g id="Mask_Group_9263" data-name="Mask Group 9263" transform="translate(745 220)" clip-path="url(#clip-path)">
        <ellipse id="Ellipse_1033" data-name="Ellipse 1033" cx="358.5" cy="357" rx="358.5" ry="357" transform="translate(1228 405)" fill="#fff"/>
        <ellipse id="Ellipse_1034" data-name="Ellipse 1034" cx="357" cy="356.5" rx="357" ry="356.5" transform="translate(514 -490)" fill="#f76758"/>
        <ellipse id="Ellipse_1035" data-name="Ellipse 1035" cx="295" cy="294" rx="295" ry="294" transform="translate(-183 279)" fill="#006e4e"/>
      </g>
      <g id="Mask_Group_9275" data-name="Mask Group 9275" transform="translate(1987.97 310.778)" clip-path="url(#clip-path-2)">
        <g id="Group_134254" data-name="Group 134254" transform="translate(0.456 0.161)">
          <g id="Group_134249" data-name="Group 134249" transform="translate(0 30.261)">
            <g id="Group_134096" data-name="Group 134096" transform="translate(0 33.22)">
              <g id="Group_133990" data-name="Group 133990" transform="translate(258.789 167.88)">
                <path id="Path_99714" data-name="Path 99714" d="M188.785,193.8l7.249,152.887L167,287.847Z" transform="translate(-167 -193.802)" fill="#5774cd"/>
              </g>
              <g id="Group_133992" data-name="Group 133992" transform="translate(252.502 297.688)">
                <g id="Group_133991" data-name="Group 133991">
                  <path id="Path_99715" data-name="Path 99715" d="M180.676,352.425a1.114,1.114,0,0,1-1.1-.937l-15.393-98.108a1.112,1.112,0,1,1,2.2-.343l15.395,98.1a1.117,1.117,0,0,1-.927,1.276A1.509,1.509,0,0,1,180.676,352.425Z" transform="translate(-164.172 -252.094)"/>
                </g>
              </g>
              <g id="Group_133994" data-name="Group 133994" transform="translate(147.569 272.661)">
                <g id="Group_133993" data-name="Group 133993">
                  <path id="Path_99716" data-name="Path 99716" d="M247.247,269.48c-7.234-18.807-13.2-28.625-13.2-28.625L126.1,250.919c-3.377,7.165-6.409,18.352-9.132,32.164Z" transform="translate(-116.97 -240.855)" fill="#f7c3ba"/>
                </g>
              </g>
              <g id="Group_133996" data-name="Group 133996" transform="translate(137.131 0)">
                <path id="Path_99717" data-name="Path 99717" d="M230.249,223.142H112.275s20.881-17.583,19.183-50.093,17.4-50.454,26.537-51.469,40.933-10.362,51.306,8.8l-16.284,1.692L180.5,128.352l1.027,9.074-10.268,3.563-5.16-7.126s.8,30.067-14.343,33.944,9.2,23.852,9.2,23.852H214.33S216.159,222.127,230.249,223.142Z" transform="translate(-112.275 -118.413)"/>
              </g>
              <g id="Group_133998" data-name="Group 133998" transform="translate(127.293 295.847)">
                <g id="Group_133997" data-name="Group 133997">
                  <path id="Path_99719" data-name="Path 99719" d="M327.838,587.7H108.985a1,1,0,0,1-.821-.544,2.378,2.378,0,0,1-.314-1.3c.07-2.419,7.246-242.375,19.636-316.423.123-.724.525-1.25,1.007-1.314l132.178-16.849c.448-.06.887.3,1.1.936.432,1.271,43.352,129.46,67.185,333.413a2.494,2.494,0,0,1-.246,1.444A1.041,1.041,0,0,1,327.838,587.7Zm-217.661-3.531h216.3C303.8,391.653,264.2,267.395,260.1,254.886L129.488,271.537C117.851,343.085,110.868,561.725,110.177,584.171Z" transform="translate(-107.849 -251.267)"/>
                </g>
              </g>
              <g id="Group_134000" data-name="Group 134000" transform="translate(165.467 68.32)">
                <g id="Group_133999" data-name="Group 133999">
                  <path id="Path_99720" data-name="Path 99720" d="M188.791,201.638l-10.971-3.091V149.093H137.707v50.484l-12.686,7.212,12,61.474L226.847,245.6Z" transform="translate(-125.021 -149.093)" fill="#f7c3ba"/>
                </g>
              </g>
              <g id="Group_134002" data-name="Group 134002" transform="translate(186.381 148.683)">
                <g id="Group_134001" data-name="Group 134001">
                  <path id="Path_99721" data-name="Path 99721" d="M186.2,185.181l-51.77,6.182,25.885,41.555,23.142,6.868,28.457-27.3Z" transform="translate(-134.429 -185.181)" fill="#fd521b"/>
                </g>
              </g>
              <g id="Group_134004" data-name="Group 134004" transform="translate(151.01 272.661)">
                <g id="Group_134003" data-name="Group 134003">
                  <path id="Path_99722" data-name="Path 99722" d="M240.018,256.107c-4.749-9.84-7.652-15.252-7.652-15.252l-108.142,8.324a73.593,73.593,0,0,0-5.707,13.98Z" transform="translate(-118.518 -240.855)"/>
                </g>
              </g>
              <g id="Group_134006" data-name="Group 134006" transform="translate(179.261 68.321)">
                <g id="Group_134005" data-name="Group 134005">
                  <path id="Path_99723" data-name="Path 99723" d="M170.23,172.332V149.093h-39C134.6,156.974,144.278,171.23,170.23,172.332Z" transform="translate(-131.226 -149.093)" fill="#e8ada2"/>
                </g>
              </g>
              <g id="Group_134007" data-name="Group 134007" transform="translate(0 120.866)">
                <path id="Path_99724" data-name="Path 99724" d="M174.491,451.555,76.681,407a44.609,44.609,0,0,1-19.552-63.815l78.606-128.87a67.491,67.491,0,0,1,41.5-30.405l45.638-11.219L286,233.82l-6.171-61.131,26.263,2.668a21.8,21.8,0,0,1,17.493,12.366l7.578,31.982a151.289,151.289,0,0,1,14.566,64.774v44.958L192.4,341.655,174.491,297.7,131.03,361.575l61.37,40.3Z" transform="translate(-50.59 -172.689)" fill="#5774cd"/>
              </g>
              <g id="Group_134009" data-name="Group 134009" transform="translate(8.664 283.579)">
                <g id="Group_134008" data-name="Group 134008">
                  <path id="Path_99725" data-name="Path 99725" d="M153.645,289.91,88.807,245.758s-43.539,46.753-32.539,59.706c13.707,16.145,65.8,34.737,65.8,34.737Z" transform="translate(-54.487 -245.758)" fill="#5774cd"/>
                </g>
              </g>
              <g id="Group_134011" data-name="Group 134011" transform="translate(234.296 180.881)">
                <g id="Group_134010" data-name="Group 134010">
                  <path id="Path_99726" data-name="Path 99726" d="M193.071,298.006a1.111,1.111,0,0,1-1.1-.946L180.969,224.2l-24.627-22.629a1.113,1.113,0,0,1,1.5-1.641l24.914,22.894a1.129,1.129,0,0,1,.349.655l11.064,73.241a1.111,1.111,0,0,1-.931,1.269A1.483,1.483,0,0,1,193.071,298.006Z" transform="translate(-155.982 -199.64)"/>
                </g>
              </g>
              <g id="Group_134013" data-name="Group 134013" transform="translate(99.215 152.951)">
                <g id="Group_134012" data-name="Group 134012">
                  <path id="Path_99727" data-name="Path 99727" d="M116.443,238.548a1.109,1.109,0,0,1-1.107-1.051c-.889-16.254-19.772-48.4-19.961-48.719a1.111,1.111,0,1,1,1.912-1.133c.789,1.336,19.35,32.937,20.268,49.73a1.111,1.111,0,0,1-1.049,1.171Z" transform="translate(-95.219 -187.098)"/>
                </g>
              </g>
              <g id="Group_134015" data-name="Group 134015" transform="translate(122.79 233.77)">
                <g id="Group_134014" data-name="Group 134014">
                  <path id="Path_99728" data-name="Path 99728" d="M106.934,236.608a1.082,1.082,0,0,1-.638-.2,1.112,1.112,0,0,1-.269-1.55l7.739-10.992a1.112,1.112,0,1,1,1.816,1.285l-7.739,10.989A1.109,1.109,0,0,1,106.934,236.608Z" transform="translate(-105.824 -223.391)"/>
                </g>
              </g>
              <g id="Group_134017" data-name="Group 134017" transform="translate(57.158 294.441)">
                <g id="Group_134016" data-name="Group 134016">
                  <path id="Path_99729" data-name="Path 99729" d="M99.581,267.061a1.118,1.118,0,0,1-.6-.176l-22.171-14.2a1.118,1.118,0,0,1-.338-1.539,1.106,1.106,0,0,1,1.536-.336l22.171,14.2a1.113,1.113,0,0,1-.6,2.051Z" transform="translate(-76.301 -250.636)"/>
                </g>
              </g>
              <g id="Group_134019" data-name="Group 134019" transform="translate(228.655 424.491)">
                <g id="Group_134018" data-name="Group 134018">
                  <path id="Path_99730" data-name="Path 99730" d="M151.568,510.126a1.1,1.1,0,0,1-.12-.007,1.113,1.113,0,0,1-.987-1.227c1.189-11.03,12.908-183.805,15.731-187.1,2.846-3.325,24.561-11.731,27.028-12.68a1.113,1.113,0,0,1,.8,2.08c-9.117,3.5-24.272,9.869-26.137,12.047-1.89,2.7-12.515,160.92-15.209,185.9A1.11,1.11,0,0,1,151.568,510.126Z" transform="translate(-150.455 -309.036)"/>
                </g>
              </g>
              <g id="Group_134022" data-name="Group 134022" transform="translate(170.222 2.391)">
                <g id="Group_134021" data-name="Group 134021">
                  <g id="Group_134020" data-name="Group 134020">
                    <path id="Path_99731" data-name="Path 99731" d="M169.868,119.486s24.876,5.774,31.079,29.929,2.89,40.983-10.9,49.211c-16.32,9.734-43.177,4.7-54.839-10s-7.212-57-7.212-57Z" transform="translate(-127.16 -119.486)" fill="#f7c3ba"/>
                  </g>
                </g>
              </g>
              <g id="Group_134025" data-name="Group 134025" transform="translate(242.258 40.85)">
                <g id="Group_134024" data-name="Group 134024">
                  <g id="Group_134023" data-name="Group 134023">
                    <path id="Path_99732" data-name="Path 99732" d="M171.613,136.757l-12.049,1.635,2.64,12.887Z" transform="translate(-159.564 -136.757)" fill="#f7c3ba"/>
                  </g>
                </g>
              </g>
              <g id="Group_134031" data-name="Group 134031" transform="translate(208.906 26.765)">
                <g id="Group_134030" data-name="Group 134030">
                  <path id="Path_99733" data-name="Path 99733" d="M173.6,141.391s-3.995-9.916-12.649-10.845a15.547,15.547,0,0,0-16.386,9.226s6.118,8.106,15.537,7.852C169.557,147.37,173.6,141.391,173.6,141.391Z" transform="translate(-144.561 -130.432)" fill="#fff"/>
                  <g id="Group_134029" data-name="Group 134029" clip-path="url(#clip-path-4)">
                    <g id="Group_134028" data-name="Group 134028" transform="translate(7.126 -0.925)">
                      <g id="Group_134027" data-name="Group 134027">
                        <g id="Group_134026" data-name="Group 134026">
                          <path id="Path_99734" data-name="Path 99734" d="M170.016,141.105c-.58,5.427-6.02,9.293-12.149,8.636s-10.631-5.589-10.051-11.016,6.02-9.293,12.151-8.636S170.6,135.678,170.016,141.105Z" transform="translate(-147.766 -130.016)"/>
                        </g>
                      </g>
                    </g>
                  </g>
                </g>
              </g>
              <g id="Group_134033" data-name="Group 134033" transform="translate(229.268 60.143)">
                <g id="Group_134032" data-name="Group 134032">
                  <path id="Path_99736" data-name="Path 99736" d="M162.6,149.178a22.635,22.635,0,0,1-8.165-1.606,1.113,1.113,0,0,1,.8-2.078c8.25,3.18,13.445.212,13.661.082a1.113,1.113,0,0,1,1.14,1.911A15.246,15.246,0,0,1,162.6,149.178Z" transform="translate(-153.721 -145.421)"/>
                </g>
              </g>
              <g id="Group_134035" data-name="Group 134035" transform="translate(208.906 15.732)">
                <g id="Group_134034" data-name="Group 134034">
                  <path id="Path_99737" data-name="Path 99737" d="M144.561,133.832c10.148-11.825,19.656-8.266,19.187-6.182Z" transform="translate(-144.561 -125.477)"/>
                </g>
              </g>
              <g id="Group_134037" data-name="Group 134037" transform="translate(155.944)">
                <path id="Path_99738" data-name="Path 99738" d="M120.759,173.838c-.731-33.015,17.4-51.182,26.537-52.211s40.934-10.513,51.306,8.927l-16.286,1.719L169.8,128.495l1.029,9.208-10.268,3.614-5.16-7.228s7.828,28.5-7.314,32.434-3.886,25.852-3.886,25.852C137.563,214.827,121.557,209.857,120.759,173.838Z" transform="translate(-120.737 -118.412)"/>
              </g>
              <g id="Group_134039" data-name="Group 134039" transform="translate(166.574 53.981)">
                <g id="Group_134038" data-name="Group 134038">
                  <path id="Path_99740" data-name="Path 99740" d="M125.519,193.4l34.971-.693s-17.829-18.1-15.6-42.018-19.372,13.17-19.372,13.17Z" transform="translate(-125.519 -142.653)"/>
                </g>
              </g>
              <g id="Group_134047" data-name="Group 134047" transform="translate(166.574 41.65)">
                <g id="Group_134042" data-name="Group 134042">
                  <g id="Group_134041" data-name="Group 134041">
                    <g id="Group_134040" data-name="Group 134040">
                      <path id="Path_99741" data-name="Path 99741" d="M147.583,140.3s-13.156-9.956-20.3,5.315,9.272,23.649,16.188,20.336a25.141,25.141,0,0,0,10.348-9.836Z" transform="translate(-125.519 -137.116)" fill="#f7c3ba"/>
                    </g>
                  </g>
                </g>
                <g id="Group_134044" data-name="Group 134044" transform="translate(5.811 6.008)">
                  <g id="Group_134043" data-name="Group 134043">
                    <path id="Path_99742" data-name="Path 99742" d="M143.13,150.36a1.1,1.1,0,0,1-.569-.158l-13.888-8.32a1.113,1.113,0,0,1,1.143-1.911l13.885,8.32a1.113,1.113,0,0,1-.571,2.069Z" transform="translate(-128.133 -139.814)" fill="#f7c3ba"/>
                  </g>
                </g>
                <g id="Group_134046" data-name="Group 134046" transform="translate(11.297 12.936)">
                  <g id="Group_134045" data-name="Group 134045">
                    <path id="Path_99743" data-name="Path 99743" d="M131.711,152.133a1.113,1.113,0,0,1-.925-1.73l4.628-6.981a1.113,1.113,0,0,1,1.852,1.234l-4.628,6.981A1.113,1.113,0,0,1,131.711,152.133Z" transform="translate(-130.6 -142.925)" fill="#f7c3ba"/>
                  </g>
                </g>
              </g>
              <g id="Group_134049" data-name="Group 134049" transform="translate(143.113 314.889)">
                <g id="Group_134048" data-name="Group 134048">
                  <path id="Path_99744" data-name="Path 99744" d="M116.078,271.366a1.114,1.114,0,0,1-.073-2.225l139.776-9.319a1.114,1.114,0,0,1,.147,2.222l-139.776,9.319C116.127,271.366,116.1,271.366,116.078,271.366Z" transform="translate(-114.966 -259.818)"/>
                </g>
              </g>
              <g id="Group_134051" data-name="Group 134051" transform="translate(237.726 301.541)">
                <g id="Group_134050" data-name="Group 134050">
                  <path id="Path_99745" data-name="Path 99745" d="M164.292,267.383a6.78,6.78,0,1,1,6.769-6.779A6.78,6.78,0,0,1,164.292,267.383Zm0-11.332a4.553,4.553,0,1,0,4.546,4.554A4.554,4.554,0,0,0,164.292,256.051Z" transform="translate(-157.525 -253.824)"/>
                </g>
              </g>
              <g id="Group_134053" data-name="Group 134053" transform="translate(138.107 321.443)">
                <g id="Group_134052" data-name="Group 134052">
                  <path id="Path_99746" data-name="Path 99746" d="M118.725,308.546q-2.424,0-4.973-.169a1.114,1.114,0,0,1,.147-2.222c14.781.993,26.223-2.456,34.013-10.239,12.389-12.377,11.3-31.775,11.287-31.969a1.115,1.115,0,0,1,1.038-1.182,1.1,1.1,0,0,1,1.183,1.038c.053.833,1.176,20.574-11.925,33.679C142.141,304.834,131.806,308.546,118.725,308.546Z" transform="translate(-112.714 -262.762)"/>
                </g>
              </g>
              <g id="Group_134087" data-name="Group 134087" transform="translate(120.497 329.8)">
                <g id="Group_134056" data-name="Group 134056" transform="translate(13.13)">
                  <g id="Group_134055" data-name="Group 134055">
                    <g id="Group_134054" data-name="Group 134054">
                      <path id="Path_99747" data-name="Path 99747" d="M147.934,277.664l-25.343-10.591c-4.215-1.764-9.235.79-11.151,5.67h0c-1.97,5.022.131,10.468,4.6,11.925l26.119,8.5c3.837,1.249,8.141-1.338,9.555-5.745h0C153.022,283.342,151.382,279.1,147.934,277.664Z" transform="translate(-110.699 -266.514)" fill="#f7c3ba"/>
                    </g>
                  </g>
                </g>
                <g id="Group_134059" data-name="Group 134059" transform="translate(4.503 15.235)">
                  <g id="Group_134058" data-name="Group 134058">
                    <g id="Group_134057" data-name="Group 134057">
                      <path id="Path_99748" data-name="Path 99748" d="M142.707,301.788l-31.07-10.66c-3.372-1.156-5.333-4.9-4.7-8.967l.129-.835c.86-5.554,6.051-9.25,10.611-7.556l30.941,11.5c3.715,1.381,5.567,5.872,4.237,10.281h0C151.408,300.343,146.784,303.187,142.707,301.788Z" transform="translate(-106.818 -273.356)" fill="#f7c3ba"/>
                    </g>
                  </g>
                </g>
                <g id="Group_134062" data-name="Group 134062" transform="translate(2.583 32.926)">
                  <g id="Group_134061" data-name="Group 134061">
                    <g id="Group_134060" data-name="Group 134060">
                      <path id="Path_99749" data-name="Path 99749" d="M141.15,298.23h0c.989-3.657-.649-7.293-3.85-8.542l-20.357-7.952c-3.3-1.287-7.205.361-9.061,3.823l-.927,1.728c-2.272,4.242-.514,9.293,3.661,10.513l21.281,6.224C135.752,305.151,140,302.493,141.15,298.23Z" transform="translate(-105.954 -281.3)" fill="#f7c3ba"/>
                    </g>
                  </g>
                </g>
                <g id="Group_134065" data-name="Group 134065" transform="translate(0 48.221)">
                  <g id="Group_134064" data-name="Group 134064">
                    <g id="Group_134063" data-name="Group 134063">
                      <path id="Path_99750" data-name="Path 99750" d="M133.3,301.127h0c.345-2.955-1.056-5.634-3.392-6.489l-16.946-6.2c-2.768-1.011-5.9.857-7.038,4.2l-.718,2.1c-1.249,3.661.416,7.518,3.557,8.246l17.665,4.091C129.61,307.815,132.849,305.011,133.3,301.127Z" transform="translate(-104.792 -288.169)" fill="#f7c3ba"/>
                    </g>
                  </g>
                </g>
                <g id="Group_134068" data-name="Group 134068" transform="translate(39.545 12.711)">
                  <g id="Group_134067" data-name="Group 134067">
                    <g id="Group_134066" data-name="Group 134066">
                      <path id="Path_99751" data-name="Path 99751" d="M126.856,284.053a6.048,6.048,0,0,1-3.895-7.821,6.521,6.521,0,0,1,8.248-3.639,6.046,6.046,0,0,1,3.9,7.821A6.526,6.526,0,0,1,126.856,284.053Z" transform="translate(-122.581 -272.222)" fill="#f3a597"/>
                    </g>
                  </g>
                </g>
                <g id="Group_134071" data-name="Group 134071" transform="translate(35.475 28.674)">
                  <g id="Group_134070" data-name="Group 134070">
                    <g id="Group_134069" data-name="Group 134069">
                      <path id="Path_99752" data-name="Path 99752" d="M125.025,291.221a6.045,6.045,0,0,1-3.895-7.821,6.523,6.523,0,0,1,8.248-3.639,6.047,6.047,0,0,1,3.9,7.821A6.524,6.524,0,0,1,125.025,291.221Z" transform="translate(-120.75 -279.391)" fill="#f3a597"/>
                    </g>
                  </g>
                </g>
                <g id="Group_134074" data-name="Group 134074" transform="translate(24.909 43.086)">
                  <g id="Group_134073" data-name="Group 134073">
                    <g id="Group_134072" data-name="Group 134072">
                      <path id="Path_99753" data-name="Path 99753" d="M119.883,295.419c-2.957-1.018-4.571-3.9-3.606-6.442s4.144-3.774,7.1-2.757,4.568,3.9,3.6,6.442S122.839,296.436,119.883,295.419Z" transform="translate(-115.997 -285.863)" fill="#f3a597"/>
                    </g>
                  </g>
                </g>
                <g id="Group_134077" data-name="Group 134077" transform="translate(18.54 57.041)">
                  <g id="Group_134076" data-name="Group 134076">
                    <g id="Group_134075" data-name="Group 134075">
                      <path id="Path_99754" data-name="Path 99754" d="M115.851,300.012a3.962,3.962,0,0,1-2.457-5.173,4.273,4.273,0,0,1,5.362-2.478,3.962,3.962,0,0,1,2.459,5.173A4.275,4.275,0,0,1,115.851,300.012Z" transform="translate(-113.132 -292.129)" fill="#f3a597"/>
                    </g>
                  </g>
                </g>
                <g id="Group_134080" data-name="Group 134080" transform="translate(13.254 14.581)">
                  <g id="Group_134079" data-name="Group 134079">
                    <g id="Group_134078" data-name="Group 134078">
                      <path id="Path_99755" data-name="Path 99755" d="M143.224,286.813a.956.956,0,0,0,1.147-.532.853.853,0,0,0-.558-1.116L116.3,275.819a10.561,10.561,0,0,1-3.861-2.421.989.989,0,0,0-1.316-.154.825.825,0,0,0-.167,1.218,12.282,12.282,0,0,0,4.708,2.991l27.508,9.342Z" transform="translate(-110.754 -273.062)"/>
                    </g>
                  </g>
                </g>
                <g id="Group_134083" data-name="Group 134083" transform="translate(8.038 32.442)">
                  <g id="Group_134082" data-name="Group 134082">
                    <g id="Group_134081" data-name="Group 134081">
                      <path id="Path_99756" data-name="Path 99756" d="M135.056,291.741a.956.956,0,0,0,1.156-.548.854.854,0,0,0-.58-1.1l-16.54-5.3c-1.218-.394-7.714-2.855-9.319-3.612a.978.978,0,0,0-1.263.381.837.837,0,0,0,.411,1.167c1.7.8,8.277,3.294,9.555,3.705l16.542,5.3Z" transform="translate(-108.408 -281.083)"/>
                    </g>
                  </g>
                </g>
                <g id="Group_134086" data-name="Group 134086" transform="translate(3.749 47.765)">
                  <g id="Group_134085" data-name="Group 134085">
                    <g id="Group_134084" data-name="Group 134084">
                      <path id="Path_99757" data-name="Path 99757" d="M127.745,296.166a.958.958,0,0,0,1.16-.557.858.858,0,0,0-.594-1.1c-.222-.067-5.427-1.672-7.052-2.1-1.71-.45-11.833-3.605-13.418-4.351a.975.975,0,0,0-1.26.381.839.839,0,0,0,.411,1.169c1.754.824,12.12,4.042,13.756,4.471,1.578.412,6.914,2.062,6.967,2.078Z" transform="translate(-106.479 -287.964)"/>
                    </g>
                  </g>
                </g>
              </g>
              <g id="Group_134089" data-name="Group 134089" transform="translate(238.746 216.6)">
                <g id="Group_134088" data-name="Group 134088">
                  <path id="Path_99758" data-name="Path 99758" d="M165.974,231.684a8,8,0,1,1,7.99-8A8.006,8.006,0,0,1,165.974,231.684Zm0-13.778a5.775,5.775,0,1,0,5.767,5.774A5.777,5.777,0,0,0,165.974,217.907Z" transform="translate(-157.984 -215.68)"/>
                </g>
              </g>
              <g id="Group_134091" data-name="Group 134091" transform="translate(243.921 248.052)">
                <g id="Group_134090" data-name="Group 134090">
                  <path id="Path_99759" data-name="Path 99759" d="M168.3,245.808a8,8,0,1,1,7.99-8A8.006,8.006,0,0,1,168.3,245.808Zm0-13.778a5.775,5.775,0,1,0,5.767,5.774A5.777,5.777,0,0,0,168.3,232.031Z" transform="translate(-160.312 -229.804)"/>
                </g>
              </g>
              <g id="Group_134093" data-name="Group 134093" transform="translate(266.36 277.257)">
                <g id="Group_134092" data-name="Group 134092">
                  <path id="Path_99760" data-name="Path 99760" d="M171.516,246.593a1.113,1.113,0,0,1-.087-2.222l18.2-1.45a1.112,1.112,0,0,1,.176,2.218l-18.2,1.45C171.576,246.591,171.545,246.593,171.516,246.593Z" transform="translate(-170.405 -242.919)"/>
                </g>
              </g>
              <g id="Group_134095" data-name="Group 134095" transform="translate(266.36 137.384)">
                <g id="Group_134094" data-name="Group 134094">
                  <path id="Path_99761" data-name="Path 99761" d="M184.621,211.717a1.1,1.1,0,0,1-.918-.485l-13.1-19.2a1.107,1.107,0,0,1-.182-.795l1.536-10.188a1.112,1.112,0,1,1,2.2.332l-1.472,9.756,12.856,18.837a1.115,1.115,0,0,1-.916,1.741Z" transform="translate(-170.405 -180.107)"/>
                </g>
              </g>
            </g>
            <g id="Group_134248" data-name="Group 134248" transform="translate(311.764 0)">
              <path id="Path_99762" data-name="Path 99762" d="M306.8,103.919s-13.565-3.454-9.484,12.292c2.379,9.166,18.223,9.994,18.223,9.994s-19.663,9.84-25.534,1.367S291.66,100.456,306.8,103.919Z" transform="translate(-133.295 -103.495)"/>
              <g id="Group_134098" data-name="Group 134098" transform="translate(72.821 400.644)">
                <g id="Group_134097" data-name="Group 134097">
                  <path id="Path_99763" data-name="Path 99763" d="M295.527,323.854c7.314-16.741,4.2-34.278-6.954-39.168s-26.13,4.714-33.444,21.456-4.2,34.278,6.952,39.17S288.211,340.6,295.527,323.854Z" transform="translate(-251.17 -283.41)"/>
                </g>
              </g>
              <g id="Group_134100" data-name="Group 134100" transform="translate(38.956 383.595)">
                <g id="Group_134099" data-name="Group 134099">
                  <path id="Path_99764" data-name="Path 99764" d="M424.777,556.571H262.268c-.545,0-1.009-.706-1.1-1.666L235.951,278.06a3.1,3.1,0,0,1,.3-1.69c.24-.452.58-.69.934-.6l177.575,38.032c.529.111.936.873.976,1.817l10.155,238.813a3.042,3.042,0,0,1-.294,1.5A.99.99,0,0,1,424.777,556.571ZM263.212,552.6H423.578l-9.993-235.056-175.2-37.524Z" transform="translate(-235.937 -275.754)"/>
                </g>
              </g>
              <g id="Group_134102" data-name="Group 134102" transform="translate(99.835 433.518)">
                <g id="Group_134101" data-name="Group 134101">
                  <path id="Path_99765" data-name="Path 99765" d="M305.179,524.06a1.143,1.143,0,0,1-1.127-.93L263.339,299.5a1.146,1.146,0,0,1,2.257-.392l40.713,223.632a1.129,1.129,0,0,1-.93,1.3A1.012,1.012,0,0,1,305.179,524.06Z" transform="translate(-263.322 -298.172)"/>
                </g>
              </g>
              <g id="Group_134104" data-name="Group 134104" transform="translate(70.988 182.199)">
                <g id="Group_134103" data-name="Group 134103">
                  <path id="Path_99766" data-name="Path 99766" d="M441.442,223.825l-39.085,202.28L250.346,407.884l48.766-222.57Z" transform="translate(-250.346 -185.314)" fill="#eba820"/>
                </g>
              </g>
              <g id="Group_134158" data-name="Group 134158" transform="translate(66.458 395.254)">
                <g id="Group_134111" data-name="Group 134111">
                  <g id="Group_134110" data-name="Group 134110">
                    <g id="Group_134109" data-name="Group 134109">
                      <g id="Group_134108" data-name="Group 134108">
                        <g id="Group_134107" data-name="Group 134107">
                          <g id="Group_134106" data-name="Group 134106">
                            <g id="Group_134105" data-name="Group 134105">
                              <path id="Path_99767" data-name="Path 99767" d="M252.539,288.916s16.853,7.42,23.865,4.532c8.943-3.688,20.239-1.258,43.581-7.449,5.442-1.443,19.772-6.184,22.807-4.739,4.03,1.917,3.021,7.282,1.167,9.932-4.166,5.961-28.358,14.272-28.358,14.272l-18.656,45.272-40.862-17.071S241.268,309.356,252.539,288.916Z" transform="translate(-248.308 -280.989)" fill="#f7c3ba"/>
                            </g>
                          </g>
                        </g>
                      </g>
                    </g>
                  </g>
                </g>
                <g id="Group_134118" data-name="Group 134118" transform="translate(42.875 58.137)">
                  <g id="Group_134117" data-name="Group 134117">
                    <g id="Group_134116" data-name="Group 134116">
                      <g id="Group_134115" data-name="Group 134115">
                        <g id="Group_134114" data-name="Group 134114">
                          <g id="Group_134113" data-name="Group 134113">
                            <g id="Group_134112" data-name="Group 134112">
                              <path id="Path_99768" data-name="Path 99768" d="M267.594,316.294c2.383,1.258,28.344,12.459,48.427,7.62,11.12-2.681,17.722-4.068,21.446-5.211a7.078,7.078,0,0,0,4.54-6.413h0c.107-2.779-1.652-4.783-4.022-4.585-6.016.5-17.209,1.122-25.063-.343C301.692,305.264,267.594,316.294,267.594,316.294Z" transform="translate(-267.594 -307.097)" fill="#f7c3ba"/>
                            </g>
                          </g>
                        </g>
                      </g>
                    </g>
                  </g>
                </g>
                <g id="Group_134125" data-name="Group 134125" transform="translate(59.741 45.224)">
                  <g id="Group_134124" data-name="Group 134124">
                    <g id="Group_134123" data-name="Group 134123">
                      <g id="Group_134122" data-name="Group 134122">
                        <g id="Group_134121" data-name="Group 134121">
                          <g id="Group_134120" data-name="Group 134120">
                            <g id="Group_134119" data-name="Group 134119">
                              <path id="Path_99769" data-name="Path 99769" d="M275.181,317.9s22.918,5.191,43.023.951c11.335-2.392,17.669-3.434,21.1-4.532,2.014-.646,3.657-3.628,3.757-5.995h0c.129-3.149-1.752-5.487-4.4-5.46-9.4.087-30.529.1-38.762-1.421C289.162,299.463,275.181,317.9,275.181,317.9Z" transform="translate(-275.181 -301.298)" fill="#f7c3ba"/>
                            </g>
                          </g>
                        </g>
                      </g>
                    </g>
                  </g>
                </g>
                <g id="Group_134132" data-name="Group 134132" transform="translate(61.707 32.921)">
                  <g id="Group_134131" data-name="Group 134131">
                    <g id="Group_134130" data-name="Group 134130">
                      <g id="Group_134129" data-name="Group 134129">
                        <g id="Group_134128" data-name="Group 134128">
                          <g id="Group_134127" data-name="Group 134127">
                            <g id="Group_134126" data-name="Group 134126">
                              <path id="Path_99770" data-name="Path 99770" d="M276.065,320.435s26.519.581,47.049-6.725c11.647-4.144,18.176-6.358,21.542-7.932,1.916-.9,2.8-3.743,2.172-5.868h0a5.477,5.477,0,0,0-6.127-4.062c-10.013,1.708-33.371,5.518-42.894,5.616C285.524,301.589,276.065,320.435,276.065,320.435Z" transform="translate(-276.065 -295.773)" fill="#f7c3ba"/>
                            </g>
                          </g>
                        </g>
                      </g>
                    </g>
                  </g>
                </g>
                <g id="Group_134139" data-name="Group 134139" transform="translate(60.453 21.556)">
                  <g id="Group_134138" data-name="Group 134138">
                    <g id="Group_134137" data-name="Group 134137">
                      <g id="Group_134136" data-name="Group 134136">
                        <g id="Group_134135" data-name="Group 134135">
                          <g id="Group_134134" data-name="Group 134134">
                            <g id="Group_134133" data-name="Group 134133">
                              <path id="Path_99771" data-name="Path 99771" d="M275.5,304.6s25.488,5.944,46.738,3.14c12.636-1.668,19.3-2.523,22.711-3.334,1.738-.412,3.09-2.7,2.923-4.576h0a5.84,5.84,0,0,0-5.464-5.58c-10.162-.414-33.086-1.519-42.205-3.342C288.322,288.535,275.5,304.6,275.5,304.6Z" transform="translate(-275.501 -290.67)" fill="#f7c3ba"/>
                            </g>
                          </g>
                        </g>
                      </g>
                    </g>
                  </g>
                </g>
                <g id="Group_134146" data-name="Group 134146" transform="translate(24.588 18.783)">
                  <g id="Group_134145" data-name="Group 134145">
                    <g id="Group_134144" data-name="Group 134144">
                      <g id="Group_134143" data-name="Group 134143">
                        <g id="Group_134142" data-name="Group 134142">
                          <g id="Group_134141" data-name="Group 134141">
                            <g id="Group_134140" data-name="Group 134140">
                              <path id="Path_99772" data-name="Path 99772" d="M302.118,345.178l-42.75-14.838,31.552-40.916s13.914,1.076,27.6,2.817S317.048,345.8,302.118,345.178Z" transform="translate(-259.368 -289.424)" fill="#f7c3ba"/>
                            </g>
                          </g>
                        </g>
                      </g>
                    </g>
                  </g>
                </g>
                <g id="Group_134151" data-name="Group 134151" transform="translate(42.875 58.137)">
                  <g id="Group_134150" data-name="Group 134150" clip-path="url(#clip-path-6)">
                    <g id="Group_134149" data-name="Group 134149" transform="translate(64.376 4.237)">
                      <g id="Group_134148" data-name="Group 134148" opacity="0.5" style="mix-blend-mode: overlay;isolation: isolate">
                        <g id="Group_134147" data-name="Group 134147">
                          <path id="Path_99773" data-name="Path 99773" d="M296.814,315.672c.916,2.207,3.959,3.04,6.8,1.859s4.4-3.93,3.479-6.137-3.959-3.04-6.8-1.857S295.9,313.465,296.814,315.672Z" transform="translate(-296.552 -309)"/>
                        </g>
                      </g>
                    </g>
                  </g>
                </g>
                <g id="Group_134154" data-name="Group 134154" transform="translate(117.047 49.839)">
                  <g id="Group_134153" data-name="Group 134153" opacity="0.5" style="mix-blend-mode: overlay;isolation: isolate">
                    <g id="Group_134152" data-name="Group 134152">
                      <path id="Path_99775" data-name="Path 99775" d="M301.35,310.551c1.1,2.133,4.2,2.719,6.916,1.309s4.019-4.28,2.917-6.413-4.2-2.719-6.914-1.309S300.248,308.418,301.35,310.551Z" transform="translate(-300.959 -303.37)"/>
                    </g>
                  </g>
                </g>
                <g id="Group_134157" data-name="Group 134157" transform="translate(121.48 34.774)" opacity="0.5" style="mix-blend-mode: overlay;isolation: isolate">
                  <g id="Group_134156" data-name="Group 134156">
                    <g id="Group_134155" data-name="Group 134155">
                      <path id="Path_99776" data-name="Path 99776" d="M303.242,303.864c1,2.412,4.3,3.331,7.374,2.053s4.749-4.271,3.748-6.683-4.3-3.331-7.374-2.053S302.242,301.451,303.242,303.864Z" transform="translate(-302.953 -296.605)"/>
                    </g>
                  </g>
                </g>
              </g>
              <g id="Group_134161" data-name="Group 134161" transform="translate(0 255.968)">
                <g id="Group_134160" data-name="Group 134160">
                  <g id="Group_134159" data-name="Group 134159">
                    <path id="Path_99777" data-name="Path 99777" d="M228.995,296.8s-27.586-22.859,6.325-64.55c22.644-27.84,46.151-4.966,46.151-4.966L260.958,289.6Z" transform="translate(-218.413 -218.441)" fill="#f7c3ba"/>
                  </g>
                </g>
              </g>
              <g id="Group_134164" data-name="Group 134164" transform="translate(40.215 262.893)" opacity="0.5" style="mix-blend-mode: overlay;isolation: isolate">
                <g id="Group_134163" data-name="Group 134163">
                  <g id="Group_134162" data-name="Group 134162">
                    <path id="Path_99778" data-name="Path 99778" d="M236.8,226.058a6.177,6.177,0,1,1,11.751,3.783c-1.085,3.376-4.368,2.933-7.614,1.886S235.718,229.434,236.8,226.058Z" transform="translate(-236.503 -221.551)"/>
                  </g>
                </g>
              </g>
              <g id="Group_134167" data-name="Group 134167" transform="translate(28.141 262.002)">
                <g id="Group_134166" data-name="Group 134166">
                  <g id="Group_134165" data-name="Group 134165">
                    <path id="Path_99779" data-name="Path 99779" d="M249.621,261.969a.922.922,0,0,1-.256-.038.9.9,0,0,1-.607-1.12l8.161-27.424a8.306,8.306,0,0,0-5.791-10.143c-4.286-1.176-8.612,1.394-10.273,6.135-3.7,10.584-8.672,10.7-8.883,10.7a.9.9,0,0,1-.018-1.8c.1-.007,4.006-.363,7.2-9.5,1.983-5.663,7.223-8.72,12.451-7.28a10.119,10.119,0,0,1,7.04,12.375l-8.165,27.446A.9.9,0,0,1,249.621,261.969Z" transform="translate(-231.072 -221.151)"/>
                  </g>
                </g>
              </g>
              <g id="Group_134168" data-name="Group 134168" transform="translate(122.337 76.317)">
                <path id="Path_99780" data-name="Path 99780" d="M301.037,137.766s-15.224,26.584-26.555,2.543c0,0-9.048,29.679,26.266,32.051,0,0,13.645,16.557,37.3,7.538l2.608-16.113Z" transform="translate(-273.444 -137.766)"/>
              </g>
              <g id="Group_134171" data-name="Group 134171" transform="translate(157.958 103.003)">
                <g id="Group_134170" data-name="Group 134170">
                  <g id="Group_134169" data-name="Group 134169">
                    <path id="Path_99781" data-name="Path 99781" d="M289.467,217.927l28.006-10.849V149.75h36.074v57.181l30.532,6.656s-13.727,31.8-50.479,30.374C296.225,242.516,289.467,217.927,289.467,217.927Z" transform="translate(-289.467 -149.75)" fill="#f7c3ba"/>
                  </g>
                </g>
              </g>
              <g id="Group_134174" data-name="Group 134174" transform="translate(185.964 88.919)">
                <g id="Group_134173" data-name="Group 134173">
                  <g id="Group_134172" data-name="Group 134172">
                    <path id="Path_99782" data-name="Path 99782" d="M302.065,182.891c18.6-4.957,32.25-29.657,32.25-29.657l-32.25-9.809Z" transform="translate(-302.065 -143.425)"/>
                  </g>
                </g>
              </g>
              <g id="Group_134177" data-name="Group 134177" transform="translate(147.993 21.102)">
                <g id="Group_134176" data-name="Group 134176">
                  <g id="Group_134175" data-name="Group 134175">
                    <path id="Path_99783" data-name="Path 99783" d="M357.9,123.223s-15.375-11.842-34.942-10.072c-18.167,1.643-35.238,16-37.617,43.083-2.961,33.694,13.214,40.707,27.013,43.913s44.455-1.5,53.263-26.388S368.7,132.322,357.9,123.223Z" transform="translate(-284.985 -112.971)" fill="#f7c3ba"/>
                  </g>
                </g>
              </g>
              <g id="Group_134180" data-name="Group 134180" transform="translate(179.968 30.697)">
                <g id="Group_134179" data-name="Group 134179">
                  <g id="Group_134178" data-name="Group 134178">
                    <path id="Path_99784" data-name="Path 99784" d="M315.692,122.712a1.223,1.223,0,0,1-.76-.263c-7.174-5.612-13.3-.826-13.554-.619a1.236,1.236,0,0,1-1.556-1.922,13.391,13.391,0,0,1,16.631.592,1.236,1.236,0,0,1-.76,2.211Z" transform="translate(-299.368 -117.28)"/>
                  </g>
                </g>
              </g>
              <g id="Group_134183" data-name="Group 134183" transform="translate(177.434 41.848)">
                <g id="Group_134182" data-name="Group 134182">
                  <g id="Group_134181" data-name="Group 134181">
                    <path id="Path_99785" data-name="Path 99785" d="M298.228,132.724s4.026-11.653,13.812-10.333,13.178,8.019,13.178,8.019-5.9,11.5-14.559,11.88S298.228,132.724,298.228,132.724Z" transform="translate(-298.228 -122.287)" fill="#fff"/>
                  </g>
                </g>
              </g>
              <g id="Group_134184" data-name="Group 134184" transform="translate(202.979 24.57)">
                <path id="Path_99786" data-name="Path 99786" d="M315.7,114.528s-9.544,9.869-4.524,22.384,20.543,25.159,27.322,19.26,9.321,2.853,9.321,2.853S349.668,128.074,315.7,114.528Z" transform="translate(-309.719 -114.528)"/>
              </g>
              <g id="Group_134185" data-name="Group 134185" transform="translate(213.048 79.582)">
                <path id="Path_99787" data-name="Path 99787" d="M341.054,146.189s-2.21,19.523,12.716,13.323c0,0-8.2,28.466-30.972,19.915-18.327-6.883-1.487-33.071-1.487-33.071l4.851-7.124Z" transform="translate(-314.248 -139.232)"/>
              </g>
              <g id="Group_134188" data-name="Group 134188" transform="translate(221.598 64.365)">
                <g id="Group_134187" data-name="Group 134187">
                  <g id="Group_134186" data-name="Group 134186">
                    <path id="Path_99788" data-name="Path 99788" d="M323.772,135.3s11.98-9.068,18.485,4.841-8.443,21.534-14.739,18.516a22.878,22.878,0,0,1-9.424-8.956Z" transform="translate(-318.094 -132.399)" fill="#f7c3ba"/>
                  </g>
                </g>
              </g>
              <g id="Group_134191" data-name="Group 134191" transform="translate(226.162 71.161)">
                <g id="Group_134190" data-name="Group 134190">
                  <g id="Group_134189" data-name="Group 134189">
                    <path id="Path_99789" data-name="Path 99789" d="M321.381,144.535a1.235,1.235,0,0,1-1.009-1.949c6.258-8.9,15.05-6.994,15.422-6.908a1.237,1.237,0,0,1-.549,2.412c-.322-.071-7.583-1.57-12.854,5.919A1.23,1.23,0,0,1,321.381,144.535Z" transform="translate(-320.147 -135.451)"/>
                  </g>
                </g>
              </g>
              <g id="Group_134194" data-name="Group 134194" transform="translate(229.287 74.245)">
                <g id="Group_134193" data-name="Group 134193">
                  <g id="Group_134192" data-name="Group 134192">
                    <path id="Path_99790" data-name="Path 99790" d="M328.02,147.427a1.232,1.232,0,0,1-1.038-.568l-5.231-8.115a1.235,1.235,0,1,1,2.074-1.343l5.231,8.117a1.237,1.237,0,0,1-1.036,1.908Z" transform="translate(-321.553 -136.836)"/>
                  </g>
                </g>
              </g>
              <g id="Group_134197" data-name="Group 134197" transform="translate(150.554 41.676)">
                <g id="Group_134196" data-name="Group 134196">
                  <g id="Group_134195" data-name="Group 134195">
                    <path id="Path_99791" data-name="Path 99791" d="M291.515,122.453a10.038,10.038,0,0,0-1.34.563,50.3,50.3,0,0,0-4.03,9.881c-.138,4.169,1.463,9.756,14.154-1.292C300.3,131.605,297.5,120.44,291.515,122.453Z" transform="translate(-286.136 -122.21)" fill="#fff"/>
                  </g>
                </g>
              </g>
              <g id="Group_134202" data-name="Group 134202" transform="translate(177.434 41.848)">
                <g id="Group_134201" data-name="Group 134201" clip-path="url(#clip-path-7)">
                  <g id="Group_134200" data-name="Group 134200" transform="translate(0.555 -2.571)">
                    <g id="Group_134199" data-name="Group 134199">
                      <g id="Group_134198" data-name="Group 134198">
                        <path id="Path_99792" data-name="Path 99792" d="M316.792,136.32c-2.9,5.03-9.012,6.932-13.654,4.247s-6.053-8.939-3.155-13.969,9.012-6.932,13.654-4.247S319.691,131.29,316.792,136.32Z" transform="translate(-298.477 -121.133)"/>
                      </g>
                    </g>
                  </g>
                </g>
              </g>
              <g id="Group_134207" data-name="Group 134207" transform="translate(150.554 41.676)">
                <g id="Group_134206" data-name="Group 134206" clip-path="url(#clip-path-8)">
                  <g id="Group_134205" data-name="Group 134205" transform="translate(-2.561 -2.282)">
                    <g id="Group_134204" data-name="Group 134204">
                      <g id="Group_134203" data-name="Group 134203">
                        <path id="Path_99794" data-name="Path 99794" d="M299.445,133.176c-2.29,3.973-7.116,5.474-10.78,3.356s-4.78-7.059-2.492-11.03,7.116-5.476,10.782-3.356S301.734,129.206,299.445,133.176Z" transform="translate(-284.984 -121.185)"/>
                      </g>
                    </g>
                  </g>
                </g>
              </g>
              <g id="Group_134212" data-name="Group 134212" transform="translate(154.879 49.316)">
                <g id="Group_134209" data-name="Group 134209" transform="translate(1.235 1.238)">
                  <g id="Group_134208" data-name="Group 134208">
                    <path id="Path_99796" data-name="Path 99796" d="M293.07,136.493l-4.433-10.3,9.122.965Z" transform="translate(-288.637 -126.197)" fill="#f7c3ba"/>
                  </g>
                </g>
                <g id="Group_134211" data-name="Group 134211">
                  <g id="Group_134210" data-name="Group 134210">
                    <path id="Path_99797" data-name="Path 99797" d="M293.751,138.412a1.239,1.239,0,0,1-1.136-.748l-4.431-10.295a1.236,1.236,0,0,1,1.263-1.721l9.121.966a1.236,1.236,0,0,1-.258,2.458l-7.023-.742,3.595,8.353a1.236,1.236,0,0,1-.645,1.626A1.218,1.218,0,0,1,293.751,138.412Z" transform="translate(-288.082 -125.641)"/>
                  </g>
                </g>
              </g>
              <g id="Group_134219" data-name="Group 134219" transform="translate(157.956 66.769)">
                <g id="Group_134215" data-name="Group 134215">
                  <g id="Group_134214" data-name="Group 134214">
                    <g id="Group_134213" data-name="Group 134213">
                      <path id="Path_99798" data-name="Path 99798" d="M295.068,133.667c2.7,1.02,8.814,9.17,4.611,10.591s-11.956-.18-9.859-5.255S293.318,133.005,295.068,133.667Z" transform="translate(-289.466 -133.478)"/>
                    </g>
                  </g>
                </g>
                <g id="Group_134218" data-name="Group 134218" transform="translate(0 3.491)">
                  <g id="Group_134217" data-name="Group 134217">
                    <g id="Group_134216" data-name="Group 134216">
                      <path id="Path_99799" data-name="Path 99799" d="M298.727,135.046a36.928,36.928,0,0,0-8.908,2.033c-.322.755.111-.265,0,0-2.1,5.075,5.658,6.678,9.859,5.255C302.346,141.433,300.859,137.825,298.727,135.046Z" transform="translate(-289.466 -135.046)" fill="#fd521b"/>
                    </g>
                  </g>
                </g>
              </g>
              <g id="Group_134224" data-name="Group 134224" transform="translate(147.993 21.102)">
                <g id="Group_134223" data-name="Group 134223" clip-path="url(#clip-path-9)">
                  <g id="Group_134222" data-name="Group 134222" transform="translate(7.803 11.676)">
                    <g id="Group_134221" data-name="Group 134221">
                      <g id="Group_134220" data-name="Group 134220">
                        <path id="Path_99800" data-name="Path 99800" d="M298.373,122.2a1.225,1.225,0,0,1-.829-.323c-.133-.116-2.943-2.536-7.2-.082a1.236,1.236,0,1,1-1.232-2.144c5.88-3.389,9.926.247,10.1.4a1.238,1.238,0,0,1-.838,2.147Z" transform="translate(-288.494 -118.214)"/>
                      </g>
                    </g>
                  </g>
                </g>
              </g>
              <g id="Group_134231" data-name="Group 134231" transform="translate(128.365 428.717)">
                <g id="Group_134226" data-name="Group 134226" transform="translate(0 25.452)">
                  <g id="Group_134225" data-name="Group 134225">
                    <path id="Path_99802" data-name="Path 99802" d="M298.408,314.505a65.373,65.373,0,0,1-21.508-3.26,1.113,1.113,0,0,1,.736-2.1c22.088,7.767,52.258-1.554,52.56-1.646a1.112,1.112,0,0,1,.667,2.122A120.1,120.1,0,0,1,298.408,314.505Z" transform="translate(-276.155 -307.446)"/>
                  </g>
                </g>
                <g id="Group_134228" data-name="Group 134228" transform="translate(4.033 12.859)">
                  <g id="Group_134227" data-name="Group 134227">
                    <path id="Path_99803" data-name="Path 99803" d="M300.222,308.85a65.374,65.374,0,0,1-21.508-3.26,1.113,1.113,0,0,1,.736-2.1c22.089,7.765,52.258-1.557,52.56-1.646a1.112,1.112,0,0,1,.667,2.122A120.1,120.1,0,0,1,300.222,308.85Z" transform="translate(-277.969 -301.791)"/>
                  </g>
                </g>
                <g id="Group_134230" data-name="Group 134230" transform="translate(5.137)">
                  <g id="Group_134229" data-name="Group 134229">
                    <path id="Path_99804" data-name="Path 99804" d="M302.1,303.074a73.674,73.674,0,0,1-22.867-3.251,1.114,1.114,0,0,1-.709-1.405,1.1,1.1,0,0,1,1.4-.71c23.569,7.785,55.759-1.552,56.079-1.648a1.113,1.113,0,0,1,.629,2.136A135.43,135.43,0,0,1,302.1,303.074Z" transform="translate(-278.466 -296.017)"/>
                  </g>
                </g>
              </g>
              <g id="Group_134232" data-name="Group 134232" transform="translate(5.29 139.976)">
                <path id="Path_99805" data-name="Path 99805" d="M392.537,180.718l-25.15-9.889a38.389,38.389,0,0,0-48.3,18.425l-92.5,181.152a52.931,52.931,0,0,0,11.229,62.955l58.645,54.124s-8.059-9.072,6.131-35.273C311.337,436.057,339.349,423,339.349,423l54.588-76.713L444.31,166.353l-50.21,2.225Z" transform="translate(-220.793 -166.353)" fill="#fcb72c"/>
              </g>
              <g id="Group_134233" data-name="Group 134233" transform="translate(0.502 135.095)">
                <path id="Path_99806" data-name="Path 99806" d="M477.9,166.27h0a37.89,37.89,0,0,1,23.069,48.864L418.649,439.058a40.121,40.121,0,0,1-60.394,19.262l-125.8-86.48a31.9,31.9,0,0,1-7.372-45.488h0a31.774,31.774,0,0,1,42.025-7.928l95.432,58.753L429.9,189.246A37.794,37.794,0,0,1,477.9,166.27Z" transform="translate(-218.639 -164.161)" fill="#fcb72c"/>
              </g>
              <g id="Group_134235" data-name="Group 134235" transform="translate(39.103 284.597)">
                <g id="Group_134234" data-name="Group 134234">
                  <path id="Path_99807" data-name="Path 99807" d="M348.129,299.828a1.1,1.1,0,0,1-.567-.156l-111.016-66.3a1.114,1.114,0,0,1,1.138-1.915l111.016,66.3a1.113,1.113,0,0,1-.571,2.069Z" transform="translate(-236.003 -231.297)"/>
                </g>
              </g>
              <g id="Group_134237" data-name="Group 134237" transform="translate(192.706 263.595)">
                <g id="Group_134236" data-name="Group 134236">
                  <path id="Path_99808" data-name="Path 99808" d="M306.21,379.776a1.109,1.109,0,0,1-1.038-1.514l60.105-155.683a1.112,1.112,0,1,1,2.074.8L307.246,379.066A1.112,1.112,0,0,1,306.21,379.776Z" transform="translate(-305.098 -221.866)"/>
                </g>
              </g>
              <g id="Group_134239" data-name="Group 134239" transform="translate(138.714 223.107)">
                <g id="Group_134238" data-name="Group 134238">
                  <path id="Path_99809" data-name="Path 99809" d="M281.921,325.049a1.078,1.078,0,0,1-.378-.069,1.115,1.115,0,0,1-.667-1.425l43.154-119.139a1.113,1.113,0,1,1,2.092.759L282.968,324.314A1.113,1.113,0,0,1,281.921,325.049Z" transform="translate(-280.81 -203.684)"/>
                </g>
              </g>
              <g id="Group_134241" data-name="Group 134241" transform="translate(150.119 341.436)">
                <g id="Group_134240" data-name="Group 134240">
                  <path id="Path_99810" data-name="Path 99810" d="M314.252,259.049h-27.2a1.113,1.113,0,0,1,0-2.227h27.2a1.113,1.113,0,0,1,0,2.227Z" transform="translate(-285.941 -256.822)"/>
                </g>
              </g>
              <g id="Group_134243" data-name="Group 134243" transform="translate(10.002 339.463)">
                <g id="Group_134242" data-name="Group 134242">
                  <path id="Path_99811" data-name="Path 99811" d="M318.855,323.35a1.087,1.087,0,0,1-.627-.2L223.4,257.967a1.113,1.113,0,1,1,1.256-1.837l94.832,65.189a1.114,1.114,0,0,1-.629,2.031Z" transform="translate(-222.912 -255.936)"/>
                </g>
              </g>
              <g id="Group_134245" data-name="Group 134245" transform="translate(88.642 160.015)">
                <g id="Group_134244" data-name="Group 134244">
                  <path id="Path_99812" data-name="Path 99812" d="M259.4,331.748a1.075,1.075,0,0,1-.333-.054,1.11,1.11,0,0,1-.727-1.394l35.356-112.262-2.821-41.5a1.112,1.112,0,1,1,2.219-.154l2.834,41.711a1.124,1.124,0,0,1-.049.412l-35.418,112.46A1.115,1.115,0,0,1,259.4,331.748Z" transform="translate(-258.287 -175.352)"/>
                </g>
              </g>
              <g id="Group_134247" data-name="Group 134247" transform="translate(195.601 136.253)">
                <g id="Group_134246" data-name="Group 134246">
                  <path id="Path_99813" data-name="Path 99813" d="M307.512,226.124a1.137,1.137,0,0,1-.354-.056,1.116,1.116,0,0,1-.7-1.412c18.234-54.346,37.734-59.737,38.557-59.94a1.113,1.113,0,0,1,.538,2.16c-.253.069-19.27,5.678-36.988,58.49A1.11,1.11,0,0,1,307.512,226.124Z" transform="translate(-306.4 -164.681)"/>
                </g>
              </g>
            </g>
          </g>
          <path id="Path_99814" data-name="Path 99814" d="M7.682,9.925l.007-8.538,6.3,6.592L20.9,0l-.008,9.914,8.719,1.318-7.945,4.12,5.772,9.23L17.379,20.946l-2.385,8.792L12,19.7,2.37,24.6,7.677,16.27,0,10.645Z" transform="translate(562.138 21.028) rotate(135)" fill="#ffbc0f"/>
          <path id="Path_99815" data-name="Path 99815" d="M5.5,7.1,5.5.993,10.007,5.71,14.957,0l-.006,7.094,6.239.943-5.685,2.948,4.13,6.6-7.2-2.6L10.729,21.28,8.586,14.1,1.7,17.605l3.8-5.963L0,7.617Z" transform="translate(427.368 156.02) rotate(135)" fill="#fff"/>
          <path id="Path_99816" data-name="Path 99816" d="M5.5,7.1,5.5.993,10.007,5.71,14.957,0l-.006,7.094,6.239.943-5.685,2.948,4.13,6.6-7.2-2.6L10.729,21.28,8.586,14.1,1.7,17.605l3.8-5.963L0,7.617Z" transform="translate(237.812 30.296) rotate(135)" fill="#fdc71e"/>
          <path id="Path_99817" data-name="Path 99817" d="M11.857,30.582l.011,13.178,9.718-10.175L32.264,45.9l-.013-15.3,13.458-2.035L33.447,22.205,42.356,7.959,26.825,13.571,23.144,0,18.52,15.495,3.658,7.926l8.191,12.862L0,29.471Z" transform="translate(103.443 103.867) rotate(45)" fill="#fff"/>
          <g id="Group_134250" data-name="Group 134250" transform="translate(110.172 38.499)">
            <path id="Path_99818" data-name="Path 99818" d="M1931.81,3403.349l32.7,36.528" transform="translate(-1915.462 -3403.349)" fill="none" stroke="#fff" stroke-linecap="round" stroke-width="2"/>
            <path id="Path_99819" data-name="Path 99819" d="M1931.81,3403.349l32.7,29.6" transform="translate(-1931.81 -3396.422)" fill="none" stroke="#fff" stroke-linecap="round" stroke-width="2" stroke-dasharray="5"/>
          </g>
          <g id="Group_134251" data-name="Group 134251" transform="matrix(0.999, -0.035, 0.035, 0.999, 266.061, 151.177)" opacity="0.754">
            <path id="Path_99820" data-name="Path 99820" d="M21.072,0,0,23.542" transform="translate(0 0)" fill="none" stroke="#fff" stroke-linecap="round" stroke-width="1"/>
            <path id="Path_99821" data-name="Path 99821" d="M21.072,0,0,19.079" transform="translate(10.536 4.463)" fill="none" stroke="#fff" stroke-linecap="round" stroke-width="1" stroke-dasharray="5"/>
          </g>
          <g id="Group_134252" data-name="Group 134252" transform="translate(551.072 27.321)">
            <path id="Path_99822" data-name="Path 99822" d="M1958.162,3403.348l-26.353,29.441" transform="translate(-1931.81 -3403.348)" fill="none" stroke="#fff" stroke-linecap="round" stroke-width="2"/>
            <path id="Path_99823" data-name="Path 99823" d="M1958.162,3403.348l-26.353,23.859" transform="translate(-1918.633 -3397.766)" fill="none" stroke="#fff" stroke-linecap="round" stroke-width="2" stroke-dasharray="5"/>
          </g>
          <g id="Group_134253" data-name="Group 134253" transform="translate(428.544 38.5) rotate(3)" opacity="0.702">
            <path id="Path_99824" data-name="Path 99824" d="M0,0,20.387,22.776" transform="translate(10.192 0)" fill="none" stroke="#fff" stroke-linecap="round" stroke-width="1"/>
            <path id="Path_99825" data-name="Path 99825" d="M0,0,20.387,18.458" transform="translate(0 4.317)" fill="none" stroke="#fff" stroke-linecap="round" stroke-width="1" stroke-dasharray="5"/>
          </g>
        </g>
        <g id="Group_134265" data-name="Group 134265" transform="translate(274.053 60.028)">
          <g id="Group_134264" data-name="Group 134264" transform="translate(37.763 13.605) rotate(4)">
            <path id="Path_99826" data-name="Path 99826" d="M18.366,0A18.378,18.378,0,0,0,0,18.4a17.839,17.839,0,0,0,2.2,8.655s4.159,6.9,5.547,11.9a23.425,23.425,0,0,1,.85,6.21v2.594l19.541,0V45.166a23.417,23.417,0,0,1,.847-6.21c1.387-5.007,5.544-11.9,5.544-11.9a17.834,17.834,0,0,0,2.2-8.654A18.389,18.389,0,0,0,18.366,0Z" transform="translate(0 0)" fill="#fcc129"/>
            <g id="Group_134255" data-name="Group 134255" transform="translate(4.699 4.052)">
              <path id="Path_99827" data-name="Path 99827" d="M.508,10.273a.484.484,0,0,1-.114-.013.508.508,0,0,1-.381-.609A12.36,12.36,0,0,1,12.122,0a.508.508,0,0,1,0,1.016A11.351,11.351,0,0,0,1,9.878.507.507,0,0,1,.508,10.273Z" transform="translate(0 0)" fill="#fff"/>
            </g>
            <g id="Group_134256" data-name="Group 134256" transform="translate(7.034 22.117)">
              <path id="Path_99828" data-name="Path 99828" d="M7.3,25.642a.783.783,0,0,1-.754-.579L.027.987A.782.782,0,1,1,1.537.577L8.053,24.653a.784.784,0,0,1-.549.961A.808.808,0,0,1,7.3,25.642Z" transform="translate(0 0)" fill="#343b47"/>
            </g>
            <g id="Group_134257" data-name="Group 134257" transform="translate(21.627 20.748)">
              <path id="Path_99829" data-name="Path 99829" d="M.783,27.011a.764.764,0,0,1-.2-.024.784.784,0,0,1-.563-.953L6.536.589A.782.782,0,1,1,8.05.979L1.539,26.423A.783.783,0,0,1,.783,27.011Z" transform="translate(0 0)" fill="#343b47"/>
            </g>
            <g id="Group_134258" data-name="Group 134258" transform="translate(7.821 57.545)">
              <path id="Path_99830" data-name="Path 99830" d="M20.322,1.568l-19.541,0A.783.783,0,0,1,.782,0L20.322,0a.783.783,0,0,1,0,1.566Z" transform="translate(0 0)" fill="#343b47"/>
            </g>
            <g id="Group_134259" data-name="Group 134259" transform="translate(7.82 51.869)">
              <path id="Path_99831" data-name="Path 99831" d="M20.322,1.568l-19.541,0A.783.783,0,0,1,.782,0L20.322,0a.783.783,0,0,1,0,1.566Z" transform="translate(0 0)" fill="#343b47"/>
            </g>
            <g id="Group_134260" data-name="Group 134260" transform="translate(7.821 62.242)">
              <path id="Path_99832" data-name="Path 99832" d="M20.322,1.568l-19.541,0A.783.783,0,0,1,.782,0L20.322,0a.783.783,0,0,1,0,1.566Z" transform="translate(0 0)" fill="#343b47"/>
            </g>
            <g id="Group_134261" data-name="Group 134261" transform="translate(12.119 48.541)">
              <path id="Path_99833" data-name="Path 99833" d="M.783,12.551A.782.782,0,0,1,0,11.768V.783a.782.782,0,1,1,1.563,0V11.768A.782.782,0,0,1,.783,12.551Z" transform="translate(0 0)" fill="#fff"/>
            </g>
            <g id="Group_134262" data-name="Group 134262" transform="translate(11.73 66.94)">
              <path id="Path_99834" data-name="Path 99834" d="M12.506,1.567H.782A.783.783,0,0,1,.781,0H12.506a.783.783,0,0,1,0,1.566Z" transform="translate(0 0)" fill="#343b47"/>
            </g>
            <g id="Group_134263" data-name="Group 134263" transform="translate(7.035 14.16)">
              <path id="Path_99835" data-name="Path 99835" d="M10.553,15.915V3.78L4.818,9.523H.782a.783.783,0,0,1,0-1.566H4.17L12.114,0V12.136l5.537-5.547h4.232a.783.783,0,0,1,0,1.566H18.3Z" transform="translate(0 0)" fill="#fff"/>
            </g>
          </g>
          <path id="Path_99836" data-name="Path 99836" d="M1.35,1.744V.244L2.458,1.4,3.673,0V1.742L5.2,1.974l-1.4.724L4.822,4.32,3.054,3.681,2.635,5.226,2.109,3.462.416,4.324l.933-1.464L0,1.871Z" transform="translate(32.245 25.868) rotate(135)" fill="#fff"/>
          <path id="Path_99837" data-name="Path 99837" d="M1.887,2.437l0-2.1L3.435,1.96,5.134,0l0,2.435,2.142.324L5.322,3.771,6.74,6.037,4.268,5.144,3.683,7.3,2.947,4.838.582,6.042,1.885,4,0,2.614Z" transform="translate(49.797 5.143) rotate(-45)" fill="#fff"/>
          <path id="Path_99838" data-name="Path 99838" d="M2.583,3.337l0-2.87L4.7,2.683,7.028,0l0,3.333,2.932.443L7.286,5.162l1.941,3.1L5.843,7.042,5.041,10,4.034,6.623.8,8.272l1.784-2.8L0,3.579Z" transform="translate(86.616 37.773) rotate(135)" fill="#fff"/>
          <path id="Path_99839" data-name="Path 99839" d="M0,68.473s27.581-2.412,22.535-23.36c0,0-2-14.451-10.979-10.075S7.94,56.3,26.595,49.012s11.328-37.332-.024-30.685,5.209,21.6,16.069,8.131S49.27,0,49.27,0" transform="matrix(0.829, 0.559, -0.559, 0.829, 110.802, 22.231)" fill="none" stroke="#fff" stroke-linecap="round" stroke-miterlimit="10" stroke-width="1" opacity="0.499"/>
          <path id="Path_99840" data-name="Path 99840" d="M0,0S11.721,1.026,9.577,9.931c0,0-.847,6.143-4.665,4.282s-1.538-9.04,6.39-5.94,4.815,15.87-.009,13.044,2.213-9.181,6.829-3.456S20.94,29.109,20.94,29.109" transform="matrix(0.883, -0.469, 0.469, 0.883, 0, 32.387)" fill="none" stroke="#fff" stroke-linecap="round" stroke-miterlimit="10" stroke-width="1" opacity="0.499"/>
        </g>
      </g>
    </g>
    <g id="Group_133988" data-name="Group 133988" transform="translate(3331 5676.383)">
      <g id="Group_133987" data-name="Group 133987" transform="translate(57)" clip-path="url(#clip-path-10)">
        <g id="Group_133930" data-name="Group 133930" transform="translate(-108.056)">
          <g id="Group_133929" data-name="Group 133929" clip-path="url(#clip-path-11)">
            <path id="Path_97866" data-name="Path 97866" d="M114.707,117.8s-11.141-7.384-1.979-24.553L96.108,82.161a4.573,4.573,0,0,1,4.792-7.782L122.11,86.407l3.936,19.771Z" transform="translate(84.262 66.089)" fill="#efa189"/>
            <path id="Path_97867" data-name="Path 97867" d="M138.085,121.067s-23.13-7.505-27.6-23.943L93.864,86.04a4.572,4.572,0,0,1,4.792-7.78l21.209,12.028,3.936,19.771Z" transform="translate(82.253 69.565)" fill="#efa189"/>
            <path id="Path_97868" data-name="Path 97868" d="M120.412,126.214a50.108,50.108,0,0,1-11.255-24.388c-.734-4.94-16.506-13.45-16.506-13.45a4.573,4.573,0,0,1,4.794-7.782l21.207,12.028L129.142,116.7Z" transform="translate(81.166 71.655)" fill="#efa189"/>
            <path id="Path_97869" data-name="Path 97869" d="M122.156,126.015s-14.942-17.126-5.564-34.7L99.578,79.968A4.681,4.681,0,0,1,104.484,72s18.057,7.255,21.712,12.313c3.022,4.182,11.371,34.013,11.371,34.013Z" transform="translate(87.328 63.948)" fill="#efa189"/>
            <path id="Path_97870" data-name="Path 97870" d="M113.914,91.787a.72.72,0,0,1-.4-.121L96.494,80.185a.71.71,0,0,1-.279-.809.756.756,0,0,0,.063-.36,4.351,4.351,0,0,0-1.966,1.714A.71.71,0,1,1,93.091,80c.959-1.621,2.811-2.652,3.882-2.163a1.29,1.29,0,0,1,.715,1.437l16.624,11.209a.711.711,0,0,1-.4,1.3" transform="translate(83.295 69.614)"/>
            <path id="Path_97871" data-name="Path 97871" d="M112.924,94.644a.724.724,0,0,1-.394-.118l-17.2-11.435a3.664,3.664,0,0,0-4.9,1.34.71.71,0,1,1-1.223-.722,5.092,5.092,0,0,1,6.866-1.827l17.249,11.46a.711.711,0,0,1-.394,1.3" transform="translate(79.813 72.756)"/>
            <path id="Path_97872" data-name="Path 97872" d="M116.968,88.928a.732.732,0,0,1-.392-.116L97.393,76.151a.711.711,0,0,1,.785-1.187l19.183,12.66a.711.711,0,0,1-.392,1.3" transform="translate(86.951 67.042)"/>
            <path id="Path_97873" data-name="Path 97873" d="M248.309,182.5,233.146,361.991l-38.6-.826L197.3,185.53Z" transform="translate(174.257 163.467)" fill="#efa189"/>
            <path id="Path_97874" data-name="Path 97874" d="M170.671,171.3s-23.353,47.059-20.679,78.856,19.024,126.282,19.024,126.282l40.256-3.585L205.412,240.5l24.263-46.6Z" transform="translate(134.161 153.435)" fill="#efa189"/>
            <path id="Path_97875" data-name="Path 97875" d="M168.319,71.2l2.047,26.362,28.817-4.095L187.312,58.509Z" transform="translate(150.767 52.408)" fill="#fd521b"/>
          </g>
        </g>
        <g id="Group_133937" data-name="Group 133937" transform="translate(-108.056)">
          <g id="Group_133936" data-name="Group 133936" clip-path="url(#clip-path-11)">
            <path id="Path_98137" data-name="Path 98137" d="M264.5,123.419l.245,120.066-71.014,8.3,3.661-69.308-13.666-5.124,1.708-50.271Z" transform="translate(164.565 110.549)"/>
            <path id="Path_98138" data-name="Path 98138" d="M191.331,148.806l-33.266,78.587,63.77,22.443,37.094-128.606Z" transform="translate(141.582 108.589)"/>
            <path id="Path_98139" data-name="Path 98139" d="M172.205,68.549l8.514,18.174,15.719-6.059-7.613-20.385Z" transform="translate(154.249 53.994)" fill="#efa189"/>
            <path id="Path_98140" data-name="Path 98140" d="M190.874,65.766l-2.049-5.486-16.62,8.267,4.159,8.88a23.334,23.334,0,0,0,14.51-11.661" transform="translate(154.248 53.994)"/>
            <path id="Path_98141" data-name="Path 98141" d="M386.856,139.88c-11.261-25.022-50.895-56.948-72.849-73.3a30.151,30.151,0,0,0-30.993-3.056l-36.25,17.27c-6.085,1.727-38.5,12.08-51.268,30.244-8,11.388-34.072,53.448-34.072,53.448l-28.279-41.471-30.161,18.641s25.3,79.069,57.81,77.92c29.681-1.048,59.069-45.873,59.069-45.873l15.708,37.077,90.068-25.346,6.7,10.682s70.642-20.4,54.513-56.237m-58.447,20.5-11.422-25.949,20.65,18.366Z" transform="translate(92.246 54.276)" fill="#ffb6c8"/>
          </g>
        </g>
        <g id="Group_133947" data-name="Group 133947" transform="translate(-108.056)">
          <g id="Group_133946" data-name="Group 133946" clip-path="url(#clip-path-11)">
            <path id="Path_98663" data-name="Path 98663" d="M191.841,85.633A29.048,29.048,0,0,0,205.985,66.8l-17.716,8.442a153.091,153.091,0,0,0-19.979,7.482c3.848,3.4,12.7,9.192,23.551,2.912" transform="translate(150.741 59.832)" fill="#efa189"/>
            <path id="Path_98664" data-name="Path 98664" d="M144.473,132.461a.943.943,0,0,1-.794-.43l-11.469-17.573a.948.948,0,0,1,1.589-1.035L145.267,131a.948.948,0,0,1-.794,1.465" transform="translate(118.286 101.21)"/>
            <path id="Path_98665" data-name="Path 98665" d="M171.6,140.306a.948.948,0,0,1-.9-.648l-11.467-34.591a.948.948,0,0,1,1.8-.6l11.469,34.6a.942.942,0,0,1-.9,1.244" transform="translate(142.584 92.993)"/>
            <path id="Path_98666" data-name="Path 98666" d="M160.087,108.583a.945.945,0,0,1-.914-.7l-6.1-22.383A.948.948,0,1,1,154.9,85l6.1,22.385a.945.945,0,0,1-.664,1.162.884.884,0,0,1-.25.034" transform="translate(137.078 75.513)"/>
            <path id="Path_98667" data-name="Path 98667" d="M208.08,96.765a.95.95,0,0,1-.936-.809l-4.626-31.448a.949.949,0,0,1,1.879-.277l4.624,31.448a.948.948,0,0,1-.8,1.077.847.847,0,0,1-.138.009" transform="translate(181.391 56.808)"/>
            <path id="Path_98668" data-name="Path 98668" d="M219.242,129.385a.947.947,0,0,1-.6-1.681l31.793-25.966a.948.948,0,1,1,1.2,1.467l-31.8,25.966a.94.94,0,0,1-.6.214" transform="translate(195.532 90.938)"/>
            <path id="Path_98669" data-name="Path 98669" d="M227.407,112.851a.972.972,0,0,1-.368-.074.949.949,0,0,1-.506-1.242l5.117-12.153a.948.948,0,0,1,1.748.736l-5.117,12.153a.95.95,0,0,1-.874.58" transform="translate(202.845 88.5)"/>
            <path id="Path_98670" data-name="Path 98670" d="M242.261,125.346a.947.947,0,0,1-.66-.267L209.347,93.827a.947.947,0,1,1,1.318-1.361l32.256,31.251a.948.948,0,0,1-.66,1.628" transform="translate(187.259 82.585)"/>
            <path id="Path_98671" data-name="Path 98671" d="M219.66,100a.886.886,0,0,1-.286-.045l-11.788-3.746a.948.948,0,1,1,.574-1.807l11.786,3.746A.948.948,0,0,1,219.66,100" transform="translate(185.348 84.521)"/>
            <path id="Path_98672" data-name="Path 98672" d="M215.5,247.782l-.034,0a.944.944,0,0,1-.914-.976l3.973-121.694a.887.887,0,0,1,.978-.918.949.949,0,0,1,.918.978l-3.973,121.694a.951.951,0,0,1-.948.918" transform="translate(192.178 111.238)" fill="#fff"/>
            <path id="Path_98673" data-name="Path 98673" d="M163.729,62.3c.883-11.426,10.309-19.5,22.944-16.317,10.191,2.571,15.262,12.163,12.868,23.369s-8.658,15.706-19.156,16.2c-14.931.694-17.7-9.765-16.656-23.247" transform="translate(146.48 40.564)" fill="#efa189"/>
            <path id="Path_98674" data-name="Path 98674" d="M167.276,56.523l-6.385-1.554,6.138,7.122Z" transform="translate(144.114 49.237)" fill="#efa189"/>
            <path id="Path_98675" data-name="Path 98675" d="M166.714,63.7a4.494,4.494,0,0,1-1.28-.176.948.948,0,0,1,.533-1.82c1.975.586,5.063-1.5,6.085-2.354a.947.947,0,1,1,1.215,1.454c-.4.332-3.562,2.9-6.553,2.9" transform="translate(147.573 52.966)"/>
            <path id="Path_98676" data-name="Path 98676" d="M164.789,58.027S166.823,48.006,176.637,55c0,0-3.323,6.99-11.848,3.027" transform="translate(147.606 47.043)" fill="#fff"/>
            <path id="Path_98677" data-name="Path 98677" d="M174.243,52.854a.941.941,0,0,1-.512-.152,11.8,11.8,0,0,0-6.646-1.661.947.947,0,1,1-.178-1.886,13.545,13.545,0,0,1,7.854,1.956.947.947,0,0,1-.518,1.742" transform="translate(148.733 43.987)"/>
            <path id="Path_98678" data-name="Path 98678" d="M187.31,72.669s-2.955,42.957-6.618,63.858c0,0,24.534-1.8,23.425-16.14-1.046-13.566-4.7-54.851-6.775-62.991-2.025-7.945-14.034-15.027-26.97-11.293L184.9,52.529Z" transform="translate(152.606 40.377)" fill="#fd521b"/>
          </g>
        </g>
        <g id="Group_133954" data-name="Group 133954" transform="translate(-108.056)">
          <g id="Group_133953" data-name="Group 133953" clip-path="url(#clip-path-11)">
            <path id="Path_98940" data-name="Path 98940" d="M196.655,66.682c.489-9.8-5.628-18.406-14.728-20.7A19.045,19.045,0,0,0,168.828,47c.176,2.881,2.214,6.9,12.459,6.241,0,0-1.227,14.622,11.79,15.882Z" transform="translate(151.223 40.567)" fill="#fd521b"/>
            <path id="Path_98941" data-name="Path 98941" d="M163.78,306.557l40.256-3.585-1.566-53.662-46.841,8.273c4.282,26.62,8.152,48.974,8.152,48.974" transform="translate(139.4 223.313)" fill="#5774cd"/>
          </g>
        </g>
        <g id="Group_133961" data-name="Group 133961" transform="translate(-108.056)">
          <g id="Group_133960" data-name="Group 133960" clip-path="url(#clip-path-11)">
            <path id="Path_99136" data-name="Path 99136" d="M195.212,254.279l-.669,42.587,38.6.828L236.8,254.41Z" transform="translate(174.257 227.764)" fill="#5774cd"/>
            <path id="Path_99137" data-name="Path 99137" d="M194.4,223.436l-.049,0a.946.946,0,0,1-.9-1l3.4-64.356-13.016-4.88a.948.948,0,0,1,.665-1.774l13.666,5.124a.949.949,0,0,1,.614.936l-3.437,65.048a.947.947,0,0,1-.946.9" transform="translate(164.117 135.584)" fill="#fff"/>
            <path id="Path_99138" data-name="Path 99138" d="M216.135,118.782l16.525-6.011a5.141,5.141,0,0,1,6.645,3.439,5.517,5.517,0,0,1-3.608,6.982l-16.885,4.775a4.563,4.563,0,0,1-5.64-3.469,4.869,4.869,0,0,1,2.963-5.716" transform="translate(190.822 100.739)" fill="#efa189"/>
            <path id="Path_99139" data-name="Path 99139" d="M219.809,133.743l20.119-6a5.085,5.085,0,0,0,3.494-5.24l-.03-.493a4.84,4.84,0,0,0-6.191-4.544l-20.089,6.493a5.14,5.14,0,0,0-3.282,6.017,4.79,4.79,0,0,0,5.979,3.767" transform="translate(191.423 105.017)" fill="#efa189"/>
            <path id="Path_99140" data-name="Path 99140" d="M217.627,132.482h0a4.431,4.431,0,0,1,2.933-5l13.24-4.5a4.433,4.433,0,0,1,5.448,2.332l.474,1.026a4.431,4.431,0,0,1-2.931,6.159l-13.717,3.475a4.43,4.43,0,0,1-5.446-3.494" transform="translate(194.868 109.948)" fill="#efa189"/>
            <path id="Path_99141" data-name="Path 99141" d="M220.292,134.956h0a3.835,3.835,0,0,1,2.519-3.79l11-3.5a3.308,3.308,0,0,1,4.155,2.533l.322,1.246a3.876,3.876,0,0,1-2.73,4.825l-11.321,2.252a3.451,3.451,0,0,1-3.945-3.568" transform="translate(197.32 114.224)" fill="#efa189"/>
            <path id="Path_99142" data-name="Path 99142" d="M238.664,117.222l-.015-.017a.427.427,0,0,0-.6,0,7.678,7.678,0,0,1-2.662,1.446l-17.82,5.261a7.288,7.288,0,0,0-3.932,3.369,4.773,4.773,0,0,0,.091,3.907c2.176,5.181,9.647,2.506,10.112,2.334l10.671-2.969c.8-.226,5.105-1.645,6.184-2.085a.426.426,0,1,0-.322-.789c-1.06.432-5.3,1.831-6.091,2.053L223.591,132.7l-.042.013c-.07.027-7.126,2.7-9.041-1.862a3.957,3.957,0,0,1-.1-3.232,6.507,6.507,0,0,1,3.414-2.9l17.793-5.253a8.4,8.4,0,0,0,3.027-1.659.426.426,0,0,0,.017-.586" transform="translate(191.021 104.871)"/>
            <path id="Path_99143" data-name="Path 99143" d="M239.19,129.668a.427.427,0,0,0-.48-.11c-1.046.428-7.608,2.2-8.715,2.455-1.039.235-4.394,1.134-4.536,1.172-.063.017-6.326,1.613-7.414-2.425a3.259,3.259,0,0,1,1.49-3.664,8.328,8.328,0,0,1,2.334-1.16.426.426,0,0,0-.231-.821c-1.926.544-5.331,2.468-4.415,5.865,1.048,3.886,5.989,3.68,8.455,3.027.036-.009,3.484-.933,4.506-1.164,1.041-.235,7.708-2.03,8.851-2.5a.426.426,0,0,0,.155-.677" transform="translate(194.434 112.054)"/>
            <path id="Path_99144" data-name="Path 99144" d="M233.872,112.335a.426.426,0,0,0-.455-.119c-.106.034-10.7,3.611-15,5.109-4.531,1.577-6.593,4.47-5.659,7.939,1.118,4.15,5.562,3.858,5.608,3.856a.426.426,0,1,0-.064-.849c-.155.009-3.786.233-4.72-3.228-.815-3.026,1-5.481,5.115-6.914,4.3-1.5,14.889-5.071,15-5.107a.423.423,0,0,0,.267-.538.409.409,0,0,0-.085-.148" transform="translate(190.374 100.494)"/>
            <path id="Path_99145" data-name="Path 99145" d="M417.425,372.283a1.894,1.894,0,0,1-1.255-3.316c41.171-36.411,65.721-87.029,69.126-142.526s-14.773-108.735-51.185-149.9S347.082,10.816,291.583,7.411,182.848,22.185,141.677,58.6A208.129,208.129,0,0,0,75.218,176.049a1.895,1.895,0,0,1-3.727-.688,211.912,211.912,0,0,1,67.675-119.6C181.094,18.676,235.288.16,291.816,3.625c56.508,3.467,108.051,28.468,145.135,70.4s55.6,96.145,52.129,152.651-28.468,108.051-70.4,145.133a1.869,1.869,0,0,1-1.255.476" transform="translate(64.008 2.879)" fill="#ffc849"/>
            <path id="Path_99146" data-name="Path 99146" d="M176.11,59.052a6.279,6.279,0,1,1,4.836,7.556,6.34,6.34,0,0,1-4.836-7.556" transform="translate(157.621 48.304)" fill="#efa189"/>
            <path id="Path_99147" data-name="Path 99147" d="M178.744,61.869A.949.949,0,0,1,178,60.325l3.837-4.772a.948.948,0,0,1,1.477,1.189l-3.835,4.773a.951.951,0,0,1-.739.353" transform="translate(159.257 49.445)"/>
            <path id="Path_99148" data-name="Path 99148" d="M182.226,60.531a.933.933,0,0,1-.48-.131l-2.681-1.572a.948.948,0,1,1,.959-1.636l2.681,1.573a.947.947,0,0,1-.48,1.765" transform="translate(159.973 51.114)"/>
          </g>
        </g>
        <g id="Group_133963" data-name="Group 133963" transform="translate(204.338 99.563)">
          <g id="Group_133962" data-name="Group 133962" clip-path="url(#clip-path-20)">
            <path id="Path_99149" data-name="Path 99149" d="M172.95,56.784a4.348,4.348,0,1,1-4.347-4.347,4.347,4.347,0,0,1,4.347,4.347" transform="translate(-165.268 -52.594)"/>
          </g>
        </g>
        <g id="Group_133965" data-name="Group 133965" transform="translate(-108.056)">
          <g id="Group_133964" data-name="Group 133964" clip-path="url(#clip-path-11)">
            <path id="Path_99151" data-name="Path 99151" d="M228.374,272.692l7.082,46.87-105,1.5V301.4c-.07-9.348,5.888-17.6,14.017-19.418l37.518-8.394s22.387,9.9,34.671,8.533,11.714-9.428,11.714-9.428" transform="translate(116.851 244.257)" fill="#ffb6c8"/>
            <path id="Path_99152" data-name="Path 99152" d="M235.682,294.383h0l-104.561-.157a.948.948,0,0,1,0-1.9h0l104.561.157a.948.948,0,0,1,0,1.9" transform="translate(116.6 261.847)"/>
            <path id="Path_99153" data-name="Path 99153" d="M146.767,308.962a.945.945,0,0,1-.94-.849L142.6,276.972a.947.947,0,0,1,1.884-.2l3.227,31.141a.948.948,0,0,1-.844,1.041.88.88,0,0,1-.1.006" transform="translate(127.726 247.153)"/>
            <path id="Path_99154" data-name="Path 99154" d="M200.074,269.613l-11.706,54.013h77.89l1.033-13.391c1.312-15.17-9.852-28.739-25.6-31.118l-2.571-.389s-24.688,7.545-32.468,2.3c-3.791-2.554-6.574-11.414-6.574-11.414" transform="translate(168.726 241.499)" fill="#ffb6c8"/>
          </g>
        </g>
        <g id="Group_133972" data-name="Group 133972" transform="translate(-108.056)">
          <g id="Group_133971" data-name="Group 133971" clip-path="url(#clip-path-11)">
            <path id="Path_99367" data-name="Path 99367" d="M206.875,282.03a.948.948,0,0,1-.546-1.723c9.137-6.428,23.844-6.944,24.466-6.963a.929.929,0,0,1,.976.918.95.95,0,0,1-.919.978c-.148,0-14.764.519-23.431,6.618a.941.941,0,0,1-.546.173" transform="translate(184.454 244.841)"/>
            <path id="Path_99368" data-name="Path 99368" d="M208.762,283.821a.948.948,0,0,1-.546-1.723c9.137-6.428,23.846-6.944,24.468-6.963a.981.981,0,0,1,.976.918.95.95,0,0,1-.919.978c-.148,0-14.766.519-23.433,6.618a.941.941,0,0,1-.546.173" transform="translate(186.144 246.445)"/>
            <path id="Path_99369" data-name="Path 99369" d="M265.762,294.309H191.025a.948.948,0,0,1,0-1.9h74.737a.948.948,0,1,1,0,1.9" transform="translate(170.257 261.921)"/>
            <path id="Path_99370" data-name="Path 99370" d="M162.594,283.815a.941.941,0,0,1-.76-.383l-8.243-11.086a.947.947,0,1,1,1.522-1.128l8.241,11.084a.946.946,0,0,1-.2,1.325.936.936,0,0,1-.565.188" transform="translate(137.408 242.592)"/>
            <path id="Path_99371" data-name="Path 99371" d="M158.471,285.191a.944.944,0,0,1-.76-.381l-8.244-11.084a.949.949,0,0,1,1.522-1.134l8.243,11.084a.948.948,0,0,1-.76,1.515" transform="translate(133.713 243.826)"/>
            <path id="Path_99372" data-name="Path 99372" d="M84.158,114.687h0a4.452,4.452,0,0,1,.62-6.191l55.706-46.711a4.454,4.454,0,0,1,6.343.635l2.2,2.753a4.455,4.455,0,0,1-.789,6.326l-57.9,43.958a4.454,4.454,0,0,1-6.174-.77" transform="translate(74.51 54.41)" fill="#5774cd"/>
          </g>
        </g>
        <g id="Group_133979" data-name="Group 133979" transform="translate(-108.056)">
          <g id="Group_133978" data-name="Group 133978" clip-path="url(#clip-path-11)">
            <path id="Path_99575" data-name="Path 99575" d="M72.648,101.446c-4.6-2.483,5.551-2.038,11.223-10.144a5.846,5.846,0,1,1,7.024,8.8s-10.282,5.644-18.246,1.342" transform="translate(64.032 79.597)" fill="#ffc849"/>
          </g>
        </g>
        <g id="Group_133986" data-name="Group 133986" transform="translate(-108.056)">
          <g id="Group_133985" data-name="Group 133985" clip-path="url(#clip-path-11)">
            <path id="Path_99710" data-name="Path 99710" d="M85.252,95.954l-3.725-4.667a2.79,2.79,0,0,1,4.362-3.481l3.725,4.667a2.79,2.79,0,0,1-4.362,3.481" transform="translate(72.48 77.71)"/>
            <path id="Path_99711" data-name="Path 99711" d="M113.946,102.366,101.263,80.211a5.846,5.846,0,0,1,9.918-6.176l17.391,25.852Z" transform="translate(90.012 64.003)" fill="#efa189"/>
            <path id="Path_99712" data-name="Path 99712" d="M108.884,111.391a.712.712,0,0,1-.684-.519c-2.445-8.735-.468-18.527-.07-20.313L100.49,76.7a.711.711,0,0,1,1.246-.688l7.771,14.1a.7.7,0,0,1,.068.512c-.027.106-2.552,10.781-.006,19.867a.71.71,0,0,1-.491.876.7.7,0,0,1-.193.027" transform="translate(89.932 67.758)"/>
            <path id="Path_99713" data-name="Path 99713" d="M119.337,92.561a.716.716,0,0,1-.591-.315L107.45,75.469a.712.712,0,1,1,1.181-.794l11.3,16.777a.713.713,0,0,1-.2.988.706.706,0,0,1-.4.121" transform="translate(96.137 66.606)"/>
          </g>
        </g>
      </g>
    </g>
  </g>
</svg>
