<?xml version="1.0" encoding="UTF-8"?>
<svg xmlns="http://www.w3.org/2000/svg" version="1.1" viewBox="0 0 1920 780.5">
  <!-- Generator: Adobe Illustrator 29.1.0, SVG Export Plug-In . SVG Version: 2.1.0 Build 142)  -->
  <defs>
    <style>
      .st0 {
        fill: #f0ecea;
      }

      .st1 {
        fill: #ff514c;
      }

      .st2 {
        fill: #d9dae6;
      }

      .st3 {
        fill: #8b68ff;
      }

      .st4 {
        fill: #9a79ff;
      }

      .st5 {
        fill: #f5c9a0;
      }

      .st6 {
        fill: #004282;
      }

      .st7 {
        fill: #392836;
      }

      .st8 {
        fill: #a8e9e3;
      }

      .st9 {
        fill: #44c9b7;
        mix-blend-mode: multiply;
        opacity: .4;
      }

      .st10 {
        fill: #fb8e31;
      }

      .st11 {
        isolation: isolate;
      }

      .st12 {
        fill: #59c54f;
      }

      .st13 {
        fill: #c95136;
      }

      .st14 {
        fill: #fbc93b;
      }

      .st15 {
        fill: #6b8bfa;
      }

      .st16 {
        fill: #feac00;
      }

      .st17 {
        fill: #fff;
      }

      .st18 {
        fill: #b391ff;
      }

      .st19 {
        fill: #f9fbfc;
      }

      .st20 {
        fill: #35b8a2;
      }

      .st21 {
        fill: #cf664e;
      }

      .st22 {
        fill: #ec5b72;
      }

      .st23 {
        fill: #51424e;
      }

      .st24 {
        fill: #f3f5f5;
      }

      .st25 {
        fill: #fbb03b;
      }

      .st26 {
        fill: #44d8c8;
      }

      .st27 {
        fill: #4dcaad;
      }

      .st28 {
        fill: #d1dbfa;
      }

      .st29 {
        fill: #38c4b2;
      }

      .st30 {
        fill: #fbefa0;
      }

      .st31 {
        fill: #f5b094;
      }

      .st32 {
        fill: #ecf3fa;
      }
    </style>
  </defs>
  <g class="st11">
    <g id="_图层_3" data-name="图层_3">
      <rect class="st6" x="-67" y="-113.7" width="2076" height="957.4"/>
    </g>
    <g id="_图层_1" data-name="图层_1">
      <path class="st20" d="M1855.5,608.8v51h-55.2v-49.2c-46-3.2-89.6-16.5-116.3-34.9l29.9-67.1c28.5,18.8,68.9,31.7,106.2,31.7s52.4-10.6,52.4-26.2c0-51-182.9-13.8-182.9-133.3s36.3-93.3,110.8-102.5v-50.6h55.2v49.6c34,2.8,67.6,11.9,93.3,27.1l-28,67.6c-30.8-16.5-61.1-24.8-89.2-24.8s-51.9,12.9-51.9,29c0,49.2,182.5,12.4,182.5,131s-34.9,91-106.6,101.6Z"/>
      <rect class="st9" x="1358.6" y="281" width="255.3" height="232.1"/>
      <rect class="st9" x="1497.9" y="321.1" width="255.3" height="232.1"/>
      <rect class="st32" x="1236.4" y="370.7" width="599" height="409.7" rx="6" ry="6"/>
      <path class="st8" d="M1819.8,370.7h-567.9c-8.6,0-15.6,7-15.6,15.6v54.5h599v-54.5c0-8.6-7-15.6-15.6-15.6Z"/>
      <path class="st15" d="M1663.4,407.9c0,4.8-3.9,8.6-8.6,8.6s-8.6-3.9-8.6-8.6,3.9-8.6,8.6-8.6,8.6,3.9,8.6,8.6Z"/>
      <path class="st12" d="M1722.1,407.9c0,4.8-3.9,8.6-8.6,8.6s-8.6-3.9-8.6-8.6,3.9-8.6,8.6-8.6,8.6,3.9,8.6,8.6Z"/>
      <path class="st22" d="M1780.9,407.9c0,4.8-3.9,8.6-8.6,8.6s-8.6-3.9-8.6-8.6,3.9-8.6,8.6-8.6,8.6,3.9,8.6,8.6Z"/>
      <rect class="st28" x="1568.3" y="473.2" width="35" height="162.1"/>
      <rect class="st1" x="1568.3" y="546.4" width="35" height="88.8"/>
      <rect class="st28" x="1614.3" y="473.2" width="35" height="162.1"/>
      <rect class="st15" x="1614.3" y="582.5" width="35" height="52.7"/>
      <rect class="st28" x="1660.3" y="473.2" width="35" height="162.1"/>
      <rect class="st26" x="1660.3" y="560.9" width="35" height="74.3"/>
      <rect class="st28" x="1706.4" y="473.2" width="35" height="162.1"/>
      <rect class="st25" x="1706.4" y="524.6" width="35" height="110.6"/>
      <rect class="st28" x="1752.4" y="473.2" width="35" height="162.1"/>
      <rect class="st4" x="1752.4" y="546.4" width="35" height="88.8"/>
      <circle class="st1" cx="1412.7" cy="594.6" r="114.1" transform="translate(-115.5 477.4) rotate(-18.4)"/>
      <path class="st26" d="M1412.7,594.6l65.6-93.3c-18.6-13.1-41.2-20.8-65.6-20.8s-34.2,4-49,11l49,103Z"/>
      <path class="st25" d="M1412.7,480.5c-63,0-114.1,51.1-114.1,114.1h114.1v-114.1Z"/>
      <rect class="st28" x="1568.3" y="645" width="149.1" height="6.5"/>
      <rect class="st28" x="1568.3" y="658.6" width="149.1" height="6.5"/>
      <rect class="st28" x="1568.3" y="674.8" width="128.8" height="6.5"/>
      <rect class="st28" x="1568.3" y="691" width="78.4" height="6.5"/>
      <rect class="st28" x="1568.3" y="726" width="219.1" height="3.9"/>
      <rect class="st22" x="1568.3" y="723.3" width="9.3" height="9.3"/>
      <rect class="st15" x="1638.2" y="723.3" width="9.3" height="9.3"/>
      <rect class="st16" x="1708.1" y="723.3" width="9.3" height="9.3"/>
      <rect class="st12" x="1778" y="723.3" width="9.3" height="9.3"/>
      <circle class="st14" cx="1611.3" cy="366.7" r="59.7" transform="translate(1007.5 1904.9) rotate(-81.4)"/>
      <path class="st30" d="M1584.1,322.7c.7,0,1.5-.2,2.1-.6,7.4-4.2,16-6.6,25.1-6.6s17.7,2.4,25.1,6.6c.7.4,1.4.6,2.1.6h0c4.4,0,6-5.9,2.1-8.1-8.7-4.9-18.7-7.7-29.3-7.7s-20.6,2.8-29.3,7.7c-3.9,2.2-2.3,8.1,2.1,8.1h0Z"/>
      <path class="st10" d="M1611.3,331.7c15.5,0,28.7,10.1,33.3,24.1.5,1.6,2,2.8,3.8,2.8h0c2.7,0,4.6-2.6,3.7-5.2-5.6-17.2-21.7-29.6-40.8-29.6s-35.2,12.4-40.8,29.6c-.8,2.6,1,5.2,3.7,5.2h0c1.7,0,3.2-1.1,3.8-2.8,4.6-14,17.7-24.1,33.3-24.1Z"/>
      <path class="st25" d="M1652.9,387.6c-2.8,0-5.5,1.4-7.1,3.6-7.7,10.8-20.3,17.8-34.5,17.8s-26.8-7-34.5-17.8c-1.6-2.3-4.3-3.6-7.1-3.6h0c-7.1,0-11.3,8-7.2,13.8,10.9,15.2,28.7,25.2,48.8,25.2s37.9-10,48.8-25.2c4.1-5.8-.1-13.8-7.2-13.8h0Z"/>
      <circle class="st14" cx="1231.5" cy="493.3" r="38.3"/>
      <path class="st30" d="M1214,465.1c.5,0,.9-.1,1.4-.4,4.8-2.7,10.2-4.2,16.1-4.2s11.3,1.5,16.1,4.2c.4.2.9.4,1.4.4h0c2.8,0,3.8-3.8,1.3-5.2-5.6-3.1-12-4.9-18.8-4.9s-13.2,1.8-18.8,4.9c-2.5,1.4-1.5,5.2,1.3,5.2h0Z"/>
      <path class="st10" d="M1231.5,470.8c10,0,18.4,6.5,21.3,15.5.3,1.1,1.3,1.8,2.4,1.8h0c1.7,0,2.9-1.7,2.4-3.3-3.6-11-13.9-19-26.1-19s-22.6,8-26.1,19c-.5,1.6.7,3.3,2.4,3.3h0c1.1,0,2.1-.7,2.4-1.8,2.9-9,11.4-15.5,21.3-15.5Z"/>
      <path class="st25" d="M1258.1,506.7c-1.8,0-3.5.9-4.6,2.3-4.9,6.9-13,11.4-22.1,11.4s-17.2-4.5-22.1-11.4c-1.1-1.5-2.8-2.3-4.6-2.3h0c-4.6,0-7.3,5.2-4.6,8.9,7,9.8,18.4,16.2,31.3,16.2s24.3-6.4,31.3-16.2c2.6-3.7,0-8.9-4.6-8.9h0Z"/>
      <path class="st13" d="M1861.5,594.5s-3.4,2.5-3.2,6.1c.2,3.6,1.9,7,1.9,7l3.1-5-1.8-8.2Z"/>
      <polygon class="st5" points="1818.2 644 1817.2 642.5 1816.5 640.7 1815.2 639.3 1814.7 640.4 1815.5 642.1 1815.7 643.8 1818.2 644"/>
      <path class="st5" d="M1821.1,647.4l-2.4-3.4-3.2-1.6s-6.8-1.4-6.9-.8c-.1.6,1,1.6,1,1.6,0,0,1.3,3.5,1.8,4,.6.4,6.2.6,6.2.6l2,1.8,1.6-2.1Z"/>
      <path class="st19" d="M1861,634.7l-17.6,34.7c-1.2,2.3-4.1,3-6.1,1.4h0c-1.5-1.1-2-3.1-1.3-4.8l15-36.9c1.1-2.6,4.4-3.4,6.5-1.5l2.5,2.2c1.4,1.2,1.8,3.3,1,4.9Z"/>
      <polygon class="st24" points="1822.6 648.4 1820.4 645.8 1817.7 648.9 1819.3 650.7 1822.6 648.4"/>
      <path class="st19" d="M1822.5,647.1l19.9,20c1.4,1.4.9,3.8-1,4.4l-3.8,1.3c-1.1.4-2.3,0-3-.9l-15.8-20.9,3.8-4Z"/>
      <path class="st5" d="M1870.3,621.8h0c5.9,0,10.8-4.8,10.8-10.8v-9c0-5.9-4.8-10.8-10.8-10.8h0c-5.9,0-10.8,4.8-10.8,10.8v9c0,5.9,4.8,10.8,10.8,10.8Z"/>
      <path class="st5" d="M1868.2,619.7s-.8,6.4-2.2,7.8h11.2l-2.3-10.2-6.7,2.3Z"/>
      <polygon class="st7" points="1827.1 792.4 1826.5 795 1816.7 799.3 1833.3 799.3 1832.8 794 1833.1 792 1827.1 792.4"/>
      <polygon class="st7" points="1882.1 792.4 1881.6 795 1871.8 799.3 1888.4 799.3 1887.9 794 1888.2 792 1882.1 792.4"/>
      <polygon class="st23" points="1891.4 687.4 1889.2 736 1898.8 797 1889.2 797 1874.5 734.3 1866.6 683.4 1891.4 687.4"/>
      <polygon class="st23" points="1876.4 688.6 1856.6 743.4 1843.6 797.7 1834.6 797.7 1843.6 742.3 1850.4 686.4 1876.4 688.6"/>
      <path class="st25" d="M1894.2,632.7l-5,38.9,2.8,18.6h-42.4l1.6-59.5c0-2.4,2.1-4.2,4.4-4.1l34.5,1.3c2.5,0,4.4,2.3,4.1,4.8Z"/>
      <polygon class="st19" points="1902.2 671.6 1886.6 700.1 1882.7 696.8 1895.1 664.3 1902.2 671.6"/>
      <path class="st19" d="M1895.2,631.4l7,38.2c.5,2.5-1.5,4.8-4,4.8h0c-1.9,0-3.5-1.2-4-3l-10.4-38.5c-.7-2.7,1.4-5.3,4.2-5.2l3.4.2c1.9.1,3.4,1.5,3.7,3.3Z"/>
      <polygon class="st24" points="1879.6 627.5 1878.3 624.7 1869.7 625.8 1872.8 630.9 1879.6 627.5"/>
      <polygon class="st24" points="1866.2 624.7 1869.7 625.8 1867.4 629.9 1864.8 626.7 1866.2 624.7"/>
      <path class="st13" d="M1882.1,609.6s1.1-8.2.8-10.6c-.3-2.4-1.3-3.2-1.3-3.2,0,0-.6-3-2.1-4.2-1.6-1.3-6.5-3.5-10.2-3.2-3.7.3-7.9-1.1-8.3-1.4-.7-.3-2.4,5.6.4,8.6s11.4.8,14.5,2.4c3.1,1.6,2.7,2.8,2,4.8-.7,2,.4,10,.4,10l3.7-3.1Z"/>
      <path class="st5" d="M1879.6,608.6s1.6-4.4,3.8-2.7c2.3,1.7-1.3,8.8-2.8,8.3-1.6-.4-1-5.6-1-5.6Z"/>
      <path class="st5" d="M1217.6,621.8h0c-5.9,0-10.8-4.8-10.8-10.8v-9c0-5.9,4.8-10.8,10.8-10.8h0c5.9,0,10.8,4.8,10.8,10.8v9c0,5.9-4.8,10.8-10.8,10.8Z"/>
      <path class="st5" d="M1219.7,619.7s.8,6.4,2.2,7.8h-11.2l2.3-10.2,6.7,2.3Z"/>
      <polygon class="st31" points="1271.2 641.8 1272.2 640.3 1272.9 638.5 1274.2 637 1274.7 638.2 1273.9 639.8 1273.7 641.6 1271.2 641.8"/>
      <rect class="st0" x="1273.7" y="627" width="19.2" height="29.9"/>
      <path class="st5" d="M1268.3,645.2l2.4-3.4,3.2-1.6s6.8-1.4,6.9-.8c.1.6-1,1.6-1,1.6,0,0-1.3,3.5-1.8,4-.6.4-6.2.6-6.2.6l-2,1.8-1.6-2.1Z"/>
      <polygon class="st2" points="1188.1 672.5 1203.7 701 1207.6 697.6 1195.2 665.1 1188.1 672.5"/>
      <polygon class="st7" points="1244.1 792.4 1244.7 795 1254.4 799.3 1237.9 799.3 1238.3 794 1238 792 1244.1 792.4"/>
      <polygon class="st7" points="1189 792.4 1189.6 795 1199.3 799.3 1182.8 799.3 1183.2 794 1182.9 792 1189 792.4"/>
      <polygon class="st29" points="1197.7 687.4 1200 736 1190.4 797 1200 797 1214.7 734.3 1219.8 683.5 1197.7 687.4"/>
      <polygon class="st29" points="1212.8 688.6 1232.5 743.4 1245.5 797.7 1254.6 797.7 1245.5 742.3 1238.8 686.4 1212.8 688.6"/>
      <path class="st2" d="M1194.9,632.7l5.1,38.9-2.8,18.6h42.4l-1.6-59.5c0-2.4-2.1-4.2-4.4-4.1l-34.5,1.3c-2.5,0-4.4,2.3-4.1,4.8Z"/>
      <path class="st2" d="M1193.9,631.4l-7,38.2c-.5,2.5,1.5,4.8,4,4.8h0c1.9,0,3.5-1.2,4-3l10.4-38.5c.7-2.7-1.4-5.3-4.2-5.2l-3.4.2c-1.9.1-3.4,1.5-3.7,3.3Z"/>
      <path class="st2" d="M1229.8,634.7l17.6,34.7c1.2,2.3,4.1,3,6.1,1.4h0c1.5-1.1,2-3.1,1.3-4.8l-15-36.9c-1.1-2.6-4.4-3.4-6.5-1.5l-2.5,2.2c-1.4,1.2-1.8,3.3-1,4.9Z"/>
      <polygon class="st24" points="1266.8 646.2 1269 643.6 1271.7 646.7 1270.1 648.5 1266.8 646.2"/>
      <path class="st2" d="M1267.2,644.2l-19.9,20c-1.4,1.4-.9,3.8,1,4.4l3.8,1.3c1.1.4,2.3,0,3-.9l15.8-20.9-3.8-4Z"/>
      <path class="st13" d="M1205.8,598.1s-1.1,1.7-1.5,5.9c-.4,4.2,2.3,15.3,7.6,17.8,2.3.8,8.5-3.2,9.3-4,.8-.8,2.3-6.6,2.3-6.6,0,0-4-.8-3.2-5.1.8-4.2,2.5-3.4,3.2-2.5s1.3,2.3,1.3,2.3l1.1-1.9s-1.7-3-2.1-4.7c-.4-1.7,2.3-.6,3.8-2.3,1.5-1.7-.8-5.7-3.8-7-3-1.3-5.7,1.1-8.7,1.1s-9.1,1.1-9.3,7Z"/>
      <path class="st13" d="M1225.9,604s.9,1.8.6,4.6c-.3,2.8,1.6,2.3,2.3,3.5.7,1.3-2.1,7.5-4.8,8.3-2.8.8-4-3.8-4-3.8l2.7-4.1s1.7-1,2.1-2.4c.4-1.4-.3-4.9-.3-4.9l1.3-1.2Z"/>
      <g>
        <path class="st17" d="M-38.1,386.4V14.5c0-21.1,17.1-38.2,38.2-38.2h539.1c25.5,49.2,40,105,40,164.3,0,197.5-160.1,357.7-357.7,357.7-102.3,0-194.4-43-259.6-111.8Z"/>
        <g>
          <path class="st27" d="M418.6,439v-90.8h83.5v14.1c-23.6,29.8-51.7,55.7-83.5,76.7Z"/>
          <path class="st27" d="M280.2,276.1h83.5v192.7c-26.3,11.4-54.3,19.7-83.5,24.5v-217.2Z"/>
          <path class="st27" d="M19.6,95.8h83.5v382.3c-29.8-10.5-57.8-24.8-83.5-42.4V95.8Z"/>
          <path class="st27" d="M149.9,491V195.3h83.5v302.6c-3.9.1-7.9.3-11.8.3-24.5,0-48.5-2.5-71.6-7.2Z"/>
        </g>
        <g>
          <g>
            <g>
              <circle class="st14" cx="196.4" cy="321" r="45"/>
              <path class="st30" d="M216.9,287.9c-.6,0-1.1-.2-1.6-.4-5.6-3.1-12-4.9-18.9-4.9s-13.3,1.8-18.9,4.9c-.5.3-1,.4-1.6.4h0c-3.3,0-4.5-4.4-1.6-6.1,6.5-3.7,14-5.8,22.1-5.8s15.5,2.1,22.1,5.8c2.9,1.6,1.8,6.1-1.6,6.1h0Z"/>
              <path class="st10" d="M196.4,294.6c-11.7,0-21.6,7.6-25,18.2-.4,1.2-1.5,2.1-2.8,2.1h0c-2,0-3.4-2-2.8-3.9,4.2-12.9,16.4-22.3,30.7-22.3,14.3,0,26.5,9.4,30.7,22.3.6,1.9-.8,3.9-2.8,3.9h0c-1.3,0-2.4-.9-2.8-2.1-3.4-10.5-13.3-18.2-25-18.2Z"/>
              <path class="st25" d="M165.1,336.7c2.1,0,4.1,1,5.4,2.7,5.8,8.1,15.2,13.4,25.9,13.4s20.2-5.3,25.9-13.4c1.2-1.7,3.2-2.7,5.4-2.7h0c5.3,0,8.5,6,5.4,10.4-8.2,11.5-21.6,19-36.7,19s-28.6-7.5-36.7-19c-3.1-4.4,0-10.4,5.4-10.4h0Z"/>
            </g>
            <g>
              <circle class="st14" cx="101.3" cy="181.9" r="62.3" transform="translate(-99 124.9) rotate(-45)"/>
              <path class="st30" d="M129.6,136.1c-.8,0-1.5-.2-2.2-.6-7.7-4.4-16.6-6.9-26.1-6.9-9.5,0-18.4,2.5-26.1,6.9-.7.4-1.4.6-2.2.6h0c-4.6,0-6.2-6.1-2.2-8.4,9-5.1,19.4-8,30.5-8s21.5,2.9,30.5,8c4,2.3,2.4,8.4-2.2,8.4h0Z"/>
              <path class="st10" d="M101.3,145.5c-16.2,0-29.9,10.6-34.7,25.2-.6,1.7-2.1,2.9-3.9,2.9h0c-2.8,0-4.8-2.7-3.9-5.4,5.8-17.9,22.6-30.9,42.5-30.9s36.7,13,42.5,30.9c.9,2.7-1.1,5.4-3.9,5.4h0c-1.8,0-3.4-1.2-3.9-2.9-4.8-14.6-18.5-25.2-34.7-25.2Z"/>
              <path class="st25" d="M57.9,203.7c2.9,0,5.7,1.4,7.4,3.8,8,11.2,21.1,18.5,35.9,18.5s27.9-7.3,35.9-18.5c1.7-2.4,4.5-3.8,7.4-3.8h0c7.4,0,11.8,8.4,7.5,14.4-11.3,15.9-29.9,26.3-50.9,26.3s-39.5-10.4-50.9-26.3c-4.3-6,.1-14.4,7.5-14.4h0Z"/>
            </g>
            <path class="st18" d="M9.8,397.3c1.9-4,4-.5,4-.5,4.6,18.1,16,28,26.9,33.5,8.7-60.6,72.2-107.6,149.2-107.6,34.9,0,67,9.7,92.5,26,12.8-13.2,29.5-16,38.5-16.4,3-.1,5,3,3.7,5.7l-15.5,32.6c12.8,13.6,22.2,29.4,27.1,46.6h7.8c5.6,0,10.1,4.5,10.1,10.1v44.3c0,5.6-4.5,10.1-10.1,10.1h-11c-9.4,24-27.8,44.7-51.9,59.6v32.7c0,4.7-3.8,8.6-8.6,8.6h-34.4c-4.7,0-8.6-3.8-8.6-8.6v-12c-12.7,2.8-26,4.4-39.7,4.4-15.7,0-30.9-2-45.1-5.6v13.1c0,4.7-3.8,8.6-8.6,8.6h-34.4c-4.7,0-8.6-3.8-8.6-8.6v-36.1c-29.3-20-49.1-48.8-52.9-81.4-29-17.9-32-55.9-30.5-59.1Z"/>
          </g>
          <g>
            <path class="st13" d="M516.6,334.5s11.4-3.1,18.2,16.3c6.8,19.4-2.2,32.4-20,28.7-17.6-3.7-19.4-13.6-18.5-19.7.9-6.2,3.7-7.7,5.2-13.9,1.5-6.2,15.1-11.4,15.1-11.4Z"/>
            <g>
              <path class="st5" d="M441,408l-3.3-2.5s-4.2-2.5-4.7-2.7-6-1.5-6-1.5l-4.4-.4s0,.8.5,1.2c.5.5,4.8.9,4.8.9l1.8,1.4s.6,3.9.9,4.5c.3.6,2.4,2.2,2.8,2.2s3.4-.8,3.4-.8l1.7.8,2.5-3.1Z"/>
              <g>
                <g>
                  <polygon class="st2" points="538.5 489.3 553.3 582.6 549.9 582.6 531.1 489.8 538.5 489.3"/>
                  <polygon class="st2" points="483.9 489.3 469.1 582.6 472.5 582.6 491.3 489.8 483.9 489.3"/>
                </g>
                <path class="st25" d="M481.3,398.8h59.9c1.1,0,1.9.9,1.9,1.9v85.8c0,3.4-2.8,6.1-6.1,6.1h-51.4c-3.4,0-6.1-2.8-6.1-6.1v-85.8c0-1.1.9-1.9,1.9-1.9Z" transform="translate(1022.4 891.5) rotate(-180)"/>
              </g>
              <g>
                <polygon class="st5" points="450.3 549.9 445.3 568.4 450.7 571.3 456.7 555.8 450.3 549.9"/>
                <path class="st7" d="M450.7,571.3l-6.1-5.2-2.5,2.9s-13-7.3-16.4-7.8c-2,.6,21.6,19,21.6,19l3.4-8.9Z"/>
              </g>
              <g>
                <polygon class="st5" points="511.1 551.6 521.1 568 526.9 566 519.7 551 511.1 551.6"/>
                <path class="st7" d="M526.9,566l-8,.8.4,3.8s-14.3,4.4-17,6.5c-.9,1.9,28.7-2.5,28.7-2.5l-4.1-8.6Z"/>
              </g>
              <path class="st18" d="M502.5,393.8c1.1-3.1-1-6.5-4.3-6.5-1.9,0-4,.7-6.3,3.1-6.3,6.6-19.4,42.8-19.4,42.8,0,0-.7,5.9,5,5.2,4.9-.6,20.5-32.4,25-44.6Z"/>
              <path class="st7" d="M480.2,488.7l44.4-6.3-5.7-26.2-20.5-4-6.3,12.5s-20.7,10.6-29.4,16c-1.6,1-2.6,2.6-2.9,4.4l-12,70.6,9.7,2.3"/>
              <path class="st23" d="M480.2,476.2c4-5.1,30.1-8.5,30.1-8.5l-3.4-15.9,26.2-1.1s6.8,21.6,4,31.3c-2.8,9.7-42.1,5.1-42.1,5.1l29.3,70.7-8.5,2.8s-39.5-72.2-39.5-76.5,4-7.9,4-7.9Z"/>
              <path class="st18" d="M510,383.8s-14.5,3.4-15.9,4.6c-1.4,1.1,1.7,10.2,1.4,11.4-.3,1.1-5.7,11.4-1.4,17.3,2.3,3.3,6.3,25.9.6,40.7-.9,2.8,17.9,2.3,17.9,2.3h4.3s19.2.4,18.3-2.5c-5.7-14.8-2.2-37.2.2-40.5,4.3-6-1.1-16.2-1.4-17.3-.3-1.1,2.8-10.2,1.4-11.4-1.4-1.1-15.9-4.6-15.9-4.6h-9.5Z"/>
              <g>
                <path class="st5" d="M511.3,372.4s.8,8.4-4.1,12.3c0,0,3.1,2.5,8,2.5h-.8c4.9,0,8-2.5,8-2.5-4.9-3.9-4.1-12.3-4.1-12.3h-6.9Z"/>
                <path class="st5" d="M514.9,374.9h0c8,0,14.4-6.5,14.4-14.4v-12.1c0-8-6.5-14.4-14.4-14.4h0c-8,0-14.4,6.5-14.4,14.4v12.1c0,8,6.5,14.4,14.4,14.4Z"/>
              </g>
              <path class="st18" d="M537.5,390.5c-1.4-3-5.4-3.7-7.7-1.4-1.3,1.3-2.3,3.4-2.2,6.7.4,9.1,17.4,43.6,17.4,43.6,0,0,3.8,4.6,7.2,0,3-3.9-9.1-37.3-14.8-48.9Z"/>
              <g>
                <path class="st18" d="M550,434.4s-28.2-7.2-45.5-7.4l-.3,5.6s37.1,11.8,45.4,9.9c4.4-.4,3.5-6.7.3-8.1Z"/>
                <path class="st5" d="M505.4,431.8s-3,3.4-8,1.4c-1.3-.1-2.1-.7-2.1-.7l-2.6,1.4s-.7,1.8-1.3,1.6c-.6-.3,0-2.1.1-3,.1-.9,3-4,4-5.1,1-1.1,10-.3,10-.3,0,0,3.4,2.1-.1,4.7Z"/>
              </g>
              <path class="st18" d="M478.9,431.3s-23-17.9-38.7-24.9l-2.5,5s29.3,25.6,37.7,27.3c4.2,1.4,5.9-4.7,3.6-7.3Z"/>
              <path class="st13" d="M523.2,342.1s-11.4,10.2-25.6,9.1c-2-1.1,1.4-18.8,16.2-17.9,11.4,1.4,13.4,6.3,13.4,6.3l-4,2.6Z"/>
              <path class="st13" d="M525.2,339s-5.4,4.3-3.7,10.5c1.7,6.3,5.7,15.6,1.7,24.5.9,4.8,9.7.9,9.7.9l-2.3-17.6-1.7-14.8s-.9-3.4-3.7-3.4Z"/>
            </g>
            <g>
              <path class="st2" d="M638,583.1l-46.9-139.2s16.7,1.5,15.9,1.5l37.5,137.7h-6.5Z"/>
              <path class="st2" d="M340.4,583.1l37.5-137.7c-.8,0,15.9-1.5,15.9-1.5l-46.9,139.2h-6.5Z"/>
              <rect class="st2" x="349.8" y="439" width="283.4" height="9.5" transform="translate(983.1 887.5) rotate(-180)"/>
            </g>
            <path class="st2" d="M524.5,365.9h91c3.1,0,5.7,2.5,5.7,5.7v46.6s0,6.3,0,6.3c0,3.1-2.5,5.7-5.7,5.7h-29.8s0,11.2,0,11.2h-28.1v-11.2s-33.2,0-33.2,0c-3.1,0-5.7-2.5-5.7-5.7v-6.3s0-46.6,0-46.6c0-3.1,2.5-5.7,5.7-5.7Z"/>
          </g>
          <g>
            <g>
              <g>
                <path class="st5" d="M256,305h23.9c1.1,0,2,.9,2,2v35.6c0,1.1-.9,2-2,2h-23.9c-1.1,0-2-.9-2-2v-35.6c0-1.1.9-2,2-2Z"/>
                <path class="st5" d="M270.7,341.9s1.1,8.3,2.8,10.2h-14.6s3-13.2,3-13.2l8.7,3Z"/>
              </g>
              <g>
                <polygon class="st31" points="337.6 370.5 338.9 368.7 339.8 366.3 341.5 364.4 342.1 365.9 341.2 368 340.9 370.3 337.6 370.5"/>
                <path class="st5" d="M333.9,375l3.1-4.4,4.2-2s8.8-1.8,9-1.1c.2.7-1.3,2-1.3,2,0,0-1.7,4.6-2.4,5.1-.7.6-8.1.7-8.1.7l-2.6,2.4-2-2.8Z"/>
                <polygon class="st19" points="237 411.9 264.8 376.8 258.5 374.2 228.5 408 237 411.9"/>
                <polygon class="st7" points="314.1 572.4 314.8 575.7 327.5 581.4 306 581.4 306.6 574.4 306.2 571.8 314.1 572.4"/>
                <polygon class="st7" points="242.5 572.4 243.3 575.7 255.9 581.4 234.5 581.4 235 574.4 234.7 571.8 242.5 572.4"/>
                <polygon class="st3" points="242.2 429.8 245.1 492.9 232.6 572.2 245.1 572.2 264.2 490.7 270.8 424.7 242.2 429.8"/>
                <polygon class="st3" points="261.7 431.4 287.4 502.6 304.3 573 316 573 304.3 501.1 295.5 428.5 261.7 431.4"/>
                <path class="st19" d="M238.6,358.8l6.6,50.5-3.7,24.2h55s-2.1-77.3-2.1-77.3c0-3.1-2.7-5.5-5.7-5.4l-44.9,1.7c-3.2.1-5.7,3-5.3,6.2Z"/>
                <path class="st19" d="M237.2,357l-9.1,49.6c-.6,3.3,1.9,6.3,5.2,6.3h0c2.4,0,4.5-1.6,5.1-3.9l13.5-49.9c1-3.5-1.9-6.9-5.5-6.7l-4.4.3c-2.4.2-4.4,2-4.9,4.3Z"/>
                <path class="st19" d="M283.8,361.3l22.8,45c1.5,3,5.3,3.8,8,1.8h0c1.9-1.5,2.6-4,1.7-6.2l-19.5-47.9c-1.4-3.4-5.7-4.4-8.4-2l-3.3,2.9c-1.8,1.6-2.3,4.2-1.2,6.4Z"/>
                <polygon class="st24" points="331.9 376.2 334.8 372.9 338.2 376.9 336.1 379.3 331.9 376.2"/>
                <path class="st19" d="M332.4,373.7l-25.8,26c-1.8,1.8-1.1,4.9,1.3,5.7l4.9,1.7c1.4.5,3,0,3.9-1.2l20.6-27.1-4.9-5.2Z"/>
              </g>
            </g>
            <path class="st21" d="M248.1,318.7s.9,18.3,11.6,25.3c1.5.5,7.5.3,9-.3,1.5-.7,5.3-5.3,7.5-12,1.5-2.7.9-17.3.9-17.3,0,0,4.6,3.6,7-1.2,2.4-4.8-2-13.6-8.3-14.9s-6.2,3.1-9.7,2.9c-3.5-.2-20.4,1.4-18,17.6Z"/>
            <path class="st5" d="M278.3,325.6s-2.2-7-4.8-4.4c-2.6,2.6,1.5,11.2,3.3,10.3,1.8-.9,1.5-5.9,1.5-5.9Z"/>
          </g>
        </g>
      </g>
    </g>
    <g id="_图层_2" data-name="图层_2">
      <polygon class="st26" points="184.4 902.1 332.5 754 406.1 827.6 628 605.8 657.6 632.6 686.3 499.9 557 541.4 584.5 566.3 406.1 744.6 332.5 670.9 101.3 902.1 184.4 902.1"/>
    </g>
  </g>
</svg>